<?xml version="1.0" encoding="UTF-8"?>
<svg xmlns="http://www.w3.org/2000/svg" xmlns:xlink="http://www.w3.org/1999/xlink" version="1.2" >
<font id="Cuciniere Regular">
<font-face  font-family="Cuciniere" units-per-em="1000" ascent="750" descent="-111" font-style="normal" font-weight="400" font-stretch="normal" cap-height="734" x-height="530" underline-position="-75" underline-thickness="50" />
<missing-glyph  horiz-adv-x="400" d="" />
<glyph glyph-name="NULL" d="" />
<glyph glyph-name="&amp;#x0;" horiz-adv-x="400" d="" />
<glyph glyph-name="&amp;#x0;" horiz-adv-x="400" d="" />
<glyph glyph-name="&amp;#x0;" horiz-adv-x="400" d="" />
<glyph glyph-name="&amp;#x0;" horiz-adv-x="400" d="" />
<glyph glyph-name="&amp;#x0;" horiz-adv-x="400" d="" />
<glyph glyph-name="&amp;#xd;" unicode="&#xd;" horiz-adv-x="400" d="" />
<glyph glyph-name="space" unicode="&#x20;" horiz-adv-x="400" d="" />
<glyph glyph-name="exclam" unicode="&#x21;" horiz-adv-x="190" d="M126 228 C121 314 112 411 112 503 C112 619 117 734 121 850 L118 854 C100 856 82 859 65 859 L58 855 C52 774 50 682 50 601 C50 528 52 456 52 383 C52 363 51 218 79 218 C95 218 127 213 126 228 L126 228 Z M104 1 C121 1 134 17 139 32 L137 38 C138 42 140 46 140 50 C139 77 122 92 92 92 C90 92 89 91 86 91 C66 91 50 76 50 52 C50 41 52 29 58 21 C65 10 78 1 91 1 L104 1 Z " />
<glyph glyph-name="quotedbl" unicode="&#x22;" horiz-adv-x="323" d="M69 735 C32 693 66 684 69 560 C69 545 92 532 108 545 C120 555 116 595 123 639 C127 675 145 714 133 729 C115 751 87 755 69 735 L69 735 Z M209 735 C172 693 206 684 209 560 C209 545 232 532 248 545 C260 555 256 595 263 639 C267 675 285 714 273 729 C255 751 227 755 209 735 L209 735 Z " />
<glyph glyph-name="numbersign" unicode="&#x23;" horiz-adv-x="604" d="M469 512 C476 541 514 687 514 706 C514 710 512 716 511 720 L457 720 C449 720 439 674 437 668 C425 616 418 563 404 511 L311 509 L228 511 C235 540 273 687 273 706 C273 710 271 716 270 720 L216 720 C209 720 199 679 198 674 C185 621 177 567 163 514 C135 515 106 517 78 520 L71 514 L71 458 L73 453 C97 450 122 451 147 451 C132 396 121 339 108 283 L28 288 L21 282 L21 226 L23 221 C46 218 70 219 94 219 C79 156 59 92 59 27 C59 13 60 -1 78 -1 C94 -1 110 2 126 7 C132 78 146 148 161 217 C221 212 274 216 334 216 C320 153 300 90 300 25 C300 11 302 -1 319 -1 C335 -1 351 2 367 7 C373 76 387 145 401 213 C428 211 490 197 490 240 L490 279 L415 280 C429 336 439 392 453 448 C480 444 550 427 550 472 L550 511 L469 512 Z M174 280 C188 336 199 393 213 449 C236 447 259 443 282 443 C317 443 353 449 388 451 C372 394 359 335 348 277 L301 277 C259 277 216 279 174 280 L174 280 Z " />
<glyph glyph-name="dollar" unicode="&#x24;" horiz-adv-x="520" d="M66 90 C99 44 163 14 223 4 L223 -79 C223 -83 227 -90 229 -94 L241 -95 C248 -95 285 -95 285 -93 L290 -87 L294 1 C325 4 349 13 378 28 C455 67 470 110 470 205 C470 234 460 254 449 276 C431 312 408 326 371 348 C351 359 326 369 299 379 L299 628 L298 658 C353 647 375 606 414 593 C422 596 447 619 456 627 L454 640 C423 682 354 718 297 725 L297 771 C297 819 292 830 242 830 C238 830 232 826 229 825 L227 722 C120 708 50 645 50 520 C50 447 100 397 157 369 C177 359 199 351 223 343 L223 70 C172 84 135 121 108 124 C101 122 71 104 67 101 L66 90 Z M406 181 C406 122 352 75 296 66 C298 123 299 176 299 256 L299 315 C358 290 406 255 406 181 L406 181 Z M117 535 C117 605 166 644 225 657 C224 568 223 488 223 409 C165 435 117 471 117 535 L117 535 Z " />
<glyph glyph-name="percent" unicode="&#x25;" horiz-adv-x="719" d="M571 647 C508 555 127 85 115 50 L150 15 L160 16 C224 100 645 623 645 675 C645 732 455 706 423 706 C257 706 50 752 50 585 C50 519 104 463 171 463 C236 463 291 518 291 583 C291 603 286 628 278 647 C417 662 512 653 571 647 L571 647 Z M546 0 C611 0 669 52 669 119 C669 185 616 241 549 241 C482 241 422 181 429 117 C429 48 474 0 546 0 L546 0 Z M489 122 C489 163 518 175 544 174 C583 172 596 143 599 126 C604 102 588 65 550 65 C505 65 489 86 489 122 L489 122 Z M223 584 C223 564 197 525 179 525 C139 525 114 544 114 585 C114 615 134 647 160 646 C204 645 223 641 223 584 L223 584 Z " />
<glyph glyph-name="ampersand" unicode="&#x26;" horiz-adv-x="671" d="M546 149 C575 201 620 280 620 341 C620 364 581 369 564 370 C544 313 526 253 501 198 C440 263 211 474 211 554 C211 611 258 659 315 659 C352 659 380 625 391 629 C405 640 418 652 431 665 L432 669 L431 668 L430 676 C418 704 344 727 315 727 C221 727 144 646 144 553 C144 481 176 463 218 414 C116 370 50 303 50 185 C50 63 166 -2 275 -2 C366 -2 441 34 505 98 C519 79 558 23 582 21 L629 55 L546 149 Z M273 61 C176 61 118 114 118 212 C118 289 192 337 257 356 C331 294 397 215 462 145 C406 89 354 61 273 61 L273 61 Z " />
<glyph glyph-name="quotesingle" unicode="&#x27;" horiz-adv-x="185" d="M100 578 C146 647 135 663 135 687 C135 706 110 729 91 729 C76 729 51 716 51 699 C51 698 53 695 53 694 C53 692 50 685 50 684 C50 678 53 673 56 668 L55 666 C55 658 70 646 69 647 C71 645 77 645 78 642 C79 639 75 628 75 624 C75 609 47 566 51 559 C55 553 70 549 75 554 C83 562 94 569 100 578 L100 578 Z " />
<glyph glyph-name="parenleft" unicode="&#x28;" horiz-adv-x="377" d="M286 929 C135 800 50 564 50 368 C50 222 100 -22 288 -207 L326 -169 L326 -159 C216 -3 113 125 113 365 C113 732 318 844 322 889 L286 929 L286 929 Z " />
<glyph glyph-name="parenright" unicode="&#x29;" horiz-adv-x="377" d="M54 889 C58 844 263 732 263 365 C263 125 160 -3 50 -159 L50 -169 L88 -207 C276 -22 326 222 326 368 C326 564 241 800 90 929 L54 889 Z " />
<glyph glyph-name="asterisk" unicode="&#x2a;" horiz-adv-x="535" d="M232 740 C230 680 235 622 236 563 C208 573 93 601 71 601 C51 601 47 554 45 540 C101 522 159 515 216 503 C199 493 178 465 174 445 C168 440 163 431 162 423 L158 422 C143 406 137 385 125 367 C119 359 108 353 107 342 C121 325 140 314 159 303 C191 342 236 418 266 464 C277 444 354 303 365 302 C382 312 398 322 415 331 L419 338 C389 392 360 456 321 504 C342 507 470 532 474 532 L485 539 L469 598 L461 598 C423 598 340 577 298 569 C294 618 300 669 300 718 C300 743 282 741 263 741 L232 740 L232 740 Z " />
<glyph glyph-name="plus" unicode="&#x2b;" horiz-adv-x="550" d="M306 31 C310 95 304 159 304 223 C361 223 417 218 474 218 C496 218 501 233 501 252 L500 285 C435 289 370 283 305 283 C306 304 313 467 315 472 L309 480 C291 479 273 480 255 480 C241 461 247 431 247 408 C247 366 236 326 239 284 C219 285 63 292 58 294 L51 288 L50 279 L51 231 L51 232 L53 227 C76 223 100 226 123 226 C163 226 201 214 242 217 C246 163 239 110 239 56 C239 28 252 30 275 30 L306 31 L306 31 Z " />
<glyph glyph-name="comma" unicode="&#x2c;" horiz-adv-x="187" d="M100 -63 C146 6 135 22 135 46 C135 65 110 88 91 88 C76 88 51 75 51 58 C51 57 53 54 53 53 C53 51 50 44 50 43 C50 37 53 32 56 27 L55 25 C55 17 70 5 69 6 C71 4 77 4 78 1 C79 -2 75 -13 75 -17 C75 -32 47 -75 51 -82 C55 -88 70 -92 75 -87 C83 -79 94 -72 100 -63 L100 -63 Z " />
<glyph glyph-name="hyphen" unicode="&#x2d;" horiz-adv-x="550" d="M500 396 C433 400 227 400 160 400 C137 400 65 402 58 405 L51 399 L50 390 L51 342 L51 343 L53 338 C76 334 99 337 122 337 C159 337 198 331 235 331 L364 331 C421 331 417 329 474 329 C496 329 500 336 500 357 L500 396 Z " />
<glyph glyph-name="period" unicode="&#x2e;" horiz-adv-x="190" d="M104 1 C121 1 134 17 139 32 L137 38 C138 42 140 46 140 50 C139 77 122 92 92 92 C90 92 89 91 86 91 C66 91 50 76 50 52 C50 41 52 29 58 21 C65 10 78 1 91 1 L104 1 Z " />
<glyph glyph-name="slash" unicode="&#x2f;" horiz-adv-x="464" d="M2 -130 C13 -135 47 -155 57 -155 L63 -151 C116 -75 395 688 455 845 L406 882 C395 875 35 -48 2 -130 L2 -130 Z " />
<glyph glyph-name="zero" unicode="0" horiz-adv-x="504" d="M251 514 C101 514 50 376 50 248 C50 118 123 -1 265 -1 C375 -1 454 121 454 222 C454 353 410 514 251 514 L251 514 Z M390 251 C390 155 347 63 238 63 C140 63 114 189 114 266 C114 345 155 446 248 446 C351 446 390 338 390 251 L390 251 Z " />
<glyph glyph-name="one" unicode="1" horiz-adv-x="527" d="M477 66 C420 69 363 65 306 65 C306 201 303 337 303 473 C303 499 289 512 263 512 C235 485 50 401 50 382 L81 334 L86 333 C116 346 218 418 237 419 C242 391 242 354 242 329 C242 242 231 153 237 67 C219 68 80 75 75 77 L67 71 L67 15 L69 10 C91 8 110 9 132 9 C192 9 240 0 302 5 C310 -2 375 -2 389 -2 C429 -2 478 -17 478 35 L477 66 L477 66 Z " />
<glyph glyph-name="two" unicode="2" horiz-adv-x="510" d="M455 65 C359 70 273 68 174 68 C259 143 460 205 460 340 C460 453 359 515 255 515 C180 515 50 449 50 364 C50 345 96 338 107 346 C112 350 116 355 118 360 C146 423 206 451 275 451 C332 451 393 395 393 337 C393 230 50 108 50 33 C50 17 81 7 93 6 L94 5 C198 5 305 -1 409 -1 C456 -1 460 -1 460 53 C460 56 459 65 455 65 L455 65 Z " />
<glyph glyph-name="three" unicode="3" horiz-adv-x="514" d="M407 -31 C407 -109 341 -181 262 -181 C152 -181 171 -129 118 -70 C93 -70 72 -67 58 -83 C62 -193 185 -249 281 -249 C378 -249 470 -138 470 -45 C470 35 418 117 339 142 C400 176 465 228 465 305 C465 421 368 515 253 515 C178 515 50 448 50 363 C50 343 94 345 107 345 C116 345 125 374 128 381 C158 441 219 447 279 447 C342 447 403 355 403 297 C403 193 226 178 157 178 C116 178 96 176 96 130 C97 113 119 112 122 112 C151 111 160 110 189 108 C272 100 407 77 407 -31 L407 -31 Z " />
<glyph glyph-name="four" unicode="4" horiz-adv-x="637" d="M419 18 C468 17 516 14 565 14 C573 14 590 18 590 29 L589 73 C573 90 447 85 419 86 C419 190 452 506 393 515 C352 521 50 91 50 50 L51 43 C91 3 292 20 355 20 C354 -34 350 -48 350 -102 C350 -142 361 -167 406 -167 L418 -160 L419 18 Z M147 91 C202 164 313 307 350 385 C352 380 352 265 352 251 L352 84 L315 83 C259 83 204 92 147 91 L147 91 Z " />
<glyph glyph-name="five" unicode="5" horiz-adv-x="488" d="M435 515 C373 517 311 518 249 518 L101 518 C22 518 53 392 53 334 C53 305 76 298 100 298 C134 298 167 309 201 309 C283 309 368 301 368 206 C368 127 318 63 233 63 C171 63 138 94 112 146 L98 146 C89 146 52 143 52 129 C52 55 150 0 217 0 L259 0 C360 0 436 104 436 196 C436 399 263 366 118 366 L116 369 L116 453 C205 454 291 448 379 448 C425 448 440 453 440 503 C440 505 436 513 435 515 L435 515 Z " />
<glyph glyph-name="six" unicode="6" horiz-adv-x="532" d="M463 663 L464 717 C463 720 460 720 457 724 L437 724 C216 724 50 488 50 283 C50 149 136 -3 285 -3 C402 -3 482 91 482 205 C482 310 382 396 280 396 C211 396 158 360 114 309 C127 439 213 582 336 634 C375 651 417 651 458 658 L463 663 Z M146 201 C142 286 212 332 296 332 C361 332 418 264 418 201 C418 121 347 65 285 65 C257 65 225 78 201 92 C167 112 148 153 146 201 L146 201 Z " />
<glyph glyph-name="seven" unicode="7" horiz-adv-x="541" d="M492 484 C492 490 482 506 478 510 C220 519 176 515 63 515 L51 509 L50 500 C50 485 49 470 51 455 L57 447 C152 441 307 457 403 449 C390 410 167 -37 167 -41 C167 -57 213 -77 227 -77 C231 -77 244 -44 245 -40 C269 20 479 455 491 467 L492 484 Z " />
<glyph glyph-name="eight" unicode="8" horiz-adv-x="492" d="M50 193 C50 73 141 -1 257 -1 C356 -1 441 96 441 193 C441 259 405 322 352 360 C407 404 443 448 443 522 C443 622 361 716 259 716 C142 716 52 638 52 518 C52 459 87 389 137 356 C89 331 50 245 50 193 L50 193 Z M376 178 C376 109 302 63 239 63 C169 63 118 130 118 197 C118 269 171 327 247 327 C329 327 376 254 376 178 L376 178 Z M209 396 C155 409 116 468 116 522 C116 593 173 653 245 653 C314 653 375 596 375 526 C375 433 306 389 209 396 L209 396 Z " />
<glyph glyph-name="nine" unicode="9" horiz-adv-x="532" d="M69 -151 L68 -205 C69 -208 72 -208 75 -212 L95 -212 C316 -212 482 24 482 229 C482 363 396 515 247 515 C130 515 50 421 50 307 C50 202 150 116 252 116 C321 116 374 152 418 203 C405 73 319 -70 196 -122 C157 -139 115 -139 74 -146 L69 -151 Z M386 311 C390 226 320 180 236 180 C171 180 114 248 114 311 C114 391 185 447 247 447 C275 447 307 434 331 420 C365 400 384 359 386 311 L386 311 Z " />
<glyph glyph-name="colon" unicode="&#x3a;" horiz-adv-x="190" d="M104 1 C121 1 134 17 139 32 L137 38 C138 42 140 46 140 50 C139 77 122 92 92 92 C90 92 89 91 86 91 C66 91 50 76 50 52 C50 41 52 29 58 21 C65 10 78 1 91 1 L104 1 Z M104 430 C121 430 134 446 139 461 L137 467 C138 471 140 475 140 479 C139 506 122 521 92 521 C90 521 89 520 86 520 C66 520 50 505 50 481 C50 470 52 458 58 450 C65 439 78 430 91 430 L104 430 Z " />
<glyph glyph-name="semicolon" unicode="&#x3b;" horiz-adv-x="190" d="M100 -63 C146 6 135 22 135 46 C135 65 110 88 91 88 C76 88 51 75 51 58 C51 57 53 54 53 53 C53 51 50 44 50 43 C50 37 53 32 56 27 L55 25 C55 17 70 5 69 6 C71 4 77 4 78 1 C79 -2 75 -13 75 -17 C75 -32 47 -75 51 -82 C55 -88 70 -92 75 -87 C83 -79 94 -72 100 -63 L100 -63 Z M104 430 C121 430 134 446 139 461 L137 467 C138 471 140 475 140 479 C139 506 122 521 92 521 C90 521 89 520 86 520 C66 520 50 505 50 481 C50 470 52 458 58 450 C65 439 78 430 91 430 L104 430 Z " />
<glyph glyph-name="less" unicode="&#x3c;" horiz-adv-x="529" d="M459 470 C431 465 237 368 193 347 C174 338 59 292 57 276 C53 273 50 262 50 258 C50 235 57 229 72 213 C75 210 439 18 450 16 C455 25 478 62 478 69 C478 73 408 112 400 117 C366 135 165 245 139 248 L139 249 C139 268 455 368 479 420 L459 470 L459 470 Z " />
<glyph glyph-name="equal" unicode="&#x3d;" horiz-adv-x="550" d="M500 279 C433 283 368 277 301 277 C278 277 65 285 58 288 L51 282 L50 273 L51 225 L51 226 L53 221 C76 217 99 220 122 220 C159 220 195 211 232 211 C256 211 280 216 304 216 C361 216 417 212 474 212 C496 212 500 219 500 240 L500 279 Z M500 511 C434 515 367 509 301 509 C278 509 65 517 58 520 L51 514 L50 505 L51 457 L51 458 L53 453 C76 449 99 452 122 452 C159 452 195 443 232 443 C257 443 365 451 390 451 C444 451 419 444 474 444 C497 444 500 452 500 472 L500 511 Z " />
<glyph glyph-name="greater" unicode="&#x3e;" horiz-adv-x="529" d="M50 420 C74 368 390 268 390 249 L390 248 C364 245 163 135 129 117 C121 112 51 73 51 69 C51 62 74 25 79 16 C90 18 454 210 457 213 C472 229 479 235 479 258 C479 262 476 273 472 276 C470 292 355 338 336 347 C292 368 98 465 70 470 L50 420 Z " />
<glyph glyph-name="question" unicode="&#x3f;" horiz-adv-x="640" d="M340 799 C451 799 529 737 529 622 C529 430 245 428 230 222 C258 211 273 209 285 206 L291 210 C352 441 590 386 590 598 C590 754 501 858 341 858 C276 858 135 827 50 729 L81 690 C98 691 193 799 340 799 L340 799 Z M258 1 C275 1 288 17 293 32 L291 38 L294 50 C285 76 277 92 246 92 C244 92 242 91 240 91 C226 77 204 77 204 52 C204 41 210 31 212 21 L245 1 L258 1 Z " />
<glyph glyph-name="at" unicode="&#x40;" horiz-adv-x="744" d="M379 60 C197 60 108 193 108 364 C108 525 194 663 368 663 C547 663 633 525 633 359 C633 302 578 224 517 223 L487 254 L489 513 C489 564 418 553 384 553 C370 553 275 553 275 537 C275 523 282 513 282 493 C323 483 381 488 424 491 L428 486 L427 395 C404 410 380 421 352 421 C278 421 221 366 221 291 C221 223 286 167 352 167 C388 167 424 181 450 206 C467 190 482 172 498 155 C616 189 694 236 694 371 C694 569 571 721 366 721 C162 721 50 550 50 360 C50 139 178 -1 402 -1 C439 -1 600 16 600 62 C600 66 587 95 585 101 C521 76 447 60 379 60 L379 60 Z M428 292 C427 255 391 225 354 225 C315 225 279 252 279 293 C279 332 315 360 352 360 C386 360 429 336 428 292 L428 292 Z " />
<glyph glyph-name="A" unicode="A" horiz-adv-x="684" d="M634 14 C634 30 423 621 398 692 C395 702 384 710 384 713 C374 720 373 722 358 722 C348 722 330 719 330 716 L308 694 L308 692 C292 667 251 545 236 508 C178 363 126 215 66 71 C61 58 50 42 50 28 C50 17 90 6 102 2 C126 2 173 166 190 216 C195 216 201 215 206 215 C213 215 219 218 225 218 C253 218 283 211 311 211 C323 211 329 214 350 214 C357 214 362 218 369 218 C373 215 377 215 382 215 C411 215 440 219 469 219 C479 219 488 215 497 215 C512 180 556 -1 588 -1 C598 -1 634 2 634 14 L634 14 Z M349 278 C306 278 262 282 219 282 C223 290 227 299 230 308 C233 313 349 605 349 626 L353 626 C361 618 462 318 474 283 C432 282 391 278 349 278 L349 278 Z " />
<glyph glyph-name="B" unicode="B" horiz-adv-x="613" d="M486 472 C492 495 494 518 494 542 C494 551 490 563 491 572 C490 572 490 574 490 575 C488 586 484 597 480 608 C474 624 465 639 455 653 C448 656 424 683 411 691 C364 722 319 724 264 724 C212 724 154 717 104 722 C85 712 73 707 73 681 C73 569 74 457 75 345 C76 254 64 125 77 42 C79 30 83 17 93 10 C114 -6 249 -1 288 -1 C326 -1 405 6 438 26 L440 26 C524 68 563 118 563 214 C563 222 559 230 560 238 C550 252 546 277 536 294 C508 340 463 358 417 381 C448 402 462 420 479 453 C482 459 480 470 486 472 L486 472 Z M205 346 C278 346 439 331 481 261 C496 236 496 220 496 191 C496 98 367 66 295 66 C244 66 193 68 142 68 C144 82 136 106 136 121 C136 196 137 269 135 344 C157 343 183 346 205 346 L205 346 Z M136 412 C146 453 136 650 136 658 L137 659 C184 659 230 660 277 660 C355 660 428 629 428 539 C428 455 367 410 287 410 C239 410 181 408 136 412 L136 412 Z " />
<glyph glyph-name="C" unicode="C" horiz-adv-x="591" d="M414 78 C412 78 408 76 406 76 C380 68 355 63 328 63 C170 63 104 207 104 348 C104 490 155 659 324 659 C358 659 385 653 416 640 C417 641 418 639 419 638 C432 637 444 619 456 615 C461 608 479 589 488 589 C490 589 524 620 529 625 L530 628 L528 637 C524 641 520 645 517 650 C514 651 511 654 509 656 C497 667 480 677 469 688 C410 706 430 723 342 723 C261 723 195 712 137 650 L117 628 C117 628 116 627 116 626 C48 545 40 443 40 342 C40 310 48 278 55 247 C58 231 60 215 64 199 C94 78 209 -1 329 -1 C332 -1 342 -2 344 0 C409 -1 484 25 528 74 C533 80 541 89 541 97 C541 107 515 142 506 142 C505 142 504 142 503 141 C474 117 450 93 414 78 L414 78 Z " />
<glyph glyph-name="D" unicode="D" horiz-adv-x="578" d="M82 694 C80 653 80 597 80 589 C80 473 86 357 86 241 C86 202 82 156 87 117 C89 102 90 28 89 15 C88 -3 138 -3 173 -3 C240 -3 315 20 368 62 C387 77 408 87 425 104 C494 173 528 275 528 371 C528 531 441 631 303 696 C291 702 223 728 212 726 C211 729 182 729 178 729 C136 729 82 737 82 694 L82 694 Z M190 661 C213 661 250 647 271 640 C338 617 416 554 441 486 C443 479 457 446 456 440 C463 425 465 371 465 353 C465 192 313 38 155 64 C158 77 155 109 155 124 C154 277 148 429 148 582 C148 594 147 649 147 657 C147 667 165 661 190 661 L190 661 Z " />
<glyph glyph-name="E" unicode="E" horiz-adv-x="674" d="M606 78 C488 78 370 72 252 67 C223 66 190 61 159 61 C153 61 147 62 141 62 C136 67 136 281 136 305 C143 305 151 304 158 304 C167 304 175 308 184 308 C217 308 252 301 286 301 C307 301 326 309 362 309 C367 309 371 306 377 306 C425 306 474 309 523 309 C551 309 550 320 550 345 C550 355 549 366 548 376 L521 377 C458 377 397 369 335 369 C268 369 202 372 136 372 C136 414 142 528 142 602 C142 629 141 651 139 662 L208 662 C338 662 469 657 599 657 C608 657 624 658 624 670 C624 685 623 701 623 717 C607 727 540 728 489 728 C421 728 400 724 352 724 C274 724 195 730 116 730 C103 730 75 714 76 700 C70 687 70 556 70 530 C70 496 75 460 75 426 C75 406 72 387 72 367 C72 326 77 285 77 244 C77 219 73 194 73 169 C73 122 68 35 87 10 L100 1 C106 1 114 -2 121 -2 C239 -2 358 8 477 8 C509 8 542 8 574 12 C609 16 614 34 614 66 C614 72 613 78 606 78 L606 78 Z M620 720 L620 719 L621 719 L620 720 Z " />
<glyph glyph-name="F" unicode="F" horiz-adv-x="655" d="M119 4 C120 41 120 77 120 114 C120 177 119 240 118 303 L129 302 C137 302 147 306 156 306 L161 306 C194 300 230 300 264 300 C288 300 315 308 339 308 C343 306 347 305 351 305 C389 305 426 310 464 310 C476 310 489 307 501 307 C531 307 525 331 525 358 C525 367 523 376 512 376 C441 376 370 367 299 367 C238 367 178 370 117 370 C115 448 114 527 114 606 C114 626 114 646 116 665 C273 660 430 657 587 657 C595 657 605 658 605 669 L604 717 C599 730 481 728 470 728 C447 728 425 724 402 724 C380 724 357 729 335 729 C256 729 177 733 98 733 C68 733 50 707 50 677 C50 668 55 659 55 650 C55 627 52 605 52 582 C52 561 56 540 56 519 C56 444 55 368 55 292 C55 254 56 217 56 179 C56 137 52 95 52 54 C52 17 55 -1 104 -1 C110 -1 115 -1 119 4 L119 4 Z " />
<glyph glyph-name="G" unicode="G" horiz-adv-x="658" d="M357 291 C407 293 460 296 510 296 C512 294 523 174 523 154 L524 152 C524 135 427 81 406 73 C401 71 376 66 375 65 C368 65 361 63 353 63 L326 62 C234 62 173 129 142 208 C135 225 126 266 126 271 C126 296 118 339 118 365 C118 434 133 506 169 565 C169 566 174 572 174 573 C216 630 265 659 336 659 C426 659 469 610 474 609 L479 603 C484 602 488 592 501 590 C504 592 536 621 541 626 L541 630 C541 642 527 652 519 659 C462 711 404 726 326 726 C300 726 268 715 244 707 C101 659 50 500 50 362 C50 310 58 268 74 218 C106 119 116 104 198 41 C236 12 281 -1 329 -1 C414 -1 493 31 554 92 C576 114 588 119 588 157 C588 250 587 363 522 363 L513 364 C472 364 430 362 390 357 C356 353 348 337 348 303 C348 298 350 291 357 291 L357 291 Z " />
<glyph glyph-name="H" unicode="H" horiz-adv-x="629" d="M157 7 C145 105 137 197 137 297 C138 298 145 298 155 298 C189 298 264 294 278 294 C297 294 332 297 349 302 C352 300 360 299 371 299 C400 299 447 304 461 304 C469 304 479 302 487 301 L486 275 C484 232 481 166 481 106 C481 73 483 42 488 16 C491 1 510 -1 523 0 L554 2 L554 42 C554 134 549 227 549 320 C549 449 559 578 559 706 C559 709 559 720 553 720 L499 720 C487 720 488 690 488 676 C488 652 491 627 491 605 C491 552 482 497 482 444 C482 422 487 402 487 381 C487 377 486 373 485 369 C407 368 332 362 253 362 C214 362 175 362 137 365 C140 478 147 593 147 706 C147 709 147 720 141 720 L87 720 C76 720 79 691 79 680 C79 656 80 633 80 609 C80 503 70 464 70 292 C70 184 73 54 90 11 C94 2 100 -1 110 -1 C126 -1 142 2 157 7 L157 7 Z " />
<glyph glyph-name="I" unicode="I" horiz-adv-x="511" d="M440 66 C426 67 412 67 399 67 C364 67 329 70 295 70 C299 91 293 107 293 127 C293 183 302 240 302 296 C302 357 295 419 295 483 C295 541 295 600 299 657 C340 657 381 655 422 655 C438 655 441 673 441 691 C441 703 440 715 440 722 C425 723 410 724 395 724 C359 724 324 721 288 721 C217 721 148 733 77 733 C72 733 71 725 71 716 C71 709 72 701 72 698 C72 693 70 684 70 677 C70 665 78 663 86 663 C101 663 113 665 129 665 C156 665 187 655 216 655 C221 655 226 655 231 656 L231 633 C231 556 236 480 236 403 C236 291 235 182 228 71 C179 74 126 77 77 77 C72 77 71 69 71 60 C71 53 72 45 72 42 C72 37 70 28 70 21 C70 9 78 7 86 7 L243 7 C264 7 411 -4 398 -4 C421 -4 441 2 441 35 C441 47 440 59 440 66 L440 66 Z " />
<glyph glyph-name="J" unicode="J" horiz-adv-x="468" d="M163 664 C218 663 273 663 328 663 C328 533 333 415 333 278 C333 184 321 66 225 66 C131 66 129 140 117 209 L112 216 L98 217 C86 217 70 217 58 216 L51 208 L50 196 C50 129 76 67 132 29 L150 19 C177 7 199 -1 229 -1 C332 -1 398 108 398 201 C398 365 392 531 392 696 L391 697 C385 720 361 727 346 727 C303 727 260 731 216 731 C173 731 158 729 158 676 L163 664 Z " />
<glyph glyph-name="K" unicode="K" horiz-adv-x="632" d="M581 57 C421 66 445 202 382 308 C368 335 334 352 307 366 C318 376 331 384 341 398 C371 442 569 695 569 696 C569 707 518 734 516 734 C490 712 479 678 458 656 C400 595 358 528 312 459 C304 454 289 437 290 435 C266 409 234 390 198 390 C178 390 157 394 137 394 C138 500 144 607 146 712 L140 723 C138 724 135 724 132 724 L86 723 C79 720 78 709 78 698 C78 667 79 640 79 609 C79 551 70 490 70 431 C70 304 78 172 78 43 C78 17 81 0 118 0 C127 0 140 4 149 5 C143 112 136 218 136 326 C145 325 153 325 162 325 C212 325 221 324 261 313 C380 279 354 113 432 50 C468 21 518 -9 569 -6 C585 -5 583 22 583 43 C583 48 582 53 581 57 L581 57 Z " />
<glyph glyph-name="L" unicode="L" horiz-adv-x="589" d="M71 718 C70 681 70 644 70 608 C70 480 74 356 74 226 L74 111 C73 101 73 92 73 82 L73 67 C73 57 72 41 83 23 L98 9 L105 6 C106 5 106 5 107 5 L116 3 C121 2 125 2 129 2 L149 2 C273 -1 405 -5 522 -5 C532 -5 540 -3 540 8 C540 15 538 24 538 29 C539 35 539 40 539 47 C539 66 524 66 416 66 C391 66 371 62 348 62 C330 62 311 67 291 67 L167 69 C161 69 155 68 149 68 C142 68 140 69 140 77 L140 91 C140 103 135 112 135 124 C135 141 138 163 138 183 C138 204 134 225 134 245 C134 255 138 265 138 277 C138 283 137 289 137 295 L134 556 C134 588 138 621 138 656 C138 723 126 722 82 722 C76 722 71 721 71 718 L71 718 Z " />
<glyph glyph-name="M" unicode="M" horiz-adv-x="968" d="M898 712 L895 728 L867 728 C809 728 538 231 477 205 C398 244 223 706 120 734 L80 733 L72 703 L71 528 C70 430 82 297 82 196 L82 49 C82 41 86 3 95 -1 C109 -8 120 -5 133 2 C175 24 132 536 132 621 L134 633 C188 557 390 137 471 137 C577 137 745 528 833 599 L830 95 C830 55 832 -2 887 -1 L898 11 L898 712 Z " />
<glyph glyph-name="N" unicode="N" horiz-adv-x="684" d="M151 5 C151 211 142 415 136 620 L137 642 L140 641 C235 542 327 439 421 338 C462 294 500 248 542 206 C542 173 544 140 544 107 C544 84 539 62 539 39 C539 -5 558 -2 596 -2 C613 -2 608 66 608 89 C608 166 604 243 604 320 C604 450 614 580 614 710 C614 719 606 721 597 721 C590 721 583 720 579 720 C571 720 562 721 554 721 C545 713 543 693 543 671 C543 646 546 620 546 607 C546 552 538 495 538 440 C538 422 543 405 543 387 C543 379 540 370 540 362 C540 344 544 326 544 308 L543 305 C511 339 476 369 446 404 C394 464 183 711 123 737 C122 737 111 739 109 740 C94 737 78 729 74 713 L73 712 C70 705 70 697 70 689 C70 657 78 622 78 590 C78 581 75 571 75 562 C75 451 83 339 83 228 L83 65 C83 25 87 -1 140 -1 C144 -1 151 -1 151 5 L151 5 Z " />
<glyph glyph-name="O" unicode="O" horiz-adv-x="750" d="M52 340 C52 153 184 -2 377 -2 C604 -2 700 173 700 376 C700 570 574 728 372 728 C166 728 52 543 52 340 L52 340 Z M388 664 C556 664 636 513 636 364 C636 270 594 127 496 93 C494 90 474 83 470 81 C470 81 406 66 387 66 C254 66 175 122 132 250 C113 305 111 380 119 436 C145 599 261 664 388 664 L388 664 Z " />
<glyph glyph-name="P" unicode="P" horiz-adv-x="660" d="M139 7 L139 276 C181 260 246 247 291 247 C335 247 534 287 540 328 C595 370 610 448 610 513 C610 684 438 726 298 726 C238 726 178 723 117 723 C114 720 110 719 106 719 C104 719 103 719 101 720 C77 711 74 691 73 690 L71 105 C71 93 70 81 70 70 C70 31 76 0 128 0 L139 7 Z M137 659 C192 659 246 663 301 663 C404 663 543 637 543 507 C543 416 507 403 503 385 C465 360 436 340 392 325 C391 325 383 322 382 321 C351 318 321 315 289 315 C250 315 180 329 143 343 C136 345 136 520 136 609 C136 632 136 648 135 657 L137 659 Z " />
<glyph glyph-name="Q" unicode="Q" horiz-adv-x="750" d="M52 340 C52 153 184 -2 377 -2 C421 -2 461 4 495 17 C581 -119 687 -270 885 -270 C946 -270 1068 -253 1106 -203 L1109 -192 C1108 -188 1089 -147 1082 -147 C1078 -147 1058 -161 1053 -164 C1009 -190 943 -206 892 -206 C715 -206 629 -79 554 46 C655 111 700 237 700 376 C700 570 574 728 372 728 C166 728 52 543 52 340 L52 340 Z M388 664 C556 664 636 513 636 364 C636 278 600 151 520 104 C460 205 399 291 293 291 C269 291 186 269 134 242 C113 305 111 380 119 436 C145 599 261 664 388 664 L388 664 Z M290 228 C355 228 405 161 458 78 C438 73 401 66 387 66 C282 66 211 100 164 178 C202 203 254 228 290 228 L290 228 Z " />
<glyph glyph-name="R" unicode="R" horiz-adv-x="667" d="M159 12 C159 83 143 156 143 229 L143 250 C186 250 233 246 278 246 C302 246 327 247 350 251 C385 163 446 104 456 88 C478 59 547 -20 554 -20 C567 -20 596 15 603 23 C569 61 531 95 499 135 C467 175 446 222 418 265 C532 313 617 347 617 493 C617 498 617 579 604 587 C568 684 444 729 347 729 C302 729 257 721 212 721 C184 721 160 723 134 723 C112 723 70 726 70 690 C70 552 78 414 78 276 L78 191 C78 159 78 22 105 7 C112 3 133 2 141 2 C148 2 159 3 159 12 L159 12 Z M273 315 C229 316 185 314 141 318 C141 432 134 546 134 660 L134 661 C187 661 241 665 294 665 L341 665 C418 665 550 621 550 526 C550 496 542 465 542 435 C542 383 429 330 391 323 C349 315 312 315 273 315 L273 315 Z " />
<glyph glyph-name="S" unicode="S" horiz-adv-x="519" d="M66 90 C109 31 201 0 271 0 C315 0 343 10 378 28 C455 67 470 110 470 205 C470 234 460 254 449 276 C431 312 408 326 371 348 C289 396 117 414 117 535 C117 621 191 661 268 661 C347 661 369 609 414 593 C422 596 447 619 456 627 L454 640 C419 688 336 726 277 726 C143 726 50 664 50 520 C50 447 100 397 157 369 C251 323 406 314 406 181 C406 116 339 65 278 65 L264 64 C192 64 142 121 108 124 C101 122 71 104 67 101 L66 90 Z " />
<glyph glyph-name="T" unicode="T" horiz-adv-x="570" d="M519 723 L489 724 C374 724 260 719 146 719 C117 719 89 719 60 720 L50 714 L50 657 L52 658 L55 653 C62 651 69 651 76 651 C93 651 110 654 127 654 C166 654 207 647 246 647 C246 624 248 602 248 580 C248 523 239 465 239 408 C239 383 242 359 242 333 C242 314 241 279 241 238 C241 136 246 -1 278 -1 C294 -1 310 3 325 7 C313 108 306 204 306 306 C306 422 308 539 314 655 C327 653 336 653 342 653 C392 653 442 656 492 656 C513 656 520 661 520 684 L519 723 Z " />
<glyph glyph-name="U" unicode="U" horiz-adv-x="731" d="M603 714 C602 675 602 635 602 596 C602 517 603 439 603 360 C603 212 526 59 361 59 C275 59 262 101 223 112 C121 242 128 310 128 477 C128 550 132 623 132 696 C132 705 128 721 120 721 L72 720 C59 712 61 532 61 535 L61 345 C61 179 161 -5 369 -5 C412 -5 454 9 491 29 C670 127 667 303 667 485 C667 544 671 603 671 662 C671 697 666 720 615 721 L603 714 Z " />
<glyph glyph-name="V" unicode="V" horiz-adv-x="688" d="M50 706 C50 660 262 135 289 23 C299 11 307 0 327 0 C336 0 350 2 355 7 L363 15 C390 42 404 102 420 142 C438 187 633 683 633 695 C633 703 591 716 582 719 C570 718 565 697 561 688 C503 546 451 402 393 259 C375 214 332 111 332 97 L332 96 C320 98 312 142 310 150 C282 270 221 406 180 524 C160 582 132 722 97 722 C86 722 50 719 50 706 L50 706 Z " />
<glyph glyph-name="W" unicode="W" horiz-adv-x="940" d="M311 707 C311 695 417 398 430 361 C419 341 335 87 328 102 C321 116 303 176 295 198 L180 525 C160 582 132 722 97 722 C87 722 50 719 50 707 C50 688 282 28 298 14 C311 3 317 3 324 3 C378 3 387 68 404 110 C424 161 443 214 465 264 C466 262 539 31 560 13 L567 7 C573 4 578 3 585 3 C608 3 628 14 637 37 C656 88 892 680 892 695 C892 703 850 716 840 719 C836 719 833 715 830 713 C799 665 592 93 590 101 C585 119 574 133 570 153 C554 220 521 289 500 354 C515 392 631 682 631 695 C631 703 589 716 579 719 C575 719 572 715 569 713 C523 636 504 533 466 451 C456 482 389 722 358 722 C348 722 311 719 311 707 L311 707 Z " />
<glyph glyph-name="X" unicode="X" horiz-adv-x="645" d="M591 20 C591 31 370 319 344 360 C363 386 594 692 594 697 C594 704 557 729 549 734 L540 733 C508 697 487 653 457 617 C417 569 329 468 306 414 C284 446 87 739 77 739 C75 739 32 708 31 705 L30 699 C84 618 140 540 194 459 C209 436 260 378 267 362 C241 320 32 38 32 25 C32 16 67 -17 75 -17 C76 -17 77 -17 78 -16 C151 58 236 218 306 307 C329 284 521 -10 542 -10 C550 -10 591 12 591 20 L591 20 Z " />
<glyph glyph-name="Y" unicode="Y" horiz-adv-x="666" d="M565 727 C530 688 337 461 314 422 C298 422 98 729 76 729 C68 729 27 707 27 700 C27 699 262 374 281 359 L282 314 C283 284 273 252 274 222 C274 207 277 195 277 182 C277 174 279 168 278 153 C278 128 280 -6 304 -6 C316 -6 348 6 359 10 C349 62 340 111 340 164 C340 229 348 294 348 359 C379 402 617 680 617 691 C617 695 575 727 571 728 L565 727 Z " />
<glyph glyph-name="Z" unicode="Z" horiz-adv-x="719" d="M144 71 C144 73 170 100 172 103 C227 163 619 622 637 642 L669 678 L669 694 C664 704 660 709 651 716 C608 724 560 726 511 726 C474 726 436 725 400 725 C295 725 189 736 85 736 C75 736 62 736 62 722 C62 715 65 710 65 702 C65 694 62 685 62 677 L65 674 C78 667 153 665 222 665 C276 665 327 666 346 666 C420 666 494 658 568 658 L569 656 C569 650 561 648 557 644 C511 596 465 546 424 494 C409 475 398 455 380 438 C331 390 295 332 249 283 C190 220 139 154 78 85 C74 80 50 49 50 43 C50 25 65 16 80 11 C97 5 506 -1 557 -1 C568 -1 580 -2 591 -2 C626 -2 660 4 660 50 C660 57 660 63 652 64 C614 70 521 72 444 72 C357 72 265 70 213 70 L145 70 L144 71 Z " />
<glyph glyph-name="bracketleft" unicode="&#x5b;" horiz-adv-x="343" d="M87 943 C48 943 47 882 47 856 L50 -179 C50 -218 60 -220 86 -220 L291 -220 L296 -210 C295 -201 295 -161 292 -161 C267 -161 239 -155 213 -155 C183 -155 150 -150 121 -153 C119 -153 113 -157 113 -151 L116 878 C127 875 221 877 239 877 C279 877 293 894 293 936 C293 939 290 939 289 942 L87 943 Z " />
<glyph glyph-name="backslash" unicode="&#x5c;" horiz-adv-x="452" d="M455 -130 C422 -48 62 875 51 882 L2 845 C62 688 341 -75 394 -151 L400 -155 C410 -155 444 -135 455 -130 L455 -130 Z " />
<glyph glyph-name="bracketright" unicode="&#x5d;" horiz-adv-x="343" d="M54 942 C53 939 50 939 50 936 C50 894 64 877 104 877 C122 877 216 875 227 878 L230 -151 C230 -157 224 -153 222 -153 C193 -150 160 -155 130 -155 C104 -155 76 -161 51 -161 C48 -161 48 -201 47 -210 L52 -220 L257 -220 C283 -220 293 -218 293 -179 L296 856 C296 882 295 943 256 943 L54 942 L54 942 Z " />
<glyph glyph-name="asciicircum" unicode="&#x5e;" horiz-adv-x="401" d="M201 674 L242 613 C268 582 298 508 328 535 L347 552 L351 558 L350 566 C347 569 318 606 307 618 C282 652 248 701 213 745 C187 781 122 656 96 619 C86 606 56 569 53 567 L52 559 L56 553 L90 525 C109 510 146 594 161 616 L201 674 Z " />
<glyph glyph-name="underscore" unicode="&#x5f;" horiz-adv-x="550" d="M500 68 C433 72 227 72 160 72 C137 72 65 74 58 77 L51 71 L50 62 L51 14 L51 15 L53 10 C76 6 99 9 122 9 C159 9 198 3 235 3 L364 3 C421 3 417 1 474 1 C496 1 500 8 500 29 L500 68 Z " />
<glyph glyph-name="grave" unicode="&#x60;" horiz-adv-x="277" d="M48 676 C48 626 149 574 191 574 C206 574 227 575 227 595 C227 611 187 625 156 658 C131 684 112 722 92 722 C64 722 48 703 48 676 L48 676 Z " />
<glyph glyph-name="a" unicode="a" horiz-adv-x="640" d="M545 122 C545 314 541 505 541 697 C527 723 512 726 490 726 C384 726 276 726 171 724 C166 724 158 725 151 725 C138 725 131 722 131 710 L133 665 L135 661 L141 658 C176 656 212 656 247 656 C269 656 291 661 314 661 C367 661 422 658 476 658 C476 657 475 656 474 613 C472 553 481 491 481 431 C481 416 479 396 478 380 C429 424 363 457 296 457 C187 457 88 390 62 284 C55 266 51 250 50 205 C50 82 177 -18 295 -18 C374 -18 445 18 497 77 C506 64 575 -13 593 -13 C602 -13 640 14 640 22 C640 26 554 114 545 122 L545 122 Z M284 45 C196 45 114 130 114 217 C114 327 207 389 308 389 C404 389 480 296 480 209 C482 106 374 45 284 45 L284 45 Z " />
<glyph glyph-name="b" unicode="b" horiz-adv-x="444" d="M394 543 C394 685 243 730 126 730 C113 730 96 723 89 712 C74 689 70 502 70 471 C70 356 80 241 80 126 C80 88 82 4 104 4 C108 2 114 5 140 2 C279 2 396 79 396 224 C396 309 344 345 286 392 C352 420 394 469 394 543 L394 543 Z M332 200 C332 109 218 62 147 62 C148 76 148 91 148 106 C148 190 136 277 136 361 C242 351 332 319 332 200 L332 200 Z M136 435 C136 506 141 662 151 662 C190 661 292 635 311 598 C311 596 314 595 324 578 C329 559 330 558 330 536 C330 444 196 442 136 430 L136 435 Z " />
<glyph glyph-name="c" unicode="c" horiz-adv-x="381" d="M329 63 C181 68 114 213 114 344 C114 453 145 601 263 640 C283 647 309 644 327 650 L332 655 C332 665 331 674 331 684 L331 711 L325 716 C322 717 319 717 316 717 C266 717 221 700 182 669 C73 584 50 486 50 354 C50 327 57 302 57 275 C57 162 180 -1 301 -1 C332 -1 333 22 333 49 C333 54 331 59 329 63 L329 63 Z " />
<glyph glyph-name="d" unicode="d" horiz-adv-x="417" d="M91 65 C96 32 125 0 160 0 C193 0 239 26 267 54 C345 133 368 271 368 378 C368 532 294 719 104 728 L89 722 C78 722 70 693 70 687 C70 521 79 355 79 189 C79 143 82 106 91 65 L91 65 Z M134 660 C134 661 134 662 135 662 C174 662 194 633 221 616 C229 609 251 578 261 559 C292 498 301 431 301 364 C301 273 279 140 199 85 C193 81 169 67 162 67 C143 67 134 589 134 660 L134 660 Z " />
<glyph glyph-name="e" unicode="e" horiz-adv-x="375" d="M310 72 C256 70 202 65 148 65 L146 67 C152 145 140 224 140 302 C151 296 164 296 176 296 C193 296 229 292 243 298 C251 301 251 326 251 333 L250 363 L191 361 C174 361 157 366 140 367 C140 465 145 563 145 661 C199 661 254 658 308 658 L327 672 L325 718 L318 725 C260 728 203 730 145 730 C47 730 74 543 74 472 C74 330 82 189 82 47 C82 1 117 -2 154 -2 L236 -2 C272 -2 315 4 315 49 C315 56 312 65 310 72 L310 72 Z " />
<glyph glyph-name="f" unicode="f" horiz-adv-x="431" d="M141 4 C145 104 139 203 138 303 L148 307 C162 301 177 301 192 301 C196 301 203 305 207 306 L216 304 L226 309 L229 306 L242 305 C263 305 284 308 305 310 C307 321 308 333 308 344 L306 375 L287 376 C264 376 241 368 218 368 L137 370 L137 428 C137 506 148 583 140 661 C216 661 292 657 368 657 C371 657 378 662 381 663 L382 670 L381 717 C364 727 199 729 167 729 L114 729 L104 727 L104 726 C65 712 71 612 71 575 L73 48 C73 3 88 0 129 0 C132 0 138 3 141 4 L141 4 Z " />
<glyph glyph-name="g" unicode="g" horiz-adv-x="522" d="M388 668 C349 703 300 727 247 727 C107 727 50 626 50 498 C50 376 142 300 259 300 C309 300 355 325 391 358 C391 236 386 66 223 66 C104 66 143 167 117 184 L63 187 C60 186 60 182 56 179 L56 158 C56 63 142 -2 234 -2 C517 -2 456 468 456 661 C456 711 452 721 400 721 C397 721 392 718 389 717 L388 668 Z M380 489 C380 419 316 364 248 364 C151 364 114 433 114 521 C114 603 168 659 251 659 C352 659 380 576 380 489 L380 489 Z " />
<glyph glyph-name="h" unicode="h" horiz-adv-x="480" d="M148 5 C143 103 136 201 136 299 C158 294 180 294 202 294 L254 304 C264 295 321 306 335 308 C332 297 331 286 331 275 C331 232 321 0 365 0 C380 0 395 2 410 6 C398 110 394 214 394 319 C394 449 400 580 404 710 L398 720 L389 721 L341 720 L337 716 C335 679 336 643 336 606 C336 532 333 459 333 385 L331 372 C293 369 255 362 217 362 L136 363 C137 479 142 594 146 710 L140 720 L131 721 L86 721 C72 698 79 637 79 609 C79 549 70 490 70 430 C70 301 77 172 77 43 C77 13 84 0 117 0 C127 0 138 3 148 5 L148 5 Z " />
<glyph glyph-name="i" unicode="i" horiz-adv-x="477" d="M427 66 C377 70 327 65 277 65 C272 106 276 147 276 188 C276 259 260 328 260 399 L261 421 L266 422 C306 422 344 413 384 413 C411 413 428 422 428 451 L427 482 C371 486 316 481 260 481 C192 481 126 494 58 494 C48 484 49 466 49 453 C49 406 79 426 110 426 C138 426 166 419 194 416 C198 299 210 183 210 66 C159 69 109 77 58 77 C48 67 49 49 49 36 C49 -9 80 9 110 9 C165 9 209 0 266 5 C277 -2 375 -2 394 -2 C419 -2 428 9 428 34 L427 66 Z M254 666 C281 666 298 675 298 704 L297 735 C296 768 191 748 178 737 C167 728 169 709 169 696 C169 649 199 669 254 666 L254 666 Z " />
<glyph glyph-name="j" unicode="j" horiz-adv-x="189" d="M49 464 C47 324 54 214 54 74 C54 -4 52 -183 -66 -176 L-70 -181 L-70 -237 C-69 -236 -63 -243 -60 -243 C69 -243 119 -98 119 10 C119 53 110 65 110 108 C110 158 119 208 119 258 L117 424 C117 455 114 466 80 466 L49 464 Z M117 735 C116 768 61 748 48 737 C37 728 39 709 39 696 C39 641 118 660 118 704 L117 735 Z " />
<glyph glyph-name="k" unicode="k" horiz-adv-x="455" d="M410 25 C350 152 265 265 209 394 C315 539 405 673 405 677 C405 689 366 712 356 718 C308 654 203 451 137 427 L146 712 L140 722 L134 723 C116 723 97 720 79 718 C76 681 79 645 79 608 C79 549 70 490 70 431 C70 303 78 175 78 47 C78 28 79 0 105 0 C120 0 135 2 150 4 C143 122 136 240 136 358 L149 361 C173 272 277 141 323 52 C329 40 338 -1 355 -1 C371 -1 396 17 410 25 L410 25 Z M84 722 C83 722 83 722 83 721 L84 722 Z " />
<glyph glyph-name="l" unicode="l" horiz-adv-x="366" d="M75 718 C68 496 72 270 72 48 C72 8 91 -1 115 -1 C177 -1 239 -5 301 -5 C303 -5 313 0 315 1 C319 17 316 38 316 55 L310 62 C264 65 217 62 171 62 C161 62 150 64 140 65 C144 106 144 146 144 187 L142 675 C142 704 138 720 105 720 L75 718 L75 718 Z " />
<glyph glyph-name="m" unicode="m" horiz-adv-x="797" d="M135 595 C139 633 136 686 136 710 C136 713 132 718 131 721 L77 721 C66 702 73 470 73 430 C73 301 82 173 82 44 C82 12 84 0 119 0 L150 3 C150 94 142 295 142 386 C142 472 172 661 290 661 C420 661 381 147 381 54 C381 9 389 -1 436 -1 C439 -1 445 3 448 4 C452 122 447 240 447 358 C447 433 491 661 589 661 C718 661 680 148 680 54 C680 9 688 -1 735 -1 C738 -1 744 3 747 4 L749 193 C749 320 774 729 591 729 C512 729 455 650 427 584 C410 654 375 729 292 729 C234 729 159 671 138 595 L135 595 Z " />
<glyph glyph-name="n" unicode="n" horiz-adv-x="575" d="M528 266 C528 419 540 728 324 728 C237 728 164 658 137 580 L138 674 C138 707 139 720 101 720 L70 718 L70 696 C70 467 81 240 73 10 L79 0 L88 -1 L136 1 L140 5 C143 42 140 78 140 115 C140 309 123 660 337 660 C508 660 458 182 458 66 C458 19 460 -1 513 -1 C517 -1 523 3 526 4 L528 266 Z " />
<glyph glyph-name="o" unicode="o" horiz-adv-x="507" d="M256 -1 C429 -1 458 239 458 369 C458 495 416 718 252 718 C111 718 50 527 50 412 C50 276 68 -1 256 -1 L256 -1 Z M247 654 C371 654 394 458 394 366 C394 284 371 67 258 67 C119 67 118 318 118 413 C118 484 156 654 247 654 L247 654 Z " />
<glyph glyph-name="p" unicode="p" horiz-adv-x="380" d="M161 7 C161 94 145 181 145 268 C267 338 330 375 330 529 C330 649 216 749 95 725 C54 698 76 410 76 355 C76 297 75 71 92 24 C104 -11 137 -2 161 7 L161 7 Z M142 657 L146 660 C230 660 262 570 262 499 C262 427 209 367 144 342 C143 418 142 494 142 570 L142 657 Z " />
<glyph glyph-name="q" unicode="q" horiz-adv-x="507" d="M272 0 C299 -66 333 -111 388 -111 C435 -111 480 -65 491 -39 C495 -31 446 -6 437 -2 C424 -19 408 -46 384 -46 C362 -46 341 6 335 22 C444 107 458 240 458 369 C458 496 416 718 252 718 C111 718 50 527 50 412 C50 277 72 -26 272 0 L272 0 Z M247 654 C371 654 394 458 394 366 C394 284 371 67 258 67 C119 67 118 318 118 413 C118 484 156 654 247 654 L247 654 Z " />
<glyph glyph-name="r" unicode="r" horiz-adv-x="384" d="M154 9 C154 44 139 76 139 111 L138 268 C154 273 170 281 185 289 C223 116 265 14 273 -7 L329 11 C300 116 257 218 247 327 C307 378 334 457 334 534 C334 638 240 730 137 730 C64 730 71 694 71 628 L72 100 L73 99 C73 64 78 2 125 2 C135 2 145 5 154 9 L154 9 Z M135 663 L137 664 C214 664 267 591 267 519 C267 408 217 395 137 340 C137 419 135 499 135 578 L135 663 Z " />
<glyph glyph-name="s" unicode="s" horiz-adv-x="343" d="M54 100 C54 32 122 0 182 0 C273 0 295 111 295 182 C295 387 117 366 117 545 C117 581 125 661 175 661 C230 661 217 624 232 613 L246 613 C259 613 273 615 286 614 C289 615 293 622 293 624 C293 682 238 728 182 728 C82 728 50 623 50 543 C50 317 231 378 231 178 C231 142 226 65 175 65 C126 65 122 89 114 117 C113 121 55 113 54 110 L54 100 Z " />
<glyph glyph-name="t" unicode="t" horiz-adv-x="568" d="M454 221 C449 148 424 63 336 63 C245 63 223 155 223 227 C223 309 225 392 227 474 C284 484 331 475 394 475 C438 475 518 456 518 513 L517 534 C445 538 372 541 300 541 L228 542 C228 597 232 651 232 706 C232 710 227 717 226 720 L218 722 L169 719 L165 714 C159 658 164 601 164 545 C147 546 67 547 58 550 L51 544 L50 534 L51 488 L53 483 C89 479 123 481 159 477 C159 419 156 361 156 303 C156 181 169 0 335 0 C436 0 518 92 518 191 C518 223 494 225 468 225 C464 225 458 222 454 221 L454 221 Z " />
<glyph glyph-name="u" unicode="u" horiz-adv-x="579" d="M51 411 C51 268 54 -1 255 -1 C342 -1 415 68 442 147 L441 53 C441 22 441 7 478 7 L509 9 L509 31 C509 260 499 488 506 717 L500 727 L443 727 L439 722 C436 673 439 623 439 574 C439 439 439 67 242 67 C70 67 121 551 121 661 C121 706 117 728 66 728 C62 728 56 724 53 723 L51 411 Z " />
<glyph glyph-name="v" unicode="v" horiz-adv-x="433" d="M50 710 C54 666 173 35 173 34 C181 19 190 7 201 -6 L209 -8 L219 -6 L234 9 L235 8 L235 10 C251 30 386 643 386 692 C386 708 341 713 331 714 L328 713 C312 703 227 201 209 191 C189 293 145 623 119 693 C109 719 103 719 77 719 C73 719 55 712 50 710 L50 710 Z " />
<glyph glyph-name="w" unicode="w" horiz-adv-x="642" d="M50 709 C50 657 167 44 181 21 C187 10 198 -1 212 -1 C274 -1 306 280 320 333 C331 270 358 50 397 12 C400 10 408 -1 415 0 L429 3 C439 17 457 30 460 46 L479 167 C503 290 534 411 561 532 C573 584 596 638 596 691 C596 708 549 712 539 713 L531 706 C500 579 424 299 424 183 L421 163 C416 207 366 469 353 495 C335 498 317 502 300 507 L292 501 C262 395 240 285 215 178 L212 178 C212 233 155 473 142 550 C137 581 135 717 93 717 C81 717 62 711 50 709 L50 709 Z " />
<glyph glyph-name="x" unicode="x" horiz-adv-x="456" d="M405 14 C360 131 305 244 257 360 C306 475 358 589 409 703 L354 729 C334 729 308 630 299 611 C274 557 249 501 221 449 C200 501 128 702 104 733 C88 726 60 720 50 705 C65 643 187 380 187 360 C187 336 66 62 50 24 C44 9 96 -7 105 -10 C148 84 183 182 222 278 C245 215 277 156 303 94 C311 75 329 -5 353 -5 C369 -5 391 7 405 14 L405 14 Z " />
<glyph glyph-name="y" unicode="y" horiz-adv-x="517" d="M50 602 C50 451 70 301 258 301 C307 301 356 320 390 355 C386 232 387 64 221 64 C167 64 125 98 120 154 L121 169 C121 174 120 180 115 182 C103 185 91 185 79 185 L61 185 C56 185 53 167 53 163 C53 69 132 -4 227 -4 C485 -4 456 325 456 506 L455 661 C455 711 451 721 399 721 C396 721 391 718 388 717 C386 648 385 578 387 509 C372 440 350 368 265 368 C237 368 209 368 183 379 C165 387 148 402 138 419 C91 503 118 581 118 677 C118 707 116 720 82 720 L51 718 L50 602 Z " />
<glyph glyph-name="z" unicode="z" horiz-adv-x="368" d="M315 64 C251 68 187 70 123 72 C125 178 318 578 318 688 C318 723 265 723 241 723 C212 723 74 725 57 716 C53 707 57 697 57 687 C57 638 61 651 114 651 C155 651 197 659 238 659 L243 656 C230 641 50 76 50 47 C50 -8 220 -1 263 -1 C310 -1 319 8 319 55 C319 57 316 62 315 64 L315 64 Z " />
<glyph glyph-name="braceleft" unicode="&#x7b;" horiz-adv-x="446" d="M49 352 C48 319 141 350 141 242 C141 162 119 85 119 5 C119 -158 234 -223 384 -223 C387 -223 392 -218 395 -217 L396 -211 C394 -120 390 -170 285 -139 C235 -124 181 -86 181 20 C181 96 205 176 205 254 C205 296 190 333 160 363 C202 398 206 459 206 510 C206 587 188 659 188 736 C188 920 380 835 396 902 L396 922 C396 961 82 941 119 716 C132 636 139 554 139 473 C139 417 105 402 55 402 L51 397 L49 352 Z " />
<glyph glyph-name="bar" unicode="&#x7c;" horiz-adv-x="173" d="M56 905 C47 549 50 187 50 -169 C50 -173 54 -180 56 -184 L68 -185 C75 -185 112 -185 112 -183 L117 -177 C124 -35 126 114 126 256 L126 628 L124 851 C124 899 119 910 69 910 C65 910 59 906 56 905 L56 905 Z " />
<glyph glyph-name="braceright" unicode="&#x7d;" horiz-adv-x="446" d="M393 397 L389 402 C339 402 305 417 305 473 C305 554 312 636 325 716 C362 941 48 961 48 922 L48 902 C64 835 256 920 256 736 C256 659 238 587 238 510 C238 459 242 398 284 363 C254 333 239 296 239 254 C239 176 263 96 263 20 C263 -86 209 -124 159 -139 C54 -170 50 -120 48 -211 L49 -217 C52 -218 57 -223 60 -223 C210 -223 325 -158 325 5 C325 85 303 162 303 242 C303 350 396 319 395 352 L393 397 Z " />
<glyph glyph-name="asciitilde" unicode="&#x7e;" horiz-adv-x="551" d="M443 388 C431 355 394 337 360 337 C288 337 260 417 168 417 C131 417 62 399 50 337 L52 332 C63 326 98 311 110 310 C143 345 137 351 187 351 C241 351 275 281 363 274 C417 270 501 309 501 359 C501 374 455 386 443 388 L443 388 Z " />
<glyph glyph-name="exclamdown" unicode="&#xa1;" horiz-adv-x="190" d="M126 632 C127 647 95 642 79 642 C51 642 52 497 52 477 C52 404 50 332 50 259 C50 178 52 86 58 5 L65 1 C82 1 100 4 118 6 L121 10 C117 126 112 241 112 357 C112 449 121 546 126 632 L126 632 Z M91 859 C78 859 65 850 58 839 C52 831 50 819 50 808 C50 784 66 769 86 769 C89 769 90 768 92 768 C122 768 139 783 140 810 C140 814 138 818 137 822 L139 828 C134 843 121 859 104 859 L91 859 Z " />
<glyph glyph-name="cent" unicode="&#xa2;" horiz-adv-x="381" d="M314 63 C329 260 352 457 376 653 C401 644 487 589 488 589 C494 594 530 621 530 628 C530 661 414 717 383 721 C386 747 392 773 392 800 C392 832 368 839 341 839 L327 836 L314 722 C98 716 40 525 40 342 C40 204 101 62 237 14 L228 -94 C226 -116 267 -113 281 -113 C286 -113 291 -113 294 -108 C299 -72 304 -36 307 0 L336 -1 C384 -1 541 36 541 97 L506 142 C495 142 443 63 314 63 L314 63 Z M244 79 C140 122 104 245 104 348 C104 480 150 647 307 658 C284 465 263 272 244 79 L244 79 Z " />
<glyph glyph-name="sterling" unicode="&#xa3;" horiz-adv-x="703" d="M505 379 C437 377 373 365 306 360 C296 359 254 356 206 354 C186 405 163 455 163 511 C163 600 236 657 321 657 C403 657 392 621 449 598 L452 598 C463 610 479 621 494 627 L495 631 C495 687 364 725 320 725 C199 725 96 630 96 510 C96 452 114 398 133 350 C96 349 66 348 63 349 L57 343 L57 334 L62 286 L62 287 L64 282 C88 280 110 285 133 287 C141 287 150 288 159 288 C168 264 174 243 174 225 C174 196 134 119 111 101 C94 87 61 67 57 52 C54 44 44 26 47 18 L83 -1 C133 1 182 23 232 23 C306 23 374 -14 448 -14 C546 -14 653 48 653 156 C653 174 620 185 606 185 C603 185 598 182 595 181 C579 94 531 51 442 51 C349 51 264 98 171 79 C213 125 236 164 236 231 C236 250 233 269 229 287 C233 287 238 287 243 288 C267 290 291 297 315 299 C372 304 428 305 484 310 C506 312 510 319 508 340 L505 379 Z " />
<glyph glyph-name="yen" unicode="&#xa5;" horiz-adv-x="666" d="M548 254 C481 258 416 252 349 252 L343 252 C345 287 348 323 348 359 L349 360 C385 362 424 365 438 365 C492 365 467 358 522 358 C545 358 548 366 548 386 L548 425 C499 428 449 425 400 423 C479 520 617 682 617 691 C617 695 575 727 571 728 L565 727 C530 688 342 467 315 424 L310 424 C278 451 97 729 76 729 C68 729 27 707 27 700 C27 699 151 526 226 427 C167 429 109 432 106 434 L99 428 L98 419 L99 371 L99 372 L101 367 C124 363 147 366 170 366 C207 366 243 357 280 357 L281 357 L282 314 C282 294 278 274 276 254 C205 256 110 261 106 263 L99 257 L98 248 L99 200 L99 201 L101 196 C124 192 147 195 170 195 C206 195 241 186 277 186 L277 182 C277 174 279 168 278 153 C278 128 280 -6 304 -6 C316 -6 348 6 359 10 C349 62 340 111 340 164 L340 191 L352 191 C409 191 465 187 522 187 C544 187 548 194 548 215 L548 254 Z " />
<glyph glyph-name="brokenbar" unicode="&#xa6;" horiz-adv-x="172" d="M56 908 C52 837 59 765 59 694 C59 667 53 441 50 432 L56 424 L66 423 L113 424 L112 424 L117 427 C120 451 117 474 117 498 C117 539 126 579 126 620 C126 647 119 675 119 702 C119 725 126 754 126 779 C126 814 124 849 124 884 C124 906 113 909 94 909 L56 908 Z M56 280 C51 211 59 143 59 74 C59 48 53 -169 50 -177 L56 -185 L113 -185 L112 -184 L117 -182 C120 -159 117 -137 117 -114 C117 -74 126 -35 126 5 C126 30 119 57 119 82 C119 103 124 129 124 152 C124 184 137 281 96 281 L87 281 L56 280 Z " />
<glyph glyph-name="dieresis" unicode="&#xa8;" horiz-adv-x="368" d="M104 622 C121 622 140 637 139 653 C139 661 140 665 140 671 C140 698 122 713 92 713 C90 713 89 712 86 712 C66 712 50 697 50 673 C50 662 52 650 58 642 C65 631 78 622 91 622 L104 622 Z M272 622 C276 622 288 624 292 624 C321 624 337 713 273 713 C271 713 270 712 267 712 C247 712 231 697 231 673 C231 662 233 650 239 642 C246 631 259 622 272 622 L272 622 Z " />
<glyph glyph-name="copyright" unicode="&#xa9;" horiz-adv-x="843" d="M786 371 L786 387 C786 575 599 721 420 721 C224 721 50 564 50 364 C50 159 218 -1 421 -1 C577 -1 791 127 791 337 C791 344 788 352 787 358 L779 361 L786 371 Z M738 359 C714 336 712 61 416 61 C258 61 109 196 109 357 C109 528 247 663 417 663 C727 663 690 366 759 364 L738 359 Z M509 274 C487 255 460 243 431 243 C360 243 330 292 330 358 C330 421 358 477 428 477 C473 477 491 450 499 450 L537 486 L537 494 C517 517 484 537 453 537 C315 537 271 476 271 343 C271 330 279 315 282 302 C299 230 351 184 426 184 C452 184 543 196 543 231 C543 244 518 265 509 274 L509 274 Z " />
<glyph glyph-name="registered" unicode="&#xae;" horiz-adv-x="467" d="M415 570 C415 667 330 744 235 744 C137 744 50 666 50 566 C50 464 133 386 234 386 C323 386 417 461 417 554 L416 564 L415 570 Z M234 416 C154 416 79 481 79 563 C79 649 149 715 234 715 C343 715 374 652 392 563 C397 538 366 416 234 416 L234 416 Z M302 504 C288 520 287 510 275 535 C296 551 308 562 308 590 C308 664 225 650 175 653 C172 604 172 556 172 507 C172 502 173 498 174 493 L200 493 L202 495 C202 506 203 517 203 528 C218 527 232 527 247 527 C244 514 276 488 285 480 C292 487 297 495 302 504 L302 504 Z M202 561 C202 580 205 601 206 621 L207 621 C217 621 227 623 237 623 C259 623 279 613 279 589 C279 567 257 557 238 557 C226 557 214 558 202 558 L202 561 Z " />
<glyph glyph-name="macron" unicode="&#xaf;" horiz-adv-x="470" d="M420 681 C353 685 227 685 160 685 C137 685 65 687 58 690 L51 684 L50 675 L51 627 L51 628 L53 623 C76 619 99 622 122 622 C159 622 198 616 235 616 C401 616 357 614 394 614 C416 614 420 621 420 642 L420 681 Z " />
<glyph glyph-name="degree" unicode="&#xb0;" horiz-adv-x="340" d="M167 485 C232 485 290 537 290 604 C290 670 237 726 170 726 C103 726 43 666 50 602 C50 533 95 485 167 485 L167 485 Z M110 607 C110 648 139 660 165 659 C204 657 217 628 220 611 C225 587 209 550 171 550 C126 550 110 571 110 607 L110 607 Z " />
<glyph glyph-name="plusminus" unicode="&#xb1;" horiz-adv-x="550" d="M498 76 C461 78 382 79 307 80 C307 127 304 175 304 223 C361 223 417 218 474 218 C496 218 501 233 501 252 L500 285 C435 289 370 283 305 283 C306 304 313 467 315 472 L309 480 C291 479 273 480 255 480 C241 461 247 431 247 408 C247 366 236 326 239 284 C219 285 63 292 58 294 L51 288 L50 279 L51 231 L51 232 L53 227 C76 223 100 226 123 226 C163 226 201 214 242 217 C245 171 240 126 239 80 L158 80 C135 80 63 82 56 85 L49 79 L48 70 L49 22 L49 23 L51 18 C74 14 97 17 120 17 C157 17 196 11 233 11 L362 11 C419 11 415 9 472 9 C494 9 498 16 498 37 L498 76 Z " />
<glyph glyph-name="acute" unicode="&#xb4;" horiz-adv-x="277" d="M227 686 C227 713 211 732 183 732 C163 732 144 694 119 668 C88 635 48 621 48 605 C48 585 69 584 84 584 C126 584 227 636 227 686 L227 686 Z " />
<glyph glyph-name="mu" unicode="&#xb5;" horiz-adv-x="555" d="M51 411 C51 215 50 18 50 -239 C50 -243 54 -250 56 -254 L68 -255 C75 -255 112 -255 112 -253 L117 -247 C122 -148 115 -43 116 58 C146 24 198 -1 255 -1 C342 -1 415 68 442 147 L441 53 C441 22 441 7 478 7 L509 9 L509 31 C509 260 499 488 506 717 L500 727 L443 727 L439 722 C436 673 439 623 439 574 C439 439 439 67 242 67 C170 67 131 153 117 259 C111 571 121 630 121 661 C121 706 117 728 66 728 C62 728 56 724 53 723 L51 411 Z " />
<glyph glyph-name="paragraph" unicode="&#xb6;" horiz-adv-x="547" d="M475 7 C463 105 467 197 467 297 L467 365 C470 478 477 587 477 700 C477 703 473 724 456 724 C354 728 347 726 272 727 C155 729 51 644 51 529 C51 375 114 338 236 268 C236 181 220 94 220 7 C244 -2 277 -11 289 24 C306 71 305 297 305 355 C305 396 297 661 319 661 L409 661 C409 643 410 624 410 609 C410 503 400 464 400 292 C400 184 391 54 408 11 C412 2 418 -1 428 -1 C444 -1 460 2 475 7 L475 7 Z M239 570 C239 494 238 418 237 342 C172 367 119 427 119 499 C119 570 151 660 235 660 L239 657 L239 570 Z " />
<glyph glyph-name="periodcentered" unicode="&#xb7;" horiz-adv-x="190" d="M104 347 C121 347 134 363 139 378 L137 384 C138 388 140 392 140 396 C139 423 122 438 92 438 C90 438 89 437 86 437 C66 437 50 422 50 398 C50 387 52 375 58 367 C65 356 78 347 91 347 L104 347 Z " />
<glyph glyph-name="cedilla" unicode="&#xb8;" horiz-adv-x="249" d="M87 33 C86 14 86 -4 86 -23 C86 -131 175 -68 175 -138 C175 -175 157 -189 121 -189 C113 -189 106 -182 98 -177 C91 -173 53 -213 50 -222 C62 -238 85 -254 106 -254 C166 -254 239 -233 239 -160 C239 -31 158 -45 152 -27 C149 -17 150 3 150 14 C150 39 137 34 118 34 L87 33 Z " />
<glyph glyph-name="onequarter" unicode="&#xbc;" horiz-adv-x="1263" d="M1039 18 C1088 17 1136 14 1185 14 C1193 14 1210 18 1210 29 L1209 73 C1193 90 1067 85 1039 86 C1039 190 1072 506 1013 515 C972 521 670 91 670 50 L671 43 C711 3 912 20 975 20 C974 -34 970 -48 970 -102 C970 -142 981 -167 1026 -167 L1038 -160 L1039 18 Z M285 -83 C295 -90 325 -116 335 -117 L341 -114 C407 -49 814 654 900 798 L858 843 C846 838 331 -8 285 -83 L285 -83 Z M474 406 C417 409 360 405 303 405 C303 541 300 677 300 813 C300 839 286 852 260 852 C232 825 47 741 47 722 L78 674 L83 673 C113 686 215 758 234 759 C239 731 239 694 239 669 C239 582 228 493 234 407 C216 408 77 415 72 417 L64 411 L64 355 L66 350 C88 348 107 349 129 349 C189 349 237 340 299 345 C307 338 372 338 386 338 C426 338 475 323 475 375 L474 406 Z M767 91 C822 164 933 307 970 385 C972 380 972 265 972 251 L972 84 L935 83 C879 83 824 92 767 91 L767 91 Z " />
<glyph glyph-name="onehalf" unicode="&#xbd;" horiz-adv-x="1203" d="M465 406 C408 409 351 405 294 405 C294 541 291 677 291 813 C291 839 277 852 251 852 C223 825 38 741 38 722 L69 674 L74 673 C104 686 206 758 225 759 C230 731 230 694 230 669 C230 582 219 493 225 407 C207 408 68 415 63 417 L55 411 L55 355 L57 350 C79 348 98 349 120 349 C180 349 228 340 290 345 C298 338 363 338 377 338 C417 338 466 323 466 375 L465 406 Z M285 -83 C295 -90 325 -116 335 -117 L341 -114 C407 -49 814 654 900 798 L858 843 C846 838 331 -8 285 -83 L285 -83 Z M1151 10 C1055 15 969 13 870 13 C955 88 1156 150 1156 285 C1156 398 1055 460 951 460 C876 460 746 394 746 309 C746 290 792 283 803 291 C808 295 812 300 814 305 C842 368 902 396 971 396 C1028 396 1089 340 1089 282 C1089 175 746 53 746 -22 C746 -38 777 -48 789 -49 L790 -50 C894 -50 1001 -56 1105 -56 C1152 -56 1156 -56 1156 -2 C1156 1 1155 10 1151 10 L1151 10 Z " />
<glyph glyph-name="threequarters" unicode="&#xbe;" horiz-adv-x="1263" d="M1036 28 C1085 27 1133 24 1182 24 C1190 24 1207 28 1207 39 L1206 83 C1190 100 1064 95 1036 96 C1036 200 1069 516 1010 525 C969 531 667 101 667 60 L668 53 C708 13 909 30 972 30 C971 -24 967 -38 967 -92 C967 -132 978 -157 1023 -157 L1035 -150 L1036 28 Z M351 447 C351 394 305 344 251 344 C198 344 188 361 176 385 L176 384 C169 398 160 412 146 428 L133 428 C115 428 102 430 86 411 C89 320 188 273 265 273 C343 273 418 362 418 438 C418 495 385 555 332 581 C374 607 414 647 414 702 C414 796 335 871 244 871 C183 871 80 816 80 746 C80 721 114 723 130 723 C145 723 150 739 155 750 L158 756 C178 796 220 800 263 800 C306 800 347 737 347 697 C347 627 220 616 171 616 C133 616 115 613 115 569 C117 547 142 547 145 547 L171 545 C176 545 187 544 194 544 C255 536 351 518 351 447 L351 447 Z M285 -83 C295 -90 325 -116 335 -117 L341 -114 C407 -49 814 654 900 798 L858 843 C846 838 331 -8 285 -83 L285 -83 Z M764 101 C819 174 930 317 967 395 C969 390 969 275 969 261 L969 94 L932 93 C876 93 821 102 764 101 L764 101 Z " />
<glyph glyph-name="questiondown" unicode="&#xbf;" horiz-adv-x="640" d="M300 60 C189 60 111 122 111 237 C111 429 395 431 410 637 C382 648 367 650 355 653 L349 649 C288 418 50 473 50 261 C50 105 139 1 299 1 C364 1 505 32 590 130 L559 169 C542 168 447 60 300 60 L300 60 Z M382 858 C365 858 352 842 347 827 L349 821 C348 817 346 813 346 809 C347 782 363 767 394 767 C396 767 398 768 400 768 C414 782 436 782 436 807 C436 818 434 830 428 838 C421 849 408 858 395 858 L382 858 Z " />
<glyph glyph-name="Agrave" unicode="&#xc0;" horiz-adv-x="684" d="M614 14 C614 30 403 621 378 692 C375 702 364 710 364 713 C354 720 353 722 338 722 C328 722 310 719 310 716 L288 694 L288 692 C272 667 231 545 216 508 C158 363 106 215 46 71 C41 58 30 42 30 28 C30 17 70 6 82 2 C106 2 153 166 170 216 C175 216 181 215 186 215 C193 215 199 218 205 218 C233 218 263 211 291 211 C303 211 309 214 330 214 C337 214 342 218 349 218 C353 215 357 215 362 215 C391 215 420 219 449 219 C459 219 468 215 477 215 C492 180 536 -1 568 -1 C578 -1 614 2 614 14 L614 14 Z M329 278 C286 278 242 282 199 282 C203 290 207 299 210 308 C213 313 329 605 329 626 L333 626 C341 618 442 318 454 283 C412 282 371 278 329 278 L329 278 Z M252 886 C252 836 353 784 395 784 C410 784 431 785 431 805 C431 821 391 835 360 868 C335 894 316 932 296 932 C268 932 252 913 252 886 L252 886 Z " />
<glyph glyph-name="Aacute" unicode="&#xc1;" horiz-adv-x="684" d="M614 14 C614 30 403 621 378 692 C375 702 364 710 364 713 C354 720 353 722 338 722 C328 722 310 719 310 716 L288 694 L288 692 C272 667 231 545 216 508 C158 363 106 215 46 71 C41 58 30 42 30 28 C30 17 70 6 82 2 C106 2 153 166 170 216 C175 216 181 215 186 215 C193 215 199 218 205 218 C233 218 263 211 291 211 C303 211 309 214 330 214 C337 214 342 218 349 218 C353 215 357 215 362 215 C391 215 420 219 449 219 C459 219 468 215 477 215 C492 180 536 -1 568 -1 C578 -1 614 2 614 14 L614 14 Z M329 278 C286 278 242 282 199 282 C203 290 207 299 210 308 C213 313 329 605 329 626 L333 626 C341 618 442 318 454 283 C412 282 371 278 329 278 L329 278 Z M431 886 C431 913 415 932 387 932 C367 932 348 894 323 868 C292 835 252 821 252 805 C252 785 273 784 288 784 C330 784 431 836 431 886 L431 886 Z " />
<glyph glyph-name="Acircumflex" unicode="&#xc2;" horiz-adv-x="684" d="M614 14 C614 30 403 621 378 692 C375 702 364 710 364 713 C354 720 353 722 338 722 C328 722 310 719 310 716 L288 694 L288 692 C272 667 231 545 216 508 C158 363 106 215 46 71 C41 58 30 42 30 28 C30 17 70 6 82 2 C106 2 153 166 170 216 C175 216 181 215 186 215 C193 215 199 218 205 218 C233 218 263 211 291 211 C303 211 309 214 330 214 C337 214 342 218 349 218 C353 215 357 215 362 215 C391 215 420 219 449 219 C459 219 468 215 477 215 C492 180 536 -1 568 -1 C578 -1 614 2 614 14 L614 14 Z M329 278 C286 278 242 282 199 282 C203 290 207 299 210 308 C213 313 329 605 329 626 L333 626 C341 618 442 318 454 283 C412 282 371 278 329 278 L329 278 Z M271 868 C240 835 200 821 200 805 C200 785 221 784 236 784 C261 784 308 833 341 859 C374 833 421 784 447 784 C462 784 483 785 483 805 C483 821 443 835 412 868 C389 892 374 931 341 931 C308 931 291 889 271 868 L271 868 Z " />
<glyph glyph-name="Atilde" unicode="&#xc3;" horiz-adv-x="684" d="M614 14 C614 30 403 621 378 692 C375 702 364 710 364 713 C354 720 353 722 338 722 C328 722 310 719 310 716 L288 694 L288 692 C272 667 231 545 216 508 C158 363 106 215 46 71 C41 58 30 42 30 28 C30 17 70 6 82 2 C106 2 153 166 170 216 C175 216 181 215 186 215 C193 215 199 218 205 218 C233 218 263 211 291 211 C303 211 309 214 330 214 C337 214 342 218 349 218 C353 215 357 215 362 215 C391 215 420 219 449 219 C459 219 468 215 477 215 C492 180 536 -1 568 -1 C578 -1 614 2 614 14 L614 14 Z M329 278 C286 278 242 282 199 282 C203 290 207 299 210 308 C213 313 329 605 329 626 L333 626 C341 618 442 318 454 283 C412 282 371 278 329 278 L329 278 Z M429 867 C393 841 336 910 271 910 C237 910 177 885 177 844 C177 825 198 820 212 822 C239 826 254 853 285 853 C317 853 346 807 404 807 C440 807 509 835 509 878 C509 895 480 903 429 867 L429 867 Z " />
<glyph glyph-name="Adieresis" unicode="&#xc4;" horiz-adv-x="684" d="M614 14 C614 30 403 621 378 692 C375 702 364 710 364 713 C354 720 353 722 338 722 C328 722 310 719 310 716 L288 694 L288 692 C272 667 231 545 216 508 C158 363 106 215 46 71 C41 58 30 42 30 28 C30 17 70 6 82 2 C106 2 153 166 170 216 C175 216 181 215 186 215 C193 215 199 218 205 218 C233 218 263 211 291 211 C303 211 309 214 330 214 C337 214 342 218 349 218 C353 215 357 215 362 215 C391 215 420 219 449 219 C459 219 468 215 477 215 C492 180 536 -1 568 -1 C578 -1 614 2 614 14 L614 14 Z M329 278 C286 278 242 282 199 282 C203 290 207 299 210 308 C213 313 329 605 329 626 L333 626 C341 618 442 318 454 283 C412 282 371 278 329 278 L329 278 Z M252 822 C269 822 288 837 287 853 C287 861 288 865 288 871 C288 898 270 913 240 913 C238 913 237 912 234 912 C214 912 198 897 198 873 C198 862 200 850 206 842 C213 831 226 822 239 822 L252 822 Z M420 822 C424 822 436 824 440 824 C469 824 485 913 421 913 C419 913 418 912 415 912 C395 912 379 897 379 873 C379 862 381 850 387 842 C394 831 407 822 420 822 L420 822 Z " />
<glyph glyph-name="Aring" unicode="&#xc5;" horiz-adv-x="684" d="M614 14 C614 29 421 570 382 678 C417 693 444 728 444 769 C444 824 400 871 344 871 C289 871 239 821 245 768 C245 732 259 703 284 686 C266 651 230 542 216 508 C158 363 106 215 46 71 C41 58 30 42 30 28 C30 17 70 6 82 2 C106 2 153 166 170 216 C175 216 181 215 186 215 C193 215 199 218 205 218 C233 218 263 211 291 211 C303 211 309 214 330 214 C337 214 342 218 349 218 C353 215 357 215 362 215 C391 215 420 219 449 219 C459 219 468 215 477 215 C492 180 536 -1 568 -1 C578 -1 614 2 614 14 L614 14 Z M329 278 C286 278 242 282 199 282 C203 290 207 299 210 308 C213 313 329 625 329 646 L333 646 C341 638 442 318 454 283 C412 282 371 278 329 278 L329 278 Z M294 771 C294 805 319 815 340 814 C372 813 383 789 385 774 C390 756 376 725 345 725 C308 725 294 742 294 771 L294 771 Z " />
<glyph glyph-name="AE" unicode="&#xc6;" horiz-adv-x="581" d="M526 72 C472 70 418 65 364 65 L362 67 C368 145 356 224 356 302 C383 299 432 286 459 298 C467 301 467 326 467 333 L466 363 C390 361 373 366 356 367 C356 465 361 563 361 661 C415 661 470 658 524 658 L543 672 L541 718 L534 725 C476 728 419 730 361 730 C319 730 222 740 204 733 C191 728 172 702 172 687 C172 517 50 200 50 18 C50 2 95 -2 106 -2 L110 -1 L109 -1 C126 14 146 187 151 220 C155 221 236 216 295 217 C296 160 298 104 298 47 C298 1 333 -2 370 -2 L452 -2 C488 -2 531 4 531 49 C531 56 528 65 526 72 L526 72 Z M165 283 C194 412 224 534 238 661 L294 661 C290 608 290 515 290 472 C290 408 291 344 293 281 C255 280 185 281 165 283 L165 283 Z " />
<glyph glyph-name="Ccedilla" unicode="&#xc7;" horiz-adv-x="588" d="M414 78 C412 78 408 76 406 76 C380 68 355 63 328 63 C170 63 104 207 104 348 C104 490 155 659 324 659 C358 659 385 653 416 640 C417 641 418 639 419 638 C432 637 444 619 456 615 C461 608 479 589 488 589 C490 589 524 620 529 625 L530 628 L528 637 C524 641 520 645 517 650 C514 651 511 654 509 656 C497 667 480 677 469 688 C410 706 430 723 342 723 C261 723 195 712 137 650 L117 628 C117 628 116 627 116 626 C48 545 40 443 40 342 C40 310 48 278 55 247 C58 231 60 215 64 199 C89 96 176 23 275 4 L275 -23 C275 -131 364 -68 364 -138 C364 -175 346 -189 310 -189 C302 -189 295 -182 287 -177 C280 -173 242 -213 239 -222 C251 -238 274 -254 295 -254 C355 -254 428 -233 428 -160 C428 -31 347 -45 341 -27 C339 -20 339 -10 339 -1 C341 -1 343 -1 344 0 C409 -1 484 25 528 74 C533 80 541 89 541 97 C541 107 515 142 506 142 C505 142 504 142 503 141 C474 117 450 93 414 78 L414 78 Z " />
<glyph glyph-name="Egrave" unicode="&#xc8;" horiz-adv-x="653" d="M586 78 C468 78 350 72 232 67 C203 66 170 61 139 61 C133 61 127 62 121 62 C116 67 116 281 116 305 C123 305 131 304 138 304 C147 304 155 308 164 308 C197 308 232 301 266 301 C287 301 306 309 342 309 C347 309 351 306 357 306 C405 306 454 309 503 309 C531 309 530 320 530 345 C530 355 529 366 528 376 L501 377 C438 377 377 369 315 369 C248 369 182 372 116 372 C116 414 122 528 122 602 C122 629 121 651 119 662 L188 662 C318 662 449 657 579 657 C588 657 604 658 604 670 C604 685 603 701 603 717 C587 727 520 728 469 728 C401 728 380 724 332 724 C254 724 175 730 96 730 C83 730 55 714 56 700 C50 687 50 556 50 530 C50 496 55 460 55 426 C55 406 52 387 52 367 C52 326 57 285 57 244 C57 219 53 194 53 169 C53 122 48 35 67 10 L80 1 C86 1 94 -2 101 -2 C219 -2 338 8 457 8 C489 8 522 8 554 12 C589 16 594 34 594 66 C594 72 593 78 586 78 L586 78 Z M237 886 C237 836 338 784 380 784 C395 784 416 785 416 805 C416 821 376 835 345 868 C320 894 301 932 281 932 C253 932 237 913 237 886 L237 886 Z M600 720 L600 719 L601 719 L600 720 Z " />
<glyph glyph-name="Eacute" unicode="&#xc9;" horiz-adv-x="653" d="M586 78 C468 78 350 72 232 67 C203 66 170 61 139 61 C133 61 127 62 121 62 C116 67 116 281 116 305 C123 305 131 304 138 304 C147 304 155 308 164 308 C197 308 232 301 266 301 C287 301 306 309 342 309 C347 309 351 306 357 306 C405 306 454 309 503 309 C531 309 530 320 530 345 C530 355 529 366 528 376 L501 377 C438 377 377 369 315 369 C248 369 182 372 116 372 C116 414 122 528 122 602 C122 629 121 651 119 662 L188 662 C318 662 449 657 579 657 C588 657 604 658 604 670 C604 685 603 701 603 717 C587 727 520 728 469 728 C401 728 380 724 332 724 C254 724 175 730 96 730 C83 730 55 714 56 700 C50 687 50 556 50 530 C50 496 55 460 55 426 C55 406 52 387 52 367 C52 326 57 285 57 244 C57 219 53 194 53 169 C53 122 48 35 67 10 L80 1 C86 1 94 -2 101 -2 C219 -2 338 8 457 8 C489 8 522 8 554 12 C589 16 594 34 594 66 C594 72 593 78 586 78 L586 78 Z M416 886 C416 913 400 932 372 932 C352 932 333 894 308 868 C277 835 237 821 237 805 C237 785 258 784 273 784 C315 784 416 836 416 886 L416 886 Z M600 720 L600 719 L601 719 L600 720 Z " />
<glyph glyph-name="Ecircumflex" unicode="&#xca;" horiz-adv-x="653" d="M586 78 C468 78 350 72 232 67 C203 66 170 61 139 61 C133 61 127 62 121 62 C116 67 116 281 116 305 C123 305 131 304 138 304 C147 304 155 308 164 308 C197 308 232 301 266 301 C287 301 306 309 342 309 C347 309 351 306 357 306 C405 306 454 309 503 309 C531 309 530 320 530 345 C530 355 529 366 528 376 L501 377 C438 377 377 369 315 369 C248 369 182 372 116 372 C116 414 122 528 122 602 C122 629 121 651 119 662 L188 662 C318 662 449 657 579 657 C588 657 604 658 604 670 C604 685 603 701 603 717 C587 727 520 728 469 728 C401 728 380 724 332 724 C254 724 175 730 96 730 C83 730 55 714 56 700 C50 687 50 556 50 530 C50 496 55 460 55 426 C55 406 52 387 52 367 C52 326 57 285 57 244 C57 219 53 194 53 169 C53 122 48 35 67 10 L80 1 C86 1 94 -2 101 -2 C219 -2 338 8 457 8 C489 8 522 8 554 12 C589 16 594 34 594 66 C594 72 593 78 586 78 L586 78 Z M256 868 C225 835 185 821 185 805 C185 785 206 784 221 784 C246 784 293 833 326 859 C359 833 406 784 432 784 C447 784 468 785 468 805 C468 821 428 835 397 868 C374 892 359 931 326 931 C293 931 276 889 256 868 L256 868 Z M600 720 L600 719 L601 719 L600 720 Z " />
<glyph glyph-name="Edieresis" unicode="&#xcb;" horiz-adv-x="653" d="M586 78 C468 78 350 72 232 67 C203 66 170 61 139 61 C133 61 127 62 121 62 C116 67 116 281 116 305 C123 305 131 304 138 304 C147 304 155 308 164 308 C197 308 232 301 266 301 C287 301 306 309 342 309 C347 309 351 306 357 306 C405 306 454 309 503 309 C531 309 530 320 530 345 C530 355 529 366 528 376 L501 377 C438 377 377 369 315 369 C248 369 182 372 116 372 C116 414 122 528 122 602 C122 629 121 651 119 662 L188 662 C318 662 449 657 579 657 C588 657 604 658 604 670 C604 685 603 701 603 717 C587 727 520 728 469 728 C401 728 380 724 332 724 C254 724 175 730 96 730 C83 730 55 714 56 700 C50 687 50 556 50 530 C50 496 55 460 55 426 C55 406 52 387 52 367 C52 326 57 285 57 244 C57 219 53 194 53 169 C53 122 48 35 67 10 L80 1 C86 1 94 -2 101 -2 C219 -2 338 8 457 8 C489 8 522 8 554 12 C589 16 594 34 594 66 C594 72 593 78 586 78 L586 78 Z M237 822 C254 822 273 837 272 853 C272 861 273 865 273 871 C273 898 255 913 225 913 C223 913 222 912 219 912 C199 912 183 897 183 873 C183 862 185 850 191 842 C198 831 211 822 224 822 L237 822 Z M405 822 C409 822 421 824 425 824 C454 824 470 913 406 913 C404 913 403 912 400 912 C380 912 364 897 364 873 C364 862 366 850 372 842 C379 831 392 822 405 822 L405 822 Z M600 720 L600 719 L601 719 L600 720 Z " />
<glyph glyph-name="Igrave" unicode="&#xcc;" horiz-adv-x="469" d="M419 66 C405 67 391 67 378 67 C343 67 308 70 274 70 C278 91 272 107 272 127 C272 183 281 240 281 296 C281 357 274 419 274 483 C274 541 274 600 278 657 C319 657 360 655 401 655 C417 655 420 673 420 691 C420 703 419 715 419 722 C404 723 389 724 374 724 C338 724 303 721 267 721 C196 721 127 733 56 733 C51 733 50 725 50 716 C50 709 51 701 51 698 C51 693 49 684 49 677 C49 665 57 663 65 663 C80 663 92 665 108 665 C135 665 166 655 195 655 C200 655 205 655 210 656 L210 633 C210 556 215 480 215 403 C215 291 214 182 207 71 C158 74 105 77 56 77 C51 77 50 69 50 60 C50 53 51 45 51 42 C51 37 49 28 49 21 C49 9 57 7 65 7 L222 7 C243 7 390 -4 377 -4 C400 -4 420 2 420 35 C420 47 419 59 419 66 L419 66 Z M145 886 C145 836 246 784 288 784 C303 784 324 785 324 805 C324 821 284 835 253 868 C228 894 209 932 189 932 C161 932 145 913 145 886 L145 886 Z " />
<glyph glyph-name="Iacute" unicode="&#xcd;" horiz-adv-x="469" d="M419 66 C405 67 391 67 378 67 C343 67 308 70 274 70 C278 91 272 107 272 127 C272 183 281 240 281 296 C281 357 274 419 274 483 C274 541 274 600 278 657 C319 657 360 655 401 655 C417 655 420 673 420 691 C420 703 419 715 419 722 C404 723 389 724 374 724 C338 724 303 721 267 721 C196 721 127 733 56 733 C51 733 50 725 50 716 C50 709 51 701 51 698 C51 693 49 684 49 677 C49 665 57 663 65 663 C80 663 92 665 108 665 C135 665 166 655 195 655 C200 655 205 655 210 656 L210 633 C210 556 215 480 215 403 C215 291 214 182 207 71 C158 74 105 77 56 77 C51 77 50 69 50 60 C50 53 51 45 51 42 C51 37 49 28 49 21 C49 9 57 7 65 7 L222 7 C242 7 376 -3 378 -4 C400 -4 420 2 420 35 C420 47 419 59 419 66 L419 66 Z M324 886 C324 913 308 932 280 932 C260 932 241 894 216 868 C185 835 145 821 145 805 C145 785 166 784 181 784 C223 784 324 836 324 886 L324 886 Z " />
<glyph glyph-name="Icircumflex" unicode="&#xce;" horiz-adv-x="469" d="M419 66 C405 67 391 67 378 67 C343 67 308 70 274 70 C278 91 272 107 272 127 C272 183 281 240 281 296 C281 357 274 419 274 483 C274 541 274 600 278 657 C319 657 360 655 401 655 C417 655 420 673 420 691 C420 703 419 715 419 722 C404 723 389 724 374 724 C338 724 303 721 267 721 C196 721 127 733 56 733 C51 733 50 725 50 716 C50 709 51 701 51 698 C51 693 49 684 49 677 C49 665 57 663 65 663 C80 663 92 665 108 665 C135 665 166 655 195 655 C200 655 205 655 210 656 L210 633 C210 556 215 480 215 403 C215 291 214 182 207 71 C158 74 105 77 56 77 C51 77 50 69 50 60 C50 53 51 45 51 42 C51 37 49 28 49 21 C49 9 57 7 65 7 L222 7 C242 7 376 -3 378 -4 C400 -4 420 2 420 35 C420 47 419 59 419 66 L419 66 Z M164 868 C133 835 93 821 93 805 C93 785 114 784 129 784 C154 784 201 833 234 859 C267 833 314 784 340 784 C355 784 376 785 376 805 C376 821 336 835 305 868 C282 892 267 931 234 931 C201 931 184 889 164 868 L164 868 Z " />
<glyph glyph-name="Idieresis" unicode="&#xcf;" horiz-adv-x="469" d="M419 66 C405 67 391 67 378 67 C343 67 308 70 274 70 C278 91 272 107 272 127 C272 183 281 240 281 296 C281 357 274 419 274 483 C274 541 274 600 278 657 C319 657 360 655 401 655 C417 655 420 673 420 691 C420 703 419 715 419 722 C404 723 389 724 374 724 C338 724 303 721 267 721 C196 721 127 733 56 733 C51 733 50 725 50 716 C50 709 51 701 51 698 C51 693 49 684 49 677 C49 665 57 663 65 663 C80 663 92 665 108 665 C135 665 166 655 195 655 C200 655 205 655 210 656 L210 633 C210 556 215 480 215 403 C215 291 214 182 207 71 C158 74 105 77 56 77 C51 77 50 69 50 60 C50 53 51 45 51 42 C51 37 49 28 49 21 C49 9 57 7 65 7 L222 7 C243 7 390 -4 377 -4 C400 -4 420 2 420 35 C420 47 419 59 419 66 L419 66 Z M145 822 C162 822 181 837 180 853 C180 861 181 865 181 871 C181 898 163 913 133 913 C131 913 130 912 127 912 C107 912 91 897 91 873 C91 862 93 850 99 842 C106 831 119 822 132 822 L145 822 Z M313 822 C317 822 329 824 333 824 C362 824 378 913 314 913 C312 913 311 912 308 912 C288 912 272 897 272 873 C272 862 274 850 280 842 C287 831 300 822 313 822 L313 822 Z " />
<glyph glyph-name="Eth" unicode="&#xd0;" horiz-adv-x="548" d="M52 694 C50 653 50 597 50 589 C50 525 52 461 53 398 C24 398 -27 400 -33 403 L-40 397 L-41 388 L-40 340 L-40 341 L-38 336 C-15 332 8 335 31 335 C42 335 49 334 55 334 C55 303 56 272 56 241 C56 202 52 156 57 117 C59 102 60 28 59 15 C58 -3 108 -3 143 -3 C210 -3 285 20 338 62 C357 77 378 87 395 104 C464 173 498 275 498 371 C498 531 411 631 273 696 C261 702 193 728 182 726 C181 729 152 729 148 729 C106 729 52 737 52 694 L52 694 Z M160 661 C183 661 220 647 241 640 C308 617 386 554 411 486 C413 479 427 446 426 440 C433 425 435 371 435 353 C435 192 283 38 125 64 C128 77 125 109 125 124 C124 193 123 261 121 330 C254 330 168 328 203 328 C225 328 229 335 229 356 L229 395 C184 397 153 398 120 398 C119 459 118 520 118 582 C118 594 117 649 117 657 C117 667 135 661 160 661 L160 661 Z " />
<glyph glyph-name="Ntilde" unicode="&#xd1;" horiz-adv-x="642" d="M131 5 C131 211 122 415 116 620 L117 642 L120 641 C215 542 307 439 401 338 C442 294 480 248 522 206 C522 173 524 140 524 107 C524 84 519 62 519 39 C519 -5 538 -2 576 -2 C593 -2 588 66 588 89 C588 166 584 243 584 320 C584 450 594 580 594 710 C594 719 586 721 577 721 C570 721 563 720 559 720 C551 720 542 721 534 721 C525 713 523 693 523 671 C523 646 526 620 526 607 C526 552 518 495 518 440 C518 422 523 405 523 387 C523 379 520 370 520 362 C520 344 524 326 524 308 L523 305 C491 339 456 369 426 404 C374 464 163 711 103 737 C102 737 91 739 89 740 C74 737 58 729 54 713 L53 712 C50 705 50 697 50 689 C50 657 58 622 58 590 C58 581 55 571 55 562 C55 451 63 339 63 228 L63 65 C63 25 67 -1 120 -1 C124 -1 131 -1 131 5 L131 5 Z M407 867 C371 841 314 910 249 910 C215 910 155 885 155 844 C155 825 176 820 190 822 C217 826 232 853 263 853 C295 853 324 807 382 807 C418 807 487 835 487 878 C487 895 458 903 407 867 L407 867 Z " />
<glyph glyph-name="Ograve" unicode="&#xd2;" horiz-adv-x="750" d="M52 340 C52 153 184 -2 377 -2 C604 -2 700 173 700 376 C700 570 574 728 372 728 C166 728 52 543 52 340 L52 340 Z M388 664 C556 664 636 513 636 364 C636 270 594 127 496 93 C494 90 474 83 470 81 C470 81 406 66 387 66 C254 66 175 122 132 250 C113 305 111 380 119 436 C145 599 261 664 388 664 L388 664 Z M285 890 C285 840 386 788 428 788 C443 788 464 789 464 809 C464 825 424 839 393 872 C368 898 349 936 329 936 C301 936 285 917 285 890 L285 890 Z " />
<glyph glyph-name="Oacute" unicode="&#xd3;" horiz-adv-x="750" d="M52 340 C52 153 184 -2 377 -2 C604 -2 700 173 700 376 C700 570 574 728 372 728 C166 728 52 543 52 340 L52 340 Z M388 664 C556 664 636 513 636 364 C636 270 594 127 496 93 C494 90 474 83 470 81 C470 81 406 66 387 66 C254 66 175 122 132 250 C113 305 111 380 119 436 C145 599 261 664 388 664 L388 664 Z M464 886 C464 913 448 932 420 932 C400 932 381 894 356 868 C325 835 285 821 285 805 C285 785 306 784 321 784 C363 784 464 836 464 886 L464 886 Z " />
<glyph glyph-name="Ocircumflex" unicode="&#xd4;" horiz-adv-x="750" d="M52 340 C52 153 184 -2 377 -2 C604 -2 700 173 700 376 C700 570 574 728 372 728 C166 728 52 543 52 340 L52 340 Z M388 664 C556 664 636 513 636 364 C636 270 594 127 496 93 C494 90 474 83 470 81 C470 81 406 66 387 66 C254 66 175 122 132 250 C113 305 111 380 119 436 C145 599 261 664 388 664 L388 664 Z M304 868 C273 835 233 821 233 805 C233 785 254 784 269 784 C294 784 341 833 374 859 C407 833 454 784 480 784 C495 784 516 785 516 805 C516 821 476 835 445 868 C422 892 407 931 374 931 C341 931 324 889 304 868 L304 868 Z " />
<glyph glyph-name="Otilde" unicode="&#xd5;" horiz-adv-x="750" d="M52 340 C52 153 184 -2 377 -2 C604 -2 700 173 700 376 C700 570 574 728 372 728 C166 728 52 543 52 340 L52 340 Z M388 664 C556 664 636 513 636 364 C636 270 594 127 496 93 C494 90 474 83 470 81 C470 81 406 66 387 66 C254 66 175 122 132 250 C113 305 111 380 119 436 C145 599 261 664 388 664 L388 664 Z M461 871 C425 845 368 914 303 914 C269 914 209 889 209 848 C209 829 230 824 244 826 C271 830 286 857 317 857 C349 857 378 811 436 811 C472 811 541 839 541 882 C541 899 512 907 461 871 L461 871 Z " />
<glyph glyph-name="Odieresis" unicode="&#xd6;" horiz-adv-x="750" d="M52 340 C52 153 184 -2 377 -2 C604 -2 700 173 700 376 C700 570 574 728 372 728 C166 728 52 543 52 340 L52 340 Z M388 664 C556 664 636 513 636 364 C636 270 594 127 496 93 C494 90 474 83 470 81 C470 81 406 66 387 66 C254 66 175 122 132 250 C113 305 111 380 119 436 C145 599 261 664 388 664 L388 664 Z M285 826 C302 826 321 841 320 857 C320 865 321 869 321 875 C321 902 303 917 273 917 C271 917 270 916 267 916 C247 916 231 901 231 877 C231 866 233 854 239 846 C246 835 259 826 272 826 L285 826 Z M453 826 C457 826 469 828 473 828 C502 828 518 917 454 917 C452 917 451 916 448 916 C428 916 412 901 412 877 C412 866 414 854 420 846 C427 835 440 826 453 826 L453 826 Z " />
<glyph glyph-name="multiply" unicode="&#xd7;" horiz-adv-x="550" d="M441 108 C456 123 458 131 443 146 C402 186 404 182 363 223 C356 229 342 243 327 258 L363 294 C404 335 402 331 443 371 C458 386 456 394 441 409 L414 437 C386 412 332 359 279 307 C276 309 273 312 272 314 C246 340 214 363 188 389 C172 406 158 424 139 437 L134 435 L134 436 L100 403 L94 396 L95 387 C102 384 154 334 170 318 L230 258 L170 199 C154 183 102 133 95 130 L94 121 L100 114 L134 81 L134 82 L139 80 C158 93 172 111 188 128 C214 154 246 177 272 203 L279 210 C331 158 386 104 414 80 L441 108 Z " />
<glyph glyph-name="Oslash" unicode="&#xd8;" horiz-adv-x="750" d="M181 -46 C192 -51 226 -71 236 -71 L242 -67 C251 -54 265 -26 281 11 C311 2 343 -2 377 -2 C604 -2 700 173 700 376 C700 508 641 624 539 684 C551 714 560 741 568 760 L513 788 C511 786 498 757 479 711 C446 722 411 728 372 728 C166 728 52 543 52 340 C52 212 114 99 215 40 L181 -46 Z M388 664 C413 664 435 661 456 655 C396 504 301 260 239 101 C190 131 155 179 132 250 C113 305 111 380 119 436 C145 599 261 664 388 664 L388 664 Z M636 364 C636 270 594 127 496 93 C494 90 474 83 470 81 C470 81 406 66 387 66 C358 66 332 68 308 74 C371 227 458 465 518 626 C597 571 636 467 636 364 L636 364 Z " />
<glyph glyph-name="Ugrave" unicode="&#xd9;" horiz-adv-x="706" d="M592 714 C591 675 591 635 591 596 C591 517 592 439 592 360 C592 212 515 59 350 59 C264 59 251 101 212 112 C110 242 117 310 117 477 C117 550 121 623 121 696 C121 705 117 721 109 721 L61 720 C48 712 50 532 50 535 L50 345 C50 179 150 -5 358 -5 C401 -5 443 9 480 29 C659 127 656 303 656 485 C656 544 660 603 660 662 C660 697 655 720 604 721 L592 714 Z M263 886 C263 836 364 784 406 784 C421 784 442 785 442 805 C442 821 402 835 371 868 C346 894 327 932 307 932 C279 932 263 913 263 886 L263 886 Z " />
<glyph glyph-name="Uacute" unicode="&#xda;" horiz-adv-x="706" d="M592 714 C591 675 591 635 591 596 C591 517 592 439 592 360 C592 212 515 59 350 59 C264 59 251 101 212 112 C110 242 117 310 117 477 C117 550 121 623 121 696 C121 705 117 721 109 721 L61 720 C48 712 50 532 50 535 L50 345 C50 179 150 -5 358 -5 C401 -5 443 9 480 29 C659 127 656 303 656 485 C656 544 660 603 660 662 C660 697 655 720 604 721 L592 714 Z M442 890 C442 917 426 936 398 936 C378 936 359 898 334 872 C303 839 263 825 263 809 C263 789 284 788 299 788 C341 788 442 840 442 890 L442 890 Z " />
<glyph glyph-name="Ucircumflex" unicode="&#xdb;" horiz-adv-x="706" d="M592 714 C591 675 591 635 591 596 C591 517 592 439 592 360 C592 212 515 59 350 59 C264 59 251 101 212 112 C110 242 117 310 117 477 C117 550 121 623 121 696 C121 705 117 721 109 721 L61 720 C48 712 50 532 50 535 L50 345 C50 179 150 -5 358 -5 C401 -5 443 9 480 29 C659 127 656 303 656 485 C656 544 660 603 660 662 C660 697 655 720 604 721 L592 714 Z M282 872 C251 839 211 825 211 809 C211 789 232 788 247 788 C272 788 319 837 352 863 C385 837 432 788 458 788 C473 788 494 789 494 809 C494 825 454 839 423 872 C400 896 385 935 352 935 C319 935 302 893 282 872 L282 872 Z " />
<glyph glyph-name="Udieresis" unicode="&#xdc;" horiz-adv-x="706" d="M592 714 C591 675 591 635 591 596 C591 517 592 439 592 360 C592 212 515 59 350 59 C264 59 251 101 212 112 C110 242 117 310 117 477 C117 550 121 623 121 696 C121 705 117 721 109 721 L61 720 C48 712 50 532 50 535 L50 345 C50 179 150 -5 358 -5 C401 -5 443 9 480 29 C659 127 656 303 656 485 C656 544 660 603 660 662 C660 697 655 720 604 721 L592 714 Z M263 826 C280 826 299 841 298 857 C298 865 299 869 299 875 C299 902 281 917 251 917 C249 917 248 916 245 916 C225 916 209 901 209 877 C209 866 211 854 217 846 C224 835 237 826 250 826 L263 826 Z M431 826 C435 826 447 828 451 828 C480 828 496 917 432 917 C430 917 429 916 426 916 C406 916 390 901 390 877 C390 866 392 854 398 846 C405 835 418 826 431 826 L431 826 Z " />
<glyph glyph-name="Yacute" unicode="&#xdd;" horiz-adv-x="666" d="M565 727 C530 688 337 461 314 422 C298 422 98 729 76 729 C68 729 27 707 27 700 C27 699 262 374 281 359 L282 314 C283 284 273 252 274 222 C274 207 277 195 277 182 C277 174 279 168 278 153 C278 128 280 -6 304 -6 C316 -6 348 6 359 10 C349 62 340 111 340 164 C340 229 348 294 348 359 C379 402 617 680 617 691 C617 695 575 727 571 728 L565 727 Z M422 890 C422 917 406 936 378 936 C358 936 339 898 314 872 C283 839 243 825 243 809 C243 789 264 788 279 788 C321 788 422 840 422 890 L422 890 Z " />
<glyph glyph-name="germandbls" unicode="&#xdf;" horiz-adv-x="504" d="M454 149 C454 273 308 304 308 389 C308 465 414 430 414 557 C414 654 340 722 245 722 C68 722 50 544 50 407 L50 31 C50 22 53 10 61 7 C73 2 97 3 102 9 L104 11 C116 36 108 248 108 296 C108 433 73 665 269 665 C326 665 362 599 362 548 C362 544 351 515 347 511 C311 470 253 444 253 385 C253 274 399 248 399 137 C399 16 221 73 218 50 C218 47 217 10 219 8 C242 2 265 -2 289 -2 C380 -2 454 53 454 149 L454 149 Z " />
<glyph glyph-name="agrave" unicode="&#xe0;" horiz-adv-x="640" d="M545 122 C545 314 541 505 541 697 C527 723 512 726 490 726 C384 726 276 726 171 724 C166 724 158 725 151 725 C138 725 131 722 131 710 L133 665 L135 661 L141 658 C176 656 212 656 247 656 C269 656 291 661 314 661 C367 661 422 658 476 658 C476 657 475 656 474 613 C472 553 481 491 481 431 C481 416 479 396 478 380 C429 424 363 457 296 457 C187 457 88 390 62 284 C55 266 51 250 50 205 C50 82 177 -18 295 -18 C374 -18 445 18 497 77 C506 64 575 -13 593 -13 C602 -13 640 14 640 22 C640 26 554 114 545 122 L545 122 Z M284 45 C196 45 114 130 114 217 C114 327 207 389 308 389 C404 389 480 296 480 209 C482 106 374 45 284 45 L284 45 Z M255 886 C255 836 356 784 398 784 C413 784 434 785 434 805 C434 821 394 835 363 868 C338 894 319 932 299 932 C271 932 255 913 255 886 L255 886 Z " />
<glyph glyph-name="aacute" unicode="&#xe1;" horiz-adv-x="640" d="M545 122 C545 314 541 505 541 697 C527 723 512 726 490 726 C384 726 276 726 171 724 C166 724 158 725 151 725 C138 725 131 722 131 710 L133 665 L135 661 L141 658 C176 656 212 656 247 656 C269 656 291 661 314 661 C367 661 422 658 476 658 C476 657 475 656 474 613 C472 553 481 491 481 431 C481 416 479 396 478 380 C429 424 363 457 296 457 C187 457 88 390 62 284 C55 266 51 250 50 205 C50 82 177 -18 295 -18 C374 -18 445 18 497 77 C506 64 575 -13 593 -13 C602 -13 640 14 640 22 C640 26 554 114 545 122 L545 122 Z M284 45 C196 45 114 130 114 217 C114 327 207 389 308 389 C404 389 480 296 480 209 C482 106 374 45 284 45 L284 45 Z M434 886 C434 913 418 932 390 932 C370 932 351 894 326 868 C295 835 255 821 255 805 C255 785 276 784 291 784 C333 784 434 836 434 886 L434 886 Z " />
<glyph glyph-name="acircumflex" unicode="&#xe2;" horiz-adv-x="640" d="M545 122 C545 314 541 505 541 697 C527 723 512 726 490 726 C384 726 276 726 171 724 C166 724 158 725 151 725 C138 725 131 722 131 710 L133 665 L135 661 L141 658 C176 656 212 656 247 656 C269 656 291 661 314 661 C367 661 422 658 476 658 C476 657 475 656 474 613 C472 553 481 491 481 431 C481 416 479 396 478 380 C429 424 363 457 296 457 C187 457 88 390 62 284 C55 266 51 250 50 205 C50 82 177 -18 295 -18 C374 -18 445 18 497 77 C506 64 575 -13 593 -13 C602 -13 640 14 640 22 C640 26 554 114 545 122 L545 122 Z M284 45 C196 45 114 130 114 217 C114 327 207 389 308 389 C404 389 480 296 480 209 C482 106 374 45 284 45 L284 45 Z M274 868 C243 835 203 821 203 805 C203 785 224 784 239 784 C264 784 311 833 344 859 C377 833 424 784 450 784 C465 784 486 785 486 805 C486 821 446 835 415 868 C392 892 377 931 344 931 C311 931 294 889 274 868 L274 868 Z " />
<glyph glyph-name="atilde" unicode="&#xe3;" horiz-adv-x="640" d="M545 122 C545 314 541 505 541 697 C527 723 512 726 490 726 C384 726 276 726 171 724 C166 724 158 725 151 725 C138 725 131 722 131 710 L133 665 L135 661 L141 658 C176 656 212 656 247 656 C269 656 291 661 314 661 C367 661 422 658 476 658 C476 657 475 656 474 613 C472 553 481 491 481 431 C481 416 479 396 478 380 C429 424 363 457 296 457 C187 457 88 390 62 284 C55 266 51 250 50 205 C50 82 177 -18 295 -18 C374 -18 445 18 497 77 C506 64 575 -13 593 -13 C602 -13 640 14 640 22 C640 26 554 114 545 122 L545 122 Z M284 45 C196 45 114 130 114 217 C114 327 207 389 308 389 C404 389 480 296 480 209 C482 106 374 45 284 45 L284 45 Z M431 867 C395 841 338 910 273 910 C239 910 179 885 179 844 C179 825 200 820 214 822 C241 826 256 853 287 853 C319 853 348 807 406 807 C442 807 511 835 511 878 C511 895 482 903 431 867 L431 867 Z " />
<glyph glyph-name="adieresis" unicode="&#xe4;" horiz-adv-x="640" d="M545 122 C545 314 541 505 541 697 C527 723 512 726 490 726 C384 726 276 726 171 724 C166 724 158 725 151 725 C138 725 131 722 131 710 L133 665 L135 661 L141 658 C176 656 212 656 247 656 C269 656 291 661 314 661 C367 661 422 658 476 658 C476 657 475 656 474 613 C472 553 481 491 481 431 C481 416 479 396 478 380 C429 424 363 457 296 457 C187 457 88 390 62 284 C55 266 51 250 50 205 C50 82 177 -18 295 -18 C374 -18 445 18 497 77 C506 64 575 -13 593 -13 C602 -13 640 14 640 22 C640 26 554 114 545 122 L545 122 Z M284 45 C196 45 114 130 114 217 C114 327 207 389 308 389 C404 389 480 296 480 209 C482 106 374 45 284 45 L284 45 Z M255 822 C272 822 291 837 290 853 C290 861 291 865 291 871 C291 898 273 913 243 913 C241 913 240 912 237 912 C217 912 201 897 201 873 C201 862 203 850 209 842 C216 831 229 822 242 822 L255 822 Z M423 822 C427 822 439 824 443 824 C472 824 488 913 424 913 C422 913 421 912 418 912 C398 912 382 897 382 873 C382 862 384 850 390 842 C397 831 410 822 423 822 L423 822 Z " />
<glyph glyph-name="aring" unicode="&#xe5;" horiz-adv-x="640" d="M545 122 C545 314 541 505 541 697 C527 723 512 726 490 726 C384 726 276 726 171 724 C166 724 158 725 151 725 C138 725 131 722 131 710 L133 665 L135 661 L141 658 C176 656 212 656 247 656 C269 656 291 661 314 661 C367 661 422 658 476 658 C476 657 475 656 474 613 C472 553 481 491 481 431 C481 416 479 396 478 380 C429 424 363 457 296 457 C187 457 88 390 62 284 C55 266 51 250 50 205 C50 82 177 -18 295 -18 C374 -18 445 18 497 77 C506 64 575 -13 593 -13 C602 -13 640 14 640 22 C640 26 554 114 545 122 L545 122 Z M284 45 C196 45 114 130 114 217 C114 327 207 389 308 389 C404 389 480 296 480 209 C482 106 374 45 284 45 L284 45 Z M345 797 C398 797 447 840 447 896 C447 951 403 998 347 998 C292 998 242 948 248 895 C248 837 285 797 345 797 L345 797 Z M297 898 C297 932 322 942 343 941 C375 940 386 916 388 901 C393 883 379 852 348 852 C311 852 297 869 297 898 L297 898 Z " />
<glyph glyph-name="ae" unicode="&#xe6;" horiz-adv-x="593" d="M526 72 C472 70 418 65 364 65 L362 67 C368 145 356 224 356 302 C383 299 432 286 459 298 C467 301 467 326 467 333 L466 363 C390 361 373 366 356 367 C356 465 361 563 361 661 C415 661 470 658 524 658 L543 672 L541 718 L534 725 C476 728 419 730 361 730 C319 730 222 740 204 733 C191 728 172 702 172 687 C172 517 50 200 50 18 C50 2 95 -2 106 -2 L110 -1 L109 -1 C126 14 146 187 151 220 C155 221 236 216 295 217 C296 160 298 104 298 47 C298 1 333 -2 370 -2 L452 -2 C488 -2 531 4 531 49 C531 56 528 65 526 72 L526 72 Z M165 283 C194 412 224 534 238 661 L294 661 C290 608 290 515 290 472 C290 408 291 344 293 281 C255 280 185 281 165 283 L165 283 Z " />
<glyph glyph-name="ccedilla" unicode="&#xe7;" horiz-adv-x="381" d="M329 73 C207 45 114 201 114 344 C114 453 145 601 263 640 C283 647 309 644 327 650 L332 655 C332 665 331 674 331 684 L331 711 L325 716 C322 717 319 717 316 717 C266 717 221 700 182 669 C73 584 50 486 50 354 C50 327 57 302 57 275 C57 204 104 114 170 57 C169 27 170 -10 170 -23 C170 -131 259 -68 259 -138 C259 -175 241 -189 205 -189 C197 -189 190 -182 182 -177 C175 -173 137 -213 134 -222 C146 -238 169 -254 190 -254 C250 -254 323 -233 323 -160 C323 -31 242 -45 236 -27 C234 -22 234 -6 234 15 C256 5 278 9 301 9 C332 9 333 32 333 59 C333 64 331 69 329 73 L329 73 Z " />
<glyph glyph-name="egrave" unicode="&#xe8;" horiz-adv-x="351" d="M286 72 C232 70 178 65 124 65 L122 67 C128 145 116 224 116 302 C127 296 140 296 152 296 C169 296 205 292 219 298 C227 301 227 326 227 333 L226 363 L167 361 C150 361 133 366 116 367 C116 465 121 563 121 661 C175 661 230 658 284 658 L303 672 L301 718 L294 725 C236 728 179 730 121 730 C23 730 50 543 50 472 C50 330 58 189 58 47 C58 1 93 -2 130 -2 L212 -2 C248 -2 291 4 291 49 C291 56 288 65 286 72 L286 72 Z M86 886 C86 836 187 784 229 784 C244 784 265 785 265 805 C265 821 225 835 194 868 C169 894 150 932 130 932 C102 932 86 913 86 886 L86 886 Z " />
<glyph glyph-name="eacute" unicode="&#xe9;" horiz-adv-x="351" d="M286 72 C232 70 178 65 124 65 L122 67 C128 145 116 224 116 302 C127 296 140 296 152 296 C169 296 205 292 219 298 C227 301 227 326 227 333 L226 363 L167 361 C150 361 133 366 116 367 C116 465 121 563 121 661 C175 661 230 658 284 658 L303 672 L301 718 L294 725 C236 728 179 730 121 730 C23 730 50 543 50 472 C50 330 58 189 58 47 C58 1 93 -2 130 -2 L212 -2 C248 -2 291 4 291 49 C291 56 288 65 286 72 L286 72 Z M265 886 C265 913 249 932 221 932 C201 932 182 894 157 868 C126 835 86 821 86 805 C86 785 107 784 122 784 C164 784 265 836 265 886 L265 886 Z " />
<glyph glyph-name="ecircumflex" unicode="&#xea;" horiz-adv-x="351" d="M286 72 C232 70 178 65 124 65 L122 67 C128 145 116 224 116 302 C127 296 140 296 152 296 C169 296 205 292 219 298 C227 301 227 326 227 333 L226 363 L167 361 C150 361 133 366 116 367 C116 465 121 563 121 661 C175 661 230 658 284 658 L303 672 L301 718 L294 725 C236 728 179 730 121 730 C23 730 50 543 50 472 C50 330 58 189 58 47 C58 1 93 -2 130 -2 L212 -2 C248 -2 291 4 291 49 C291 56 288 65 286 72 L286 72 Z M105 868 C74 835 34 821 34 805 C34 785 55 784 70 784 C95 784 142 833 175 859 C208 833 255 784 281 784 C296 784 317 785 317 805 C317 821 277 835 246 868 C223 892 208 931 175 931 C142 931 125 889 105 868 L105 868 Z " />
<glyph glyph-name="edieresis" unicode="&#xeb;" horiz-adv-x="351" d="M286 72 C232 70 178 65 124 65 L122 67 C128 145 116 224 116 302 C127 296 140 296 152 296 C169 296 205 292 219 298 C227 301 227 326 227 333 L226 363 L167 361 C150 361 133 366 116 367 C116 465 121 563 121 661 C175 661 230 658 284 658 L303 672 L301 718 L294 725 C236 728 179 730 121 730 C23 730 50 543 50 472 C50 330 58 189 58 47 C58 1 93 -2 130 -2 L212 -2 C248 -2 291 4 291 49 C291 56 288 65 286 72 L286 72 Z M86 822 C103 822 122 837 121 853 C121 861 122 865 122 871 C122 898 104 913 74 913 C72 913 71 912 68 912 C48 912 32 897 32 873 C32 862 34 850 40 842 C47 831 60 822 73 822 L86 822 Z M254 822 C258 822 270 824 274 824 C303 824 319 913 255 913 C253 913 252 912 249 912 C229 912 213 897 213 873 C213 862 215 850 221 842 C228 831 241 822 254 822 L254 822 Z " />
<glyph glyph-name="igrave" unicode="&#xec;" horiz-adv-x="477" d="M427 66 C377 70 327 65 277 65 C272 106 276 147 276 188 C276 259 260 328 260 399 L261 421 L266 422 C306 422 344 413 384 413 C411 413 428 422 428 451 L427 482 C371 486 316 481 260 481 C192 481 126 494 58 494 C48 484 49 466 49 453 C49 406 79 426 110 426 C138 426 166 419 194 416 C198 299 210 183 210 66 C159 69 109 77 58 77 C48 67 49 49 49 36 C49 -9 80 9 110 9 C165 9 209 0 266 5 C277 -2 375 -2 394 -2 C419 -2 428 9 428 34 L427 66 Z M149 686 C149 636 250 584 292 584 C307 584 328 585 328 605 C328 621 288 635 257 668 C232 694 213 732 193 732 C165 732 149 713 149 686 L149 686 Z " />
<glyph glyph-name="iacute" unicode="&#xed;" horiz-adv-x="477" d="M427 66 C377 70 327 65 277 65 C272 106 276 147 276 188 C276 259 260 328 260 399 L261 421 L266 422 C306 422 344 413 384 413 C411 413 428 422 428 451 L427 482 C371 486 316 481 260 481 C192 481 126 494 58 494 C48 484 49 466 49 453 C49 406 79 426 110 426 C138 426 166 419 194 416 C198 299 210 183 210 66 C159 69 109 77 58 77 C48 67 49 49 49 36 C49 -9 80 9 110 9 C165 9 209 0 266 5 C277 -2 375 -2 394 -2 C419 -2 428 9 428 34 L427 66 Z M328 686 C328 713 312 732 284 732 C264 732 245 694 220 668 C189 635 149 621 149 605 C149 585 170 584 185 584 C227 584 328 636 328 686 L328 686 Z " />
<glyph glyph-name="icircumflex" unicode="&#xee;" horiz-adv-x="477" d="M427 66 C377 70 327 65 277 65 C272 106 276 147 276 188 C276 259 260 328 260 399 L261 421 L266 422 C306 422 344 413 384 413 C411 413 428 422 428 451 L427 482 C371 486 316 481 260 481 C192 481 126 494 58 494 C48 484 49 466 49 453 C49 406 79 426 110 426 C138 426 166 419 194 416 C198 299 210 183 210 66 C159 69 109 77 58 77 C48 67 49 49 49 36 C49 -9 80 9 110 9 C165 9 209 0 266 5 C277 -2 375 -2 394 -2 C419 -2 428 9 428 34 L427 66 Z M168 668 C137 635 97 621 97 605 C97 585 118 584 133 584 C158 584 205 633 238 659 C271 633 318 584 344 584 C359 584 380 585 380 605 C380 621 340 635 309 668 C286 692 271 731 238 731 C205 731 188 689 168 668 L168 668 Z " />
<glyph glyph-name="idieresis" unicode="&#xef;" horiz-adv-x="477" d="M427 66 C377 70 327 65 277 65 C272 106 276 147 276 188 C276 259 260 328 260 399 L261 421 L266 422 C306 422 344 413 384 413 C411 413 428 422 428 451 L427 482 C371 486 316 481 260 481 C192 481 126 494 58 494 C48 484 49 466 49 453 C49 406 79 426 110 426 C138 426 166 419 194 416 C198 299 210 183 210 66 C159 69 109 77 58 77 C48 67 49 49 49 36 C49 -9 80 9 110 9 C165 9 209 0 266 5 C277 -2 375 -2 394 -2 C419 -2 428 9 428 34 L427 66 Z M149 622 C166 622 185 637 184 653 C184 661 185 665 185 671 C185 698 167 713 137 713 C135 713 134 712 131 712 C111 712 95 697 95 673 C95 662 97 650 103 642 C110 631 123 622 136 622 L149 622 Z M317 622 C321 622 333 624 337 624 C366 624 382 713 318 713 C316 713 315 712 312 712 C292 712 276 697 276 673 C276 662 278 650 284 642 C291 631 304 622 317 622 L317 622 Z " />
<glyph glyph-name="eth" unicode="&#xf0;" horiz-adv-x="532" d="M389 712 L307 647 C247 696 175 727 95 727 L75 727 C72 723 69 723 68 720 L69 666 L74 661 C115 654 157 654 196 637 C217 628 237 616 255 603 L227 579 C209 564 192 550 183 538 L220 495 C241 504 279 533 307 556 C369 489 409 398 418 312 C374 363 321 399 252 399 C150 399 50 313 50 208 C50 94 130 0 247 0 C396 0 482 152 482 286 C482 395 435 513 358 599 C444 670 386 622 413 643 C430 658 428 667 414 682 L389 712 Z M386 204 C384 156 365 115 331 95 C307 81 275 68 247 68 C185 68 114 124 114 204 C114 267 171 335 236 335 C320 335 390 289 386 204 L386 204 Z " />
<glyph glyph-name="ntilde" unicode="&#xf1;" horiz-adv-x="555" d="M508 266 C508 419 520 728 304 728 C217 728 144 658 117 580 L118 674 C118 707 119 720 81 720 L50 718 L50 696 C50 467 61 240 53 10 L59 0 L68 -1 L116 1 L120 5 C123 42 120 78 120 115 C120 309 103 660 317 660 C488 660 438 182 438 66 C438 19 440 -1 493 -1 C497 -1 503 3 506 4 L508 266 Z M363 867 C327 841 270 910 205 910 C171 910 111 885 111 844 C111 825 132 820 146 822 C173 826 188 853 219 853 C251 853 280 807 338 807 C374 807 443 835 443 878 C443 895 414 903 363 867 L363 867 Z " />
<glyph glyph-name="ograve" unicode="&#xf2;" horiz-adv-x="507" d="M256 -1 C429 -1 458 239 458 369 C458 495 416 718 252 718 C111 718 50 527 50 412 C50 276 68 -1 256 -1 L256 -1 Z M247 654 C371 654 394 458 394 366 C394 284 371 67 258 67 C119 67 118 318 118 413 C118 484 156 654 247 654 L247 654 Z M164 886 C164 836 265 784 307 784 C322 784 343 785 343 805 C343 821 303 835 272 868 C247 894 228 932 208 932 C180 932 164 913 164 886 L164 886 Z " />
<glyph glyph-name="oacute" unicode="&#xf3;" horiz-adv-x="507" d="M256 -1 C429 -1 458 239 458 369 C458 495 416 718 252 718 C111 718 50 527 50 412 C50 276 68 -1 256 -1 L256 -1 Z M247 654 C371 654 394 458 394 366 C394 284 371 67 258 67 C119 67 118 318 118 413 C118 484 156 654 247 654 L247 654 Z M343 886 C343 913 327 932 299 932 C279 932 260 894 235 868 C204 835 164 821 164 805 C164 785 185 784 200 784 C242 784 343 836 343 886 L343 886 Z " />
<glyph glyph-name="ocircumflex" unicode="&#xf4;" horiz-adv-x="507" d="M256 -1 C429 -1 458 239 458 369 C458 495 416 718 252 718 C111 718 50 527 50 412 C50 276 68 -1 256 -1 L256 -1 Z M247 654 C371 654 394 458 394 366 C394 284 371 67 258 67 C119 67 118 318 118 413 C118 484 156 654 247 654 L247 654 Z M183 868 C152 835 112 821 112 805 C112 785 133 784 148 784 C173 784 220 833 253 859 C286 833 333 784 359 784 C374 784 395 785 395 805 C395 821 355 835 324 868 C301 892 286 931 253 931 C220 931 203 889 183 868 L183 868 Z " />
<glyph glyph-name="otilde" unicode="&#xf5;" horiz-adv-x="507" d="M256 -1 C429 -1 458 239 458 369 C458 495 416 718 252 718 C111 718 50 527 50 412 C50 276 68 -1 256 -1 L256 -1 Z M247 654 C371 654 394 458 394 366 C394 284 371 67 258 67 C119 67 118 318 118 413 C118 484 156 654 247 654 L247 654 Z M339 867 C303 841 246 910 181 910 C147 910 87 885 87 844 C87 825 108 820 122 822 C149 826 164 853 195 853 C227 853 256 807 314 807 C350 807 419 835 419 878 C419 895 390 903 339 867 L339 867 Z " />
<glyph glyph-name="odieresis" unicode="&#xf6;" horiz-adv-x="507" d="M256 -1 C429 -1 458 239 458 369 C458 495 416 718 252 718 C111 718 50 527 50 412 C50 276 68 -1 256 -1 L256 -1 Z M247 654 C371 654 394 458 394 366 C394 284 371 67 258 67 C119 67 118 318 118 413 C118 484 156 654 247 654 L247 654 Z M164 822 C181 822 200 837 199 853 C199 861 200 865 200 871 C200 898 182 913 152 913 C150 913 149 912 146 912 C126 912 110 897 110 873 C110 862 112 850 118 842 C125 831 138 822 151 822 L164 822 Z M332 822 C336 822 348 824 352 824 C381 824 397 913 333 913 C331 913 330 912 327 912 C307 912 291 897 291 873 C291 862 293 850 299 842 C306 831 319 822 332 822 L332 822 Z " />
<glyph glyph-name="divide" unicode="&#xf7;" horiz-adv-x="190" d="M320 286 C253 290 47 290 -20 290 C-43 290 -115 292 -122 295 L-129 289 L-130 280 L-129 232 L-129 233 L-127 228 C-104 224 -81 227 -58 227 C-21 227 18 221 55 221 L184 221 C241 221 237 219 294 219 C316 219 320 226 320 247 L320 286 Z M104 1 C121 1 134 17 139 32 L137 38 C138 42 140 46 140 50 C139 77 122 92 92 92 C90 92 89 91 86 91 C66 91 50 76 50 52 C50 41 52 29 58 21 C65 10 78 1 91 1 L104 1 Z M104 430 C121 430 134 446 139 461 L137 467 C138 471 140 475 140 479 C139 506 122 521 92 521 C90 521 89 520 86 520 C66 520 50 505 50 481 C50 470 52 458 58 450 C65 439 78 430 91 430 L104 430 Z " />
<glyph glyph-name="oslash" unicode="&#xf8;" horiz-adv-x="507" d="M57 -21 C68 -26 102 -46 112 -46 L118 -42 C127 -29 140 -2 157 33 C183 12 216 -1 256 -1 C429 -1 458 239 458 369 C458 440 444 542 403 618 L454 749 L405 786 C402 784 383 742 355 679 C328 703 294 718 252 718 C111 718 50 527 50 412 C50 328 57 190 106 97 C82 39 63 -4 57 -21 L57 -21 Z M247 654 C281 654 307 639 327 616 C272 490 199 317 142 181 C118 260 118 360 118 413 C118 484 156 654 247 654 L247 654 Z M258 67 C228 67 205 78 187 97 C241 218 312 392 370 535 C388 477 394 409 394 366 C394 284 371 67 258 67 L258 67 Z " />
<glyph glyph-name="ugrave" unicode="&#xf9;" horiz-adv-x="555" d="M51 411 C51 268 54 -1 255 -1 C342 -1 415 68 442 147 L441 53 C441 22 441 7 478 7 L509 9 L509 31 C509 260 499 488 506 717 L500 727 L443 727 L439 722 C436 673 439 623 439 574 C439 439 439 67 242 67 C70 67 121 551 121 661 C121 706 117 728 66 728 C62 728 56 724 53 723 L51 411 Z M188 886 C188 836 289 784 331 784 C346 784 367 785 367 805 C367 821 327 835 296 868 C271 894 252 932 232 932 C204 932 188 913 188 886 L188 886 Z " />
<glyph glyph-name="uacute" unicode="&#xfa;" horiz-adv-x="555" d="M51 411 C51 268 54 -1 255 -1 C342 -1 415 68 442 147 L441 53 C441 22 441 7 478 7 L509 9 L509 31 C509 260 499 488 506 717 L500 727 L443 727 L439 722 C436 673 439 623 439 574 C439 439 439 67 242 67 C70 67 121 551 121 661 C121 706 117 728 66 728 C62 728 56 724 53 723 L51 411 Z M367 886 C367 913 351 932 323 932 C303 932 284 894 259 868 C228 835 188 821 188 805 C188 785 209 784 224 784 C266 784 367 836 367 886 L367 886 Z " />
<glyph glyph-name="ucircumflex" unicode="&#xfb;" horiz-adv-x="555" d="M51 411 C51 268 54 -1 255 -1 C342 -1 415 68 442 147 L441 53 C441 22 441 7 478 7 L509 9 L509 31 C509 260 499 488 506 717 L500 727 L443 727 L439 722 C436 673 439 623 439 574 C439 439 439 67 242 67 C70 67 121 551 121 661 C121 706 117 728 66 728 C62 728 56 724 53 723 L51 411 Z M207 868 C176 835 136 821 136 805 C136 785 157 784 172 784 C197 784 244 833 277 859 C310 833 357 784 383 784 C398 784 419 785 419 805 C419 821 379 835 348 868 C325 892 310 931 277 931 C244 931 227 889 207 868 L207 868 Z " />
<glyph glyph-name="udieresis" unicode="&#xfc;" horiz-adv-x="555" d="M51 411 C51 268 54 -1 255 -1 C342 -1 415 68 442 147 L441 53 C441 22 441 7 478 7 L509 9 L509 31 C509 260 499 488 506 717 L500 727 L443 727 L439 722 C436 673 439 623 439 574 C439 439 439 67 242 67 C70 67 121 551 121 661 C121 706 117 728 66 728 C62 728 56 724 53 723 L51 411 Z M188 822 C205 822 224 837 223 853 C223 861 224 865 224 871 C224 898 206 913 176 913 C174 913 173 912 170 912 C150 912 134 897 134 873 C134 862 136 850 142 842 C149 831 162 822 175 822 L188 822 Z M356 822 C360 822 372 824 376 824 C405 824 421 913 357 913 C355 913 354 912 351 912 C331 912 315 897 315 873 C315 862 317 850 323 842 C330 831 343 822 356 822 L356 822 Z " />
<glyph glyph-name="yacute" unicode="&#xfd;" horiz-adv-x="503" d="M50 602 C50 451 70 301 258 301 C307 301 356 320 390 355 C386 232 387 64 221 64 C167 64 125 98 120 154 L121 169 C121 174 120 180 115 182 C103 185 91 185 79 185 L61 185 C56 185 53 167 53 163 C53 69 132 -4 227 -4 C485 -4 456 325 456 506 L455 661 C455 711 451 721 399 721 C396 721 391 718 388 717 C386 648 385 578 387 509 C372 440 350 368 265 368 C237 368 209 368 183 379 C165 387 148 402 138 419 C91 503 118 581 118 677 C118 707 116 720 82 720 L51 718 L50 602 Z M341 886 C341 913 325 932 297 932 C277 932 258 894 233 868 C202 835 162 821 162 805 C162 785 183 784 198 784 C240 784 341 836 341 886 L341 886 Z " />
<glyph glyph-name="ydieresis" unicode="&#xff;" horiz-adv-x="503" d="M50 602 C50 451 70 301 258 301 C307 301 356 320 390 355 C386 232 387 64 221 64 C167 64 125 98 120 154 L121 169 C121 174 120 180 115 182 C103 185 91 185 79 185 L61 185 C56 185 53 167 53 163 C53 69 132 -4 227 -4 C485 -4 456 325 456 506 L455 661 C455 711 451 721 399 721 C396 721 391 718 388 717 C386 648 385 578 387 509 C372 440 350 368 265 368 C237 368 209 368 183 379 C165 387 148 402 138 419 C91 503 118 581 118 677 C118 707 116 720 82 720 L51 718 L50 602 Z M162 822 C179 822 198 837 197 853 C197 861 198 865 198 871 C198 898 180 913 150 913 C148 913 147 912 144 912 C124 912 108 897 108 873 C108 862 110 850 116 842 C123 831 136 822 149 822 L162 822 Z M330 822 C334 822 346 824 350 824 C379 824 395 913 331 913 C329 913 328 912 325 912 C305 912 289 897 289 873 C289 862 291 850 297 842 C304 831 317 822 330 822 L330 822 Z " />
<glyph glyph-name="Amacron" unicode="&#x100;" horiz-adv-x="684" d="M614 14 C614 30 403 621 378 692 C375 702 364 710 364 713 C354 720 353 722 338 722 C328 722 310 719 310 716 L288 694 L288 692 C272 667 231 545 216 508 C158 363 106 215 46 71 C41 58 30 42 30 28 C30 17 70 6 82 2 C106 2 153 166 170 216 C175 216 181 215 186 215 C193 215 199 218 205 218 C233 218 263 211 291 211 C303 211 309 214 330 214 C337 214 342 218 349 218 C353 215 357 215 362 215 C391 215 420 219 449 219 C459 219 468 215 477 215 C492 180 536 -1 568 -1 C578 -1 614 2 614 14 L614 14 Z M329 278 C286 278 242 282 199 282 C203 290 207 299 210 308 C213 313 329 605 329 626 L333 626 C341 618 442 318 454 283 C412 282 371 278 329 278 L329 278 Z M527 881 C460 885 334 885 267 885 C244 885 172 887 165 890 L158 884 L157 875 L158 827 L158 828 L160 823 C183 819 206 822 229 822 C266 822 305 816 342 816 C508 816 464 814 501 814 C523 814 527 821 527 842 L527 881 Z " />
<glyph glyph-name="amacron" unicode="&#x101;" horiz-adv-x="640" d="M545 122 C545 314 541 505 541 697 C527 723 512 726 490 726 C384 726 276 726 171 724 C166 724 158 725 151 725 C138 725 131 722 131 710 L133 665 L135 661 L141 658 C176 656 212 656 247 656 C269 656 291 661 314 661 C367 661 422 658 476 658 C476 657 475 656 474 613 C472 553 481 491 481 431 C481 416 479 396 478 380 C429 424 363 457 296 457 C187 457 88 390 62 284 C55 266 51 250 50 205 C50 82 177 -18 295 -18 C374 -18 445 18 497 77 C506 64 575 -13 593 -13 C602 -13 640 14 640 22 C640 26 554 114 545 122 L545 122 Z M284 45 C196 45 114 130 114 217 C114 327 207 389 308 389 C404 389 480 296 480 209 C482 106 374 45 284 45 L284 45 Z M530 881 C463 885 337 885 270 885 C247 885 175 887 168 890 L161 884 L160 875 L161 827 L161 828 L163 823 C186 819 209 822 232 822 C269 822 308 816 345 816 C511 816 467 814 504 814 C526 814 530 821 530 842 L530 881 Z " />
<glyph glyph-name="Abreve" unicode="&#x102;" horiz-adv-x="684" d="M614 14 C614 30 403 621 378 692 C375 702 364 710 364 713 C354 720 353 722 338 722 C328 722 310 719 310 716 L288 694 L288 692 C272 667 231 545 216 508 C158 363 106 215 46 71 C41 58 30 42 30 28 C30 17 70 6 82 2 C106 2 153 166 170 216 C175 216 181 215 186 215 C193 215 199 218 205 218 C233 218 263 211 291 211 C303 211 309 214 330 214 C337 214 342 218 349 218 C353 215 357 215 362 215 C391 215 420 219 449 219 C459 219 468 215 477 215 C492 180 536 -1 568 -1 C578 -1 614 2 614 14 L614 14 Z M329 278 C286 278 242 282 199 282 C203 290 207 299 210 308 C213 313 329 605 329 626 L333 626 C341 618 442 318 454 283 C412 282 371 278 329 278 L329 278 Z M387 901 C392 883 373 852 342 852 C305 852 288 869 291 898 C295 936 242 962 242 895 C242 837 279 797 339 797 C392 797 441 840 441 896 C441 958 375 949 387 901 L387 901 Z " />
<glyph glyph-name="abreve" unicode="&#x103;" horiz-adv-x="640" d="M545 122 C545 314 541 505 541 697 C527 723 512 726 490 726 C384 726 276 726 171 724 C166 724 158 725 151 725 C138 725 131 722 131 710 L133 665 L135 661 L141 658 C176 656 212 656 247 656 C269 656 291 661 314 661 C367 661 422 658 476 658 C476 657 475 656 474 613 C472 553 481 491 481 431 C481 416 479 396 478 380 C429 424 363 457 296 457 C187 457 88 390 62 284 C55 266 51 250 50 205 C50 82 177 -18 295 -18 C374 -18 445 18 497 77 C506 64 575 -13 593 -13 C602 -13 640 14 640 22 C640 26 554 114 545 122 L545 122 Z M284 45 C196 45 114 130 114 217 C114 327 207 389 308 389 C404 389 480 296 480 209 C482 106 374 45 284 45 L284 45 Z M390 901 C395 883 376 852 345 852 C308 852 291 869 294 898 C298 936 245 962 245 895 C245 837 282 797 342 797 C395 797 444 840 444 896 C444 958 378 949 390 901 L390 901 Z " />
<glyph glyph-name="Aogonek" unicode="&#x104;" horiz-adv-x="684" d="M614 14 C614 30 403 621 378 692 C375 702 364 710 364 713 C354 720 353 722 338 722 C328 722 310 719 310 716 L288 694 L288 692 C272 667 231 545 216 508 C158 363 106 215 46 71 C41 58 30 42 30 28 C30 17 70 6 82 2 C106 2 153 166 170 216 C175 216 181 215 186 215 C193 215 199 218 205 218 C233 218 263 211 291 211 C303 211 309 214 330 214 C337 214 342 218 349 218 C353 215 357 215 362 215 C391 215 420 219 449 219 C459 219 468 215 477 215 C487 190 512 95 537 39 C504 33 455 18 455 -70 C455 -143 528 -164 588 -164 C609 -164 632 -148 644 -132 C641 -123 603 -83 596 -87 C588 -92 581 -99 573 -99 C537 -99 519 -85 519 -48 C519 -7 549 -11 574 -1 C588 0 614 4 614 14 L614 14 Z M329 278 C286 278 242 282 199 282 C203 290 207 299 210 308 C213 313 329 605 329 626 L333 626 C341 618 442 318 454 283 C412 282 371 278 329 278 L329 278 Z " />
<glyph glyph-name="aogonek" unicode="&#x105;" horiz-adv-x="640" d="M545 122 C545 314 541 505 541 697 C527 723 512 726 490 726 C384 726 276 726 171 724 C166 724 158 725 151 725 C138 725 131 722 131 710 L133 665 L135 661 L141 658 C176 656 212 656 247 656 C269 656 291 661 314 661 C367 661 422 658 476 658 C476 657 475 656 474 613 C472 553 481 491 481 431 C481 416 479 396 478 380 C429 424 363 457 296 457 C187 457 88 390 62 284 C55 266 51 250 50 205 C50 82 177 -18 295 -18 C374 -18 445 18 497 77 C501 70 530 59 551 38 C505 29 485 -8 485 -75 C485 -148 558 -169 618 -169 C639 -169 662 -153 674 -137 C671 -128 633 -88 626 -92 C618 -97 611 -104 603 -104 C567 -104 549 -90 549 -53 C549 2 640 -24 640 22 C640 26 554 114 545 122 L545 122 Z M284 45 C196 45 114 130 114 217 C114 327 207 389 308 389 C404 389 480 296 480 209 C482 106 374 45 284 45 L284 45 Z " />
<glyph glyph-name="Cacute" unicode="&#x106;" horiz-adv-x="588" d="M414 78 C412 78 408 76 406 76 C380 68 355 63 328 63 C170 63 104 207 104 348 C104 490 155 659 324 659 C358 659 385 653 416 640 C417 641 418 639 419 638 C432 637 444 619 456 615 C461 608 479 589 488 589 C490 589 524 620 529 625 L530 628 L528 637 C524 641 520 645 517 650 C514 651 511 654 509 656 C497 667 480 677 469 688 C410 706 430 723 342 723 C261 723 195 712 137 650 L117 628 C117 628 116 627 116 626 C48 545 40 443 40 342 C40 310 48 278 55 247 C58 231 60 215 64 199 C94 78 209 -1 329 -1 C332 -1 342 -2 344 0 C409 -1 484 25 528 74 C533 80 541 89 541 97 C541 107 515 142 506 142 C505 142 504 142 503 141 C474 117 450 93 414 78 L414 78 Z M383 886 C383 913 367 932 339 932 C319 932 300 894 275 868 C244 835 204 821 204 805 C204 785 225 784 240 784 C282 784 383 836 383 886 L383 886 Z " />
<glyph glyph-name="cacute" unicode="&#x107;" horiz-adv-x="381" d="M329 63 C181 68 114 213 114 344 C114 453 145 601 263 640 C283 647 309 644 327 650 L332 655 C332 665 331 674 331 684 L331 711 L325 716 C322 717 319 717 316 717 C266 717 221 700 182 669 C73 584 50 486 50 354 C50 327 57 302 57 275 C57 162 180 -1 301 -1 C332 -1 333 22 333 49 C333 54 331 59 329 63 L329 63 Z M280 886 C280 913 264 932 236 932 C216 932 197 894 172 868 C141 835 101 821 101 805 C101 785 122 784 137 784 C179 784 280 836 280 886 L280 886 Z " />
<glyph glyph-name="Ccircumflex" unicode="&#x108;" horiz-adv-x="588" d="M414 78 C412 78 408 76 406 76 C380 68 355 63 328 63 C170 63 104 207 104 348 C104 490 155 659 324 659 C358 659 385 653 416 640 C417 641 418 639 419 638 C432 637 444 619 456 615 C461 608 479 589 488 589 C490 589 524 620 529 625 L530 628 L528 637 C524 641 520 645 517 650 C514 651 511 654 509 656 C497 667 480 677 469 688 C410 706 430 723 342 723 C261 723 195 712 137 650 L117 628 C117 628 116 627 116 626 C48 545 40 443 40 342 C40 310 48 278 55 247 C58 231 60 215 64 199 C94 78 209 -1 329 -1 C332 -1 342 -2 344 0 C409 -1 484 25 528 74 C533 80 541 89 541 97 C541 107 515 142 506 142 C505 142 504 142 503 141 C474 117 450 93 414 78 L414 78 Z M223 868 C192 835 152 821 152 805 C152 785 173 784 188 784 C213 784 260 833 293 859 C326 833 373 784 399 784 C414 784 435 785 435 805 C435 821 395 835 364 868 C341 892 326 931 293 931 C260 931 243 889 223 868 L223 868 Z " />
<glyph glyph-name="ccircumflex" unicode="&#x109;" horiz-adv-x="381" d="M329 63 C181 68 114 213 114 344 C114 453 145 601 263 640 C283 647 309 644 327 650 L332 655 C332 665 331 674 331 684 L331 711 L325 716 C322 717 319 717 316 717 C266 717 221 700 182 669 C73 584 50 486 50 354 C50 327 57 302 57 275 C57 162 180 -1 301 -1 C332 -1 333 22 333 49 C333 54 331 59 329 63 L329 63 Z M120 868 C89 835 49 821 49 805 C49 785 70 784 85 784 C110 784 157 833 190 859 C223 833 270 784 296 784 C311 784 332 785 332 805 C332 821 292 835 261 868 C238 892 223 931 190 931 C157 931 140 889 120 868 L120 868 Z " />
<glyph glyph-name="Cdotaccent" unicode="&#x10a;" horiz-adv-x="588" d="M414 78 C412 78 408 76 406 76 C380 68 355 63 328 63 C170 63 104 207 104 348 C104 490 155 659 324 659 C358 659 385 653 416 640 C417 641 418 639 419 638 C432 637 444 619 456 615 C461 608 479 589 488 589 C490 589 524 620 529 625 L530 628 L528 637 C524 641 520 645 517 650 C514 651 511 654 509 656 C497 667 480 677 469 688 C410 706 430 723 342 723 C261 723 195 712 137 650 L117 628 C117 628 116 627 116 626 C48 545 40 443 40 342 C40 310 48 278 55 247 C58 231 60 215 64 199 C94 78 209 -1 329 -1 C332 -1 342 -2 344 0 C409 -1 484 25 528 74 C533 80 541 89 541 97 C541 107 515 142 506 142 C505 142 504 142 503 141 C474 117 450 93 414 78 L414 78 Z M303 822 C320 822 333 838 338 853 L336 859 C337 863 339 867 339 871 C338 898 321 913 291 913 C289 913 288 912 285 912 C265 912 249 897 249 873 C249 862 251 850 257 842 C264 831 277 822 290 822 L303 822 Z " />
<glyph glyph-name="cdotaccent" unicode="&#x10b;" horiz-adv-x="381" d="M329 63 C181 68 114 213 114 344 C114 453 145 601 263 640 C283 647 309 644 327 650 L332 655 C332 665 331 674 331 684 L331 711 L325 716 C322 717 319 717 316 717 C266 717 221 700 182 669 C73 584 50 486 50 354 C50 327 57 302 57 275 C57 162 180 -1 301 -1 C332 -1 333 22 333 49 C333 54 331 59 329 63 L329 63 Z M199 822 C216 822 229 838 234 853 L232 859 C233 863 235 867 235 871 C234 898 217 913 187 913 C185 913 184 912 181 912 C161 912 145 897 145 873 C145 862 147 850 153 842 C160 831 173 822 186 822 L199 822 Z " />
<glyph glyph-name="Ccaron" unicode="&#x10c;" horiz-adv-x="588" d="M414 78 C412 78 408 76 406 76 C380 68 355 63 328 63 C170 63 104 207 104 348 C104 490 155 659 324 659 C358 659 385 653 416 640 C417 641 418 639 419 638 C432 637 444 619 456 615 C461 608 479 589 488 589 C490 589 524 620 529 625 L530 628 L528 637 C524 641 520 645 517 650 C514 651 511 654 509 656 C497 667 480 677 469 688 C410 706 430 723 342 723 C261 723 195 712 137 650 L117 628 C117 628 116 627 116 626 C48 545 40 443 40 342 C40 310 48 278 55 247 C58 231 60 215 64 199 C94 78 209 -1 329 -1 C332 -1 342 -2 344 0 C409 -1 484 25 528 74 C533 80 541 89 541 97 C541 107 515 142 506 142 C505 142 504 142 503 141 C474 117 450 93 414 78 L414 78 Z M223 847 C243 826 260 784 293 784 C326 784 341 823 364 847 C395 880 435 894 435 910 C435 930 414 931 399 931 C373 931 326 882 293 856 C260 882 213 931 188 931 C173 931 152 930 152 910 C152 894 192 880 223 847 L223 847 Z " />
<glyph glyph-name="ccaron" unicode="&#x10d;" horiz-adv-x="381" d="M329 63 C181 68 114 213 114 344 C114 453 145 601 263 640 C283 647 309 644 327 650 L332 655 C332 665 331 674 331 684 L331 711 L325 716 C322 717 319 717 316 717 C266 717 221 700 182 669 C73 584 50 486 50 354 C50 327 57 302 57 275 C57 162 180 -1 301 -1 C332 -1 333 22 333 49 C333 54 331 59 329 63 L329 63 Z M120 847 C140 826 157 784 190 784 C223 784 238 823 261 847 C292 880 332 894 332 910 C332 930 311 931 296 931 C270 931 223 882 190 856 C157 882 110 931 85 931 C70 931 49 930 49 910 C49 894 89 880 120 847 L120 847 Z " />
<glyph glyph-name="Dcaron" unicode="&#x10e;" horiz-adv-x="528" d="M52 694 C50 653 50 597 50 589 C50 473 56 357 56 241 C56 202 52 156 57 117 C59 102 60 28 59 15 C58 -3 108 -3 143 -3 C210 -3 285 20 338 62 C357 77 378 87 395 104 C464 173 498 275 498 371 C498 531 411 631 273 696 C261 702 193 728 182 726 C181 729 152 729 148 729 C106 729 52 737 52 694 L52 694 Z M160 661 C183 661 220 647 241 640 C308 617 386 554 411 486 C413 479 427 446 426 440 C433 425 435 371 435 353 C435 192 283 38 125 64 C128 77 125 109 125 124 C124 277 118 429 118 582 C118 594 117 649 117 657 C117 667 135 661 160 661 L160 661 Z M193 847 C213 826 230 784 263 784 C296 784 311 823 334 847 C365 880 405 894 405 910 C405 930 384 931 369 931 C343 931 296 882 263 856 C230 882 183 931 158 931 C143 931 122 930 122 910 C122 894 162 880 193 847 L193 847 Z " />
<glyph glyph-name="dcaron" unicode="&#x10f;" horiz-adv-x="486" d="M71 65 C76 32 105 0 140 0 C173 0 219 26 247 54 C325 133 348 271 348 378 C348 532 274 719 84 728 L69 722 C58 722 50 693 50 687 C50 521 59 355 59 189 C59 143 62 106 71 65 L71 65 Z M114 660 C114 661 114 662 115 662 C154 662 174 633 201 616 C209 609 231 578 241 559 C272 498 281 431 281 364 C281 273 259 140 179 85 C173 81 149 67 142 67 C123 67 114 589 114 660 L114 660 Z M399 578 C445 647 434 663 434 687 C434 706 409 729 390 729 C375 729 350 716 350 699 C350 698 352 695 352 694 C352 692 349 685 349 684 C349 678 352 673 355 668 L354 666 C354 658 369 646 368 647 C370 645 376 645 377 642 C378 639 374 628 374 624 C374 609 346 566 350 559 C354 553 369 549 374 554 C382 562 393 569 399 578 L399 578 Z " />
<glyph glyph-name="Dcroat" unicode="&#x110;" horiz-adv-x="548" d="M52 694 C50 653 50 597 50 589 C50 525 52 461 53 398 C24 398 -27 400 -33 403 L-40 397 L-41 388 L-40 340 L-40 341 L-38 336 C-15 332 8 335 31 335 C42 335 49 334 55 334 C55 303 56 272 56 241 C56 202 52 156 57 117 C59 102 60 28 59 15 C58 -3 108 -3 143 -3 C210 -3 285 20 338 62 C357 77 378 87 395 104 C464 173 498 275 498 371 C498 531 411 631 273 696 C261 702 193 728 182 726 C181 729 152 729 148 729 C106 729 52 737 52 694 L52 694 Z M160 661 C183 661 220 647 241 640 C308 617 386 554 411 486 C413 479 427 446 426 440 C433 425 435 371 435 353 C435 192 283 38 125 64 C128 77 125 109 125 124 C124 193 123 261 121 330 C254 330 168 328 203 328 C225 328 229 335 229 356 L229 395 C184 397 153 398 120 398 C119 459 118 520 118 582 C118 594 117 649 117 657 C117 667 135 661 160 661 L160 661 Z " />
<glyph glyph-name="dcroat" unicode="&#x111;" horiz-adv-x="397" d="M71 65 C76 32 105 0 140 0 C173 0 219 26 247 54 C325 133 348 271 348 378 C348 532 274 719 84 728 L69 722 C58 722 50 693 50 687 C50 591 53 496 55 400 C26 401 -13 403 -18 405 L-25 399 L-26 390 L-25 342 L-25 343 L-23 338 C0 334 23 337 46 337 L57 337 C58 287 59 238 59 189 C59 143 62 106 71 65 L71 65 Z M205 403 C153 406 149 402 119 400 C115 518 114 630 114 660 C114 661 114 662 115 662 C154 662 174 633 201 616 C209 609 231 578 241 559 C272 498 281 431 281 364 C281 273 259 140 179 85 C173 81 149 67 142 67 C132 67 125 197 121 336 L179 336 C201 336 205 343 205 364 L205 403 Z " />
<glyph glyph-name="Emacron" unicode="&#x112;" horiz-adv-x="653" d="M586 78 C468 78 350 72 232 67 C203 66 170 61 139 61 C133 61 127 62 121 62 C116 67 116 281 116 305 C123 305 131 304 138 304 C147 304 155 308 164 308 C197 308 232 301 266 301 C287 301 306 309 342 309 C347 309 351 306 357 306 C405 306 454 309 503 309 C531 309 530 320 530 345 C530 355 529 366 528 376 L501 377 C438 377 377 369 315 369 C248 369 182 372 116 372 C116 414 122 528 122 602 C122 629 121 651 119 662 L188 662 C318 662 449 657 579 657 C588 657 604 658 604 670 C604 685 603 701 603 717 C587 727 520 728 469 728 C401 728 380 724 332 724 C254 724 175 730 96 730 C83 730 55 714 56 700 C50 687 50 556 50 530 C50 496 55 460 55 426 C55 406 52 387 52 367 C52 326 57 285 57 244 C57 219 53 194 53 169 C53 122 48 35 67 10 L80 1 C86 1 94 -2 101 -2 C219 -2 338 8 457 8 C489 8 522 8 554 12 C589 16 594 34 594 66 C594 72 593 78 586 78 L586 78 Z M511 881 C444 885 318 885 251 885 C228 885 156 887 149 890 L142 884 L141 875 L142 827 L142 828 L144 823 C167 819 190 822 213 822 C250 822 289 816 326 816 C492 816 448 814 485 814 C507 814 511 821 511 842 L511 881 Z M600 720 L600 719 L601 719 L600 720 Z " />
<glyph glyph-name="emacron" unicode="&#x113;" horiz-adv-x="351" d="M286 72 C232 70 178 65 124 65 L122 67 C128 145 116 224 116 302 C127 296 140 296 152 296 C169 296 205 292 219 298 C227 301 227 326 227 333 L226 363 L167 361 C150 361 133 366 116 367 C116 465 121 563 121 661 C175 661 230 658 284 658 L303 672 L301 718 L294 725 C236 728 179 730 121 730 C23 730 50 543 50 472 C50 330 58 189 58 47 C58 1 93 -2 130 -2 L212 -2 C248 -2 291 4 291 49 C291 56 288 65 286 72 L286 72 Z M361 881 C294 885 168 885 101 885 C78 885 6 887 -1 890 L-8 884 L-9 875 L-8 827 L-8 828 L-6 823 C17 819 40 822 63 822 C100 822 139 816 176 816 C342 816 298 814 335 814 C357 814 361 821 361 842 L361 881 Z " />
<glyph glyph-name="Ebreve" unicode="&#x114;" horiz-adv-x="653" d="M586 78 C468 78 350 72 232 67 C203 66 170 61 139 61 C133 61 127 62 121 62 C116 67 116 281 116 305 C123 305 131 304 138 304 C147 304 155 308 164 308 C197 308 232 301 266 301 C287 301 306 309 342 309 C347 309 351 306 357 306 C405 306 454 309 503 309 C531 309 530 320 530 345 C530 355 529 366 528 376 L501 377 C438 377 377 369 315 369 C248 369 182 372 116 372 C116 414 122 528 122 602 C122 629 121 651 119 662 L188 662 C318 662 449 657 579 657 C588 657 604 658 604 670 C604 685 603 701 603 717 C587 727 520 728 469 728 C401 728 380 724 332 724 C254 724 175 730 96 730 C83 730 55 714 56 700 C50 687 50 556 50 530 C50 496 55 460 55 426 C55 406 52 387 52 367 C52 326 57 285 57 244 C57 219 53 194 53 169 C53 122 48 35 67 10 L80 1 C86 1 94 -2 101 -2 C219 -2 338 8 457 8 C489 8 522 8 554 12 C589 16 594 34 594 66 C594 72 593 78 586 78 L586 78 Z M372 901 C377 883 358 852 327 852 C290 852 273 869 276 898 C280 936 227 962 227 895 C227 837 264 797 324 797 C377 797 426 840 426 896 C426 958 360 949 372 901 L372 901 Z M600 720 L600 719 L601 719 L600 720 Z " />
<glyph glyph-name="ebreve" unicode="&#x115;" horiz-adv-x="351" d="M286 72 C232 70 178 65 124 65 L122 67 C128 145 116 224 116 302 C127 296 140 296 152 296 C169 296 205 292 219 298 C227 301 227 326 227 333 L226 363 L167 361 C150 361 133 366 116 367 C116 465 121 563 121 661 C175 661 230 658 284 658 L303 672 L301 718 L294 725 C236 728 179 730 121 730 C23 730 50 543 50 472 C50 330 58 189 58 47 C58 1 93 -2 130 -2 L212 -2 C248 -2 291 4 291 49 C291 56 288 65 286 72 L286 72 Z M221 901 C226 883 207 852 176 852 C139 852 122 869 125 898 C129 936 76 962 76 895 C76 837 113 797 173 797 C226 797 275 840 275 896 C275 958 209 949 221 901 L221 901 Z " />
<glyph glyph-name="Edotaccent" unicode="&#x116;" horiz-adv-x="653" d="M586 78 C468 78 350 72 232 67 C203 66 170 61 139 61 C133 61 127 62 121 62 C116 67 116 281 116 305 C123 305 131 304 138 304 C147 304 155 308 164 308 C197 308 232 301 266 301 C287 301 306 309 342 309 C347 309 351 306 357 306 C405 306 454 309 503 309 C531 309 530 320 530 345 C530 355 529 366 528 376 L501 377 C438 377 377 369 315 369 C248 369 182 372 116 372 C116 414 122 528 122 602 C122 629 121 651 119 662 L188 662 C318 662 449 657 579 657 C588 657 604 658 604 670 C604 685 603 701 603 717 C587 727 520 728 469 728 C401 728 380 724 332 724 C254 724 175 730 96 730 C83 730 55 714 56 700 C50 687 50 556 50 530 C50 496 55 460 55 426 C55 406 52 387 52 367 C52 326 57 285 57 244 C57 219 53 194 53 169 C53 122 48 35 67 10 L80 1 C86 1 94 -2 101 -2 C219 -2 338 8 457 8 C489 8 522 8 554 12 C589 16 594 34 594 66 C594 72 593 78 586 78 L586 78 Z M335 822 C352 822 365 838 370 853 L368 859 C369 863 371 867 371 871 C370 898 353 913 323 913 C321 913 320 912 317 912 C297 912 281 897 281 873 C281 862 283 850 289 842 C296 831 309 822 322 822 L335 822 Z M600 720 L600 719 L601 719 L600 720 Z " />
<glyph glyph-name="edotaccent" unicode="&#x117;" horiz-adv-x="351" d="M286 72 C232 70 178 65 124 65 L122 67 C128 145 116 224 116 302 C127 296 140 296 152 296 C169 296 205 292 219 298 C227 301 227 326 227 333 L226 363 L167 361 C150 361 133 366 116 367 C116 465 121 563 121 661 C175 661 230 658 284 658 L303 672 L301 718 L294 725 C236 728 179 730 121 730 C23 730 50 543 50 472 C50 330 58 189 58 47 C58 1 93 -2 130 -2 L212 -2 C248 -2 291 4 291 49 C291 56 288 65 286 72 L286 72 Z M184 822 C201 822 214 838 219 853 L217 859 C218 863 220 867 220 871 C219 898 202 913 172 913 C170 913 169 912 166 912 C146 912 130 897 130 873 C130 862 132 850 138 842 C145 831 158 822 171 822 L184 822 Z " />
<glyph glyph-name="Eogonek" unicode="&#x118;" horiz-adv-x="653" d="M586 78 C468 78 350 72 232 67 C203 66 170 61 139 61 C133 61 127 62 121 62 C116 67 116 281 116 305 C123 305 131 304 138 304 C147 304 155 308 164 308 C197 308 232 301 266 301 C287 301 306 309 342 309 C347 309 351 306 357 306 C405 306 454 309 503 309 C531 309 530 320 530 345 C530 355 529 366 528 376 L501 377 C438 377 377 369 315 369 C248 369 182 372 116 372 C116 414 122 528 122 602 C122 629 121 651 119 662 L188 662 C318 662 449 657 579 657 C588 657 604 658 604 670 C604 685 603 701 603 717 C587 727 520 728 469 728 C401 728 380 724 332 724 C254 724 175 730 96 730 C83 730 55 714 56 700 C50 687 50 556 50 530 C50 496 55 460 55 426 C55 406 52 387 52 367 C52 326 57 285 57 244 C57 219 53 194 53 169 C53 122 48 35 67 10 L80 1 C86 1 94 -2 101 -2 C159 -2 218 0 277 3 C269 -12 265 -32 265 -60 C265 -133 338 -154 398 -154 C419 -154 442 -138 454 -122 C451 -113 413 -73 406 -77 C398 -82 391 -89 383 -89 C347 -89 329 -75 329 -38 C329 -1 354 -1 378 7 C404 8 430 8 457 8 C489 8 522 8 554 12 C589 16 594 34 594 66 C594 72 593 78 586 78 L586 78 Z M600 720 L600 719 L601 719 L600 720 Z " />
<glyph glyph-name="eogonek" unicode="&#x119;" horiz-adv-x="351" d="M286 72 C232 70 178 65 124 65 L122 67 C128 145 116 224 116 302 C127 296 140 296 152 296 C169 296 205 292 219 298 C227 301 227 326 227 333 L226 363 L167 361 C150 361 133 366 116 367 C116 465 121 563 121 661 C175 661 230 658 284 658 L303 672 L301 718 L294 725 C236 728 179 730 121 730 C23 730 50 543 50 472 C50 330 58 189 58 47 C58 1 92 -2 129 -2 C120 -17 114 -39 114 -70 C114 -143 187 -164 247 -164 C268 -164 291 -148 303 -132 C300 -123 262 -83 255 -87 C247 -92 240 -99 232 -99 C196 -99 178 -85 178 -48 C178 -8 207 -11 232 -1 C262 1 291 12 291 49 C291 56 288 65 286 72 L286 72 Z " />
<glyph glyph-name="Ecaron" unicode="&#x11a;" horiz-adv-x="653" d="M586 78 C468 78 350 72 232 67 C203 66 170 61 139 61 C133 61 127 62 121 62 C116 67 116 281 116 305 C123 305 131 304 138 304 C147 304 155 308 164 308 C197 308 232 301 266 301 C287 301 306 309 342 309 C347 309 351 306 357 306 C405 306 454 309 503 309 C531 309 530 320 530 345 C530 355 529 366 528 376 L501 377 C438 377 377 369 315 369 C248 369 182 372 116 372 C116 414 122 528 122 602 C122 629 121 651 119 662 L188 662 C318 662 449 657 579 657 C588 657 604 658 604 670 C604 685 603 701 603 717 C587 727 520 728 469 728 C401 728 380 724 332 724 C254 724 175 730 96 730 C83 730 55 714 56 700 C50 687 50 556 50 530 C50 496 55 460 55 426 C55 406 52 387 52 367 C52 326 57 285 57 244 C57 219 53 194 53 169 C53 122 48 35 67 10 L80 1 C86 1 94 -2 101 -2 C219 -2 338 8 457 8 C489 8 522 8 554 12 C589 16 594 34 594 66 C594 72 593 78 586 78 L586 78 Z M256 847 C276 826 293 784 326 784 C359 784 374 823 397 847 C428 880 468 894 468 910 C468 930 447 931 432 931 C406 931 359 882 326 856 C293 882 246 931 221 931 C206 931 185 930 185 910 C185 894 225 880 256 847 L256 847 Z M600 720 L600 719 L601 719 L600 720 Z " />
<glyph glyph-name="ecaron" unicode="&#x11b;" horiz-adv-x="351" d="M286 72 C232 70 178 65 124 65 L122 67 C128 145 116 224 116 302 C127 296 140 296 152 296 C169 296 205 292 219 298 C227 301 227 326 227 333 L226 363 L167 361 C150 361 133 366 116 367 C116 465 121 563 121 661 C175 661 230 658 284 658 L303 672 L301 718 L294 725 C236 728 179 730 121 730 C23 730 50 543 50 472 C50 330 58 189 58 47 C58 1 93 -2 130 -2 L212 -2 C248 -2 291 4 291 49 C291 56 288 65 286 72 L286 72 Z M105 847 C125 826 142 784 175 784 C208 784 223 823 246 847 C277 880 317 894 317 910 C317 930 296 931 281 931 C255 931 208 882 175 856 C142 882 95 931 70 931 C55 931 34 930 34 910 C34 894 74 880 105 847 L105 847 Z " />
<glyph glyph-name="Gcircumflex" unicode="&#x11c;" horiz-adv-x="638" d="M357 291 C407 293 460 296 510 296 C512 294 523 174 523 154 L524 152 C524 135 427 81 406 73 C401 71 376 66 375 65 C368 65 361 63 353 63 L326 62 C234 62 173 129 142 208 C135 225 126 266 126 271 C126 296 118 339 118 365 C118 434 133 506 169 565 C169 566 174 572 174 573 C216 630 265 659 336 659 C426 659 469 610 474 609 L479 603 C484 602 488 592 501 590 C504 592 536 621 541 626 L541 630 C541 642 527 652 519 659 C462 711 404 726 326 726 C300 726 268 715 244 707 C101 659 50 500 50 362 C50 310 58 268 74 218 C106 119 116 104 198 41 C236 12 281 -1 329 -1 C414 -1 493 31 554 92 C576 114 588 119 588 157 C588 250 587 363 522 363 L513 364 C472 364 430 362 390 357 C356 353 348 337 348 303 C348 298 350 291 357 291 L357 291 Z M248 868 C217 835 177 821 177 805 C177 785 198 784 213 784 C238 784 285 833 318 859 C351 833 398 784 424 784 C439 784 460 785 460 805 C460 821 420 835 389 868 C366 892 351 931 318 931 C285 931 268 889 248 868 L248 868 Z " />
<glyph glyph-name="gcircumflex" unicode="&#x11d;" horiz-adv-x="504" d="M388 668 C349 703 300 727 247 727 C107 727 50 626 50 498 C50 376 142 300 259 300 C309 300 355 325 391 358 C391 236 386 66 223 66 C104 66 143 167 117 184 L63 187 C60 186 60 182 56 179 L56 158 C56 63 142 -2 234 -2 C517 -2 456 468 456 661 C456 711 452 721 400 721 C397 721 392 718 389 717 L388 668 Z M380 489 C380 419 316 364 248 364 C151 364 114 433 114 521 C114 603 168 659 251 659 C352 659 380 576 380 489 L380 489 Z M181 868 C150 835 110 821 110 805 C110 785 131 784 146 784 C171 784 218 833 251 859 C284 833 331 784 357 784 C372 784 393 785 393 805 C393 821 353 835 322 868 C299 892 284 931 251 931 C218 931 201 889 181 868 L181 868 Z " />
<glyph glyph-name="Gbreve" unicode="&#x11e;" horiz-adv-x="638" d="M357 291 C407 293 460 296 510 296 C512 294 523 174 523 154 L524 152 C524 135 427 81 406 73 C401 71 376 66 375 65 C368 65 361 63 353 63 L326 62 C234 62 173 129 142 208 C135 225 126 266 126 271 C126 296 118 339 118 365 C118 434 133 506 169 565 C169 566 174 572 174 573 C216 630 265 659 336 659 C426 659 469 610 474 609 L479 603 C484 602 488 592 501 590 C504 592 536 621 541 626 L541 630 C541 642 527 652 519 659 C462 711 404 726 326 726 C300 726 268 715 244 707 C101 659 50 500 50 362 C50 310 58 268 74 218 C106 119 116 104 198 41 C236 12 281 -1 329 -1 C414 -1 493 31 554 92 C576 114 588 119 588 157 C588 250 587 363 522 363 L513 364 C472 364 430 362 390 357 C356 353 348 337 348 303 C348 298 350 291 357 291 L357 291 Z M364 901 C369 883 350 852 319 852 C282 852 265 869 268 898 C272 936 219 962 219 895 C219 837 256 797 316 797 C369 797 418 840 418 896 C418 958 352 949 364 901 L364 901 Z " />
<glyph glyph-name="gbreve" unicode="&#x11f;" horiz-adv-x="504" d="M388 668 C349 703 300 727 247 727 C107 727 50 626 50 498 C50 376 142 300 259 300 C309 300 355 325 391 358 C391 236 386 66 223 66 C104 66 143 167 117 184 L63 187 C60 186 60 182 56 179 L56 158 C56 63 142 -2 234 -2 C517 -2 456 468 456 661 C456 711 452 721 400 721 C397 721 392 718 389 717 L388 668 Z M380 489 C380 419 316 364 248 364 C151 364 114 433 114 521 C114 603 168 659 251 659 C352 659 380 576 380 489 L380 489 Z M297 901 C302 883 283 852 252 852 C215 852 198 869 201 898 C205 936 152 962 152 895 C152 837 189 797 249 797 C302 797 351 840 351 896 C351 958 285 949 297 901 L297 901 Z " />
<glyph glyph-name="Gdotaccent" unicode="&#x120;" horiz-adv-x="638" d="M357 291 C407 293 460 296 510 296 C512 294 523 174 523 154 L524 152 C524 135 427 81 406 73 C401 71 376 66 375 65 C368 65 361 63 353 63 L326 62 C234 62 173 129 142 208 C135 225 126 266 126 271 C126 296 118 339 118 365 C118 434 133 506 169 565 C169 566 174 572 174 573 C216 630 265 659 336 659 C426 659 469 610 474 609 L479 603 C484 602 488 592 501 590 C504 592 536 621 541 626 L541 630 C541 642 527 652 519 659 C462 711 404 726 326 726 C300 726 268 715 244 707 C101 659 50 500 50 362 C50 310 58 268 74 218 C106 119 116 104 198 41 C236 12 281 -1 329 -1 C414 -1 493 31 554 92 C576 114 588 119 588 157 C588 250 587 363 522 363 L513 364 C472 364 430 362 390 357 C356 353 348 337 348 303 C348 298 350 291 357 291 L357 291 Z M328 822 C345 822 358 838 363 853 L361 859 C362 863 364 867 364 871 C363 898 346 913 316 913 C314 913 313 912 310 912 C290 912 274 897 274 873 C274 862 276 850 282 842 C289 831 302 822 315 822 L328 822 Z " />
<glyph glyph-name="gdotaccent" unicode="&#x121;" horiz-adv-x="504" d="M388 668 C349 703 300 727 247 727 C107 727 50 626 50 498 C50 376 142 300 259 300 C309 300 355 325 391 358 C391 236 386 66 223 66 C104 66 143 167 117 184 L63 187 C60 186 60 182 56 179 L56 158 C56 63 142 -2 234 -2 C517 -2 456 468 456 661 C456 711 452 721 400 721 C397 721 392 718 389 717 L388 668 Z M380 489 C380 419 316 364 248 364 C151 364 114 433 114 521 C114 603 168 659 251 659 C352 659 380 576 380 489 L380 489 Z M261 822 C278 822 291 838 296 853 L294 859 C295 863 297 867 297 871 C296 898 279 913 249 913 C247 913 246 912 243 912 C223 912 207 897 207 873 C207 862 209 850 215 842 C222 831 235 822 248 822 L261 822 Z " />
<glyph glyph-name="Gcommaaccent" unicode="&#x122;" horiz-adv-x="638" d="M357 291 C407 293 460 296 510 296 C512 294 523 174 523 154 L524 152 C524 135 427 81 406 73 C401 71 376 66 375 65 C368 65 361 63 353 63 L326 62 C234 62 173 129 142 208 C135 225 126 266 126 271 C126 296 118 339 118 365 C118 434 133 506 169 565 C169 566 174 572 174 573 C216 630 265 659 336 659 C426 659 469 610 474 609 L479 603 C484 602 488 592 501 590 C504 592 536 621 541 626 L541 630 C541 642 527 652 519 659 C462 711 404 726 326 726 C300 726 268 715 244 707 C101 659 50 500 50 362 C50 310 58 268 74 218 C106 119 116 104 198 41 C236 12 281 -1 329 -1 C414 -1 493 31 554 92 C576 114 588 119 588 157 C588 250 587 363 522 363 L513 364 C472 364 430 362 390 357 C356 353 348 337 348 303 C348 298 350 291 357 291 L357 291 Z M322 -233 C368 -164 357 -148 357 -124 C357 -105 332 -82 313 -82 C298 -82 273 -95 273 -112 C273 -113 275 -116 275 -117 C275 -119 272 -126 272 -127 C272 -133 275 -138 278 -143 L277 -145 C277 -153 292 -165 291 -164 C293 -166 299 -166 300 -169 C301 -172 297 -183 297 -187 C297 -202 269 -245 273 -252 C277 -258 292 -262 297 -257 C305 -249 316 -242 322 -233 L322 -233 Z " />
<glyph glyph-name="gcommaaccent" unicode="&#x123;" horiz-adv-x="504" d="M388 668 C349 703 300 727 247 727 C107 727 50 626 50 498 C50 376 142 300 259 300 C309 300 355 325 391 358 C391 236 386 66 223 66 C104 66 143 167 117 184 L63 187 C60 186 60 182 56 179 L56 158 C56 63 142 -2 234 -2 C517 -2 456 468 456 661 C456 711 452 721 400 721 C397 721 392 718 389 717 L388 668 Z M380 489 C380 419 316 364 248 364 C151 364 114 433 114 521 C114 603 168 659 251 659 C352 659 380 576 380 489 L380 489 Z M248 904 C202 835 213 819 213 795 C213 776 238 753 257 753 C272 753 297 766 297 783 C297 784 295 787 295 788 C295 790 298 797 298 798 C298 804 295 809 292 814 L293 816 C293 824 278 836 279 835 C277 837 271 837 270 840 C269 843 273 854 273 858 C273 873 301 916 297 923 C293 929 278 933 273 928 C265 920 254 913 248 904 L248 904 Z " />
<glyph glyph-name="Hcircumflex" unicode="&#x124;" horiz-adv-x="586" d="M136 7 C124 105 116 197 116 297 C117 298 124 298 134 298 C168 298 243 294 257 294 C276 294 311 297 328 302 C331 300 339 299 350 299 C379 299 426 304 440 304 C448 304 458 302 466 301 L465 275 C463 232 460 166 460 106 C460 73 462 42 467 16 C470 1 489 -1 502 0 L533 2 L533 42 C533 134 528 227 528 320 C528 449 538 578 538 706 C538 709 538 720 532 720 L478 720 C466 720 467 690 467 676 C467 652 470 627 470 605 C470 552 461 497 461 444 C461 422 466 402 466 381 C466 377 465 373 464 369 C386 368 311 362 232 362 C193 362 154 362 116 365 C119 478 126 593 126 706 C126 709 126 720 120 720 L66 720 C55 720 58 691 58 680 C58 656 59 633 59 609 C59 503 49 464 49 292 C49 184 52 54 69 11 C73 2 79 -1 89 -1 C105 -1 121 2 136 7 L136 7 Z M222 868 C191 835 151 821 151 805 C151 785 172 784 187 784 C212 784 259 833 292 859 C325 833 372 784 398 784 C413 784 434 785 434 805 C434 821 394 835 363 868 C340 892 325 931 292 931 C259 931 242 889 222 868 L222 868 Z " />
<glyph glyph-name="hcircumflex" unicode="&#x125;" horiz-adv-x="440" d="M128 5 C123 103 116 201 116 299 C138 294 160 294 182 294 L234 304 C244 295 301 306 315 308 C312 297 311 286 311 275 C311 232 301 0 345 0 C360 0 375 2 390 6 C378 110 374 214 374 319 C374 449 380 580 384 710 L378 720 L369 721 L321 720 L317 716 C315 679 316 643 316 606 C316 532 313 459 313 385 L311 372 C273 369 235 362 197 362 L116 363 C117 479 122 594 126 710 L120 720 L111 721 L66 721 C52 698 59 637 59 609 C59 549 50 490 50 430 C50 301 57 172 57 43 C57 13 64 0 97 0 C107 0 118 3 128 5 L128 5 Z M149 868 C118 835 78 821 78 805 C78 785 99 784 114 784 C139 784 186 833 219 859 C252 833 299 784 325 784 C340 784 361 785 361 805 C361 821 321 835 290 868 C267 892 252 931 219 931 C186 931 169 889 149 868 L149 868 Z " />
<glyph glyph-name="Hbar" unicode="&#x126;" horiz-adv-x="586" d="M136 7 C124 105 116 197 116 297 C117 298 124 298 134 298 C168 298 243 294 257 294 C276 294 311 297 328 302 C331 300 339 299 350 299 C379 299 426 304 440 304 C448 304 458 302 466 301 L465 275 C463 232 460 166 460 106 C460 73 462 42 467 16 C470 1 489 -1 502 0 L533 2 L533 42 C533 134 528 227 528 320 C528 375 530 430 532 486 C564 485 588 485 602 485 C624 485 628 492 628 513 L628 552 C613 553 576 553 534 553 C536 604 538 655 538 706 C538 709 538 720 532 720 L478 720 C466 720 467 690 467 676 C467 652 470 627 470 605 C470 588 469 571 468 553 C351 553 207 551 123 551 C125 603 126 654 126 706 C126 709 126 720 120 720 L66 720 C55 720 58 691 58 680 C58 656 59 633 59 609 C59 587 58 568 58 551 C30 551 -29 553 -36 556 L-43 550 L-44 541 L-43 493 L-43 494 L-41 489 C-18 485 5 488 28 488 L54 488 C52 440 49 386 49 292 C49 184 52 54 69 11 C73 2 79 -1 89 -1 C105 -1 121 2 136 7 L136 7 Z M293 487 C359 487 416 487 462 486 C461 472 461 458 461 444 C461 422 466 402 466 381 C466 377 465 373 464 369 C386 368 311 362 232 362 C193 362 154 362 116 365 C117 406 118 447 120 488 C188 487 270 487 293 487 L293 487 Z " />
<glyph glyph-name="hbar" unicode="&#x127;" horiz-adv-x="440" d="M455 563 L379 565 C380 613 382 661 384 710 L378 720 L369 721 L321 720 L317 716 C315 679 316 643 316 606 L316 565 L120 565 L126 710 L120 720 L111 721 L66 721 C52 698 59 637 59 609 C59 595 59 580 58 566 C26 567 -3 568 -7 570 L-14 564 L-15 555 L-14 507 L-14 508 L-12 503 C1 501 28 500 53 501 C51 477 50 454 50 430 C50 301 57 172 57 43 C57 13 64 0 97 0 C107 0 118 3 128 5 C123 103 116 201 116 299 C138 294 160 294 182 294 L234 304 C244 295 301 306 315 308 C312 297 311 286 311 275 C311 232 301 0 345 0 C360 0 375 2 390 6 C378 110 374 214 374 319 C374 378 375 437 377 496 L429 496 C451 496 455 503 455 524 L455 563 Z M116 363 C116 409 117 455 119 502 C152 501 187 496 220 496 L314 496 C313 459 313 422 313 385 L311 372 C273 369 235 362 197 362 L116 363 Z " />
<glyph glyph-name="Itilde" unicode="&#x128;" horiz-adv-x="469" d="M419 66 C405 67 391 67 378 67 C343 67 308 70 274 70 C278 91 272 107 272 127 C272 183 281 240 281 296 C281 357 274 419 274 483 C274 541 274 600 278 657 C319 657 360 655 401 655 C417 655 420 673 420 691 C420 703 419 715 419 722 C404 723 389 724 374 724 C338 724 303 721 267 721 C196 721 127 733 56 733 C51 733 50 725 50 716 C50 709 51 701 51 698 C51 693 49 684 49 677 C49 665 57 663 65 663 C80 663 92 665 108 665 C135 665 166 655 195 655 C200 655 205 655 210 656 L210 633 C210 556 215 480 215 403 C215 291 214 182 207 71 C158 74 105 77 56 77 C51 77 50 69 50 60 C50 53 51 45 51 42 C51 37 49 28 49 21 C49 9 57 7 65 7 L222 7 C243 7 390 -4 377 -4 C400 -4 420 2 420 35 C420 47 419 59 419 66 L419 66 Z M320 867 C284 841 227 910 162 910 C128 910 68 885 68 844 C68 825 89 820 103 822 C130 826 145 853 176 853 C208 853 237 807 295 807 C331 807 400 835 400 878 C400 895 371 903 320 867 L320 867 Z " />
<glyph glyph-name="itilde" unicode="&#x129;" horiz-adv-x="477" d="M427 66 C377 70 327 65 277 65 C272 106 276 147 276 188 C276 259 260 328 260 399 L261 421 L266 422 C306 422 344 413 384 413 C411 413 428 422 428 451 L427 482 C371 486 316 481 260 481 C192 481 126 494 58 494 C48 484 49 466 49 453 C49 406 79 426 110 426 C138 426 166 419 194 416 C198 299 210 183 210 66 C159 69 109 77 58 77 C48 67 49 49 49 36 C49 -9 80 9 110 9 C165 9 209 0 266 5 C277 -2 375 -2 394 -2 C419 -2 428 9 428 34 L427 66 Z M324 667 C288 641 231 710 166 710 C132 710 72 685 72 644 C72 625 93 620 107 622 C134 626 149 653 180 653 C212 653 241 607 299 607 C335 607 404 635 404 678 C404 695 375 703 324 667 L324 667 Z " />
<glyph glyph-name="Imacron" unicode="&#x12a;" horiz-adv-x="469" d="M419 66 C405 67 391 67 378 67 C343 67 308 70 274 70 C278 91 272 107 272 127 C272 183 281 240 281 296 C281 357 274 419 274 483 C274 541 274 600 278 657 C319 657 360 655 401 655 C417 655 420 673 420 691 C420 703 419 715 419 722 C404 723 389 724 374 724 C338 724 303 721 267 721 C196 721 127 733 56 733 C51 733 50 725 50 716 C50 709 51 701 51 698 C51 693 49 684 49 677 C49 665 57 663 65 663 C80 663 92 665 108 665 C135 665 166 655 195 655 C200 655 205 655 210 656 L210 633 C210 556 215 480 215 403 C215 291 214 182 207 71 C158 74 105 77 56 77 C51 77 50 69 50 60 C50 53 51 45 51 42 C51 37 49 28 49 21 C49 9 57 7 65 7 L222 7 C243 7 390 -4 377 -4 C400 -4 420 2 420 35 C420 47 419 59 419 66 L419 66 Z M420 881 C353 885 227 885 160 885 C137 885 65 887 58 890 L51 884 L50 875 L51 827 L51 828 L53 823 C76 819 99 822 122 822 C159 822 198 816 235 816 C401 816 357 814 394 814 C416 814 420 821 420 842 L420 881 Z " />
<glyph glyph-name="imacron" unicode="&#x12b;" horiz-adv-x="477" d="M427 66 C377 70 327 65 277 65 C272 106 276 147 276 188 C276 259 260 328 260 399 L261 421 L266 422 C306 422 344 413 384 413 C411 413 428 422 428 451 L427 482 C371 486 316 481 260 481 C192 481 126 494 58 494 C48 484 49 466 49 453 C49 406 79 426 110 426 C138 426 166 419 194 416 C198 299 210 183 210 66 C159 69 109 77 58 77 C48 67 49 49 49 36 C49 -9 80 9 110 9 C165 9 209 0 266 5 C277 -2 375 -2 394 -2 C419 -2 428 9 428 34 L427 66 Z M423 681 C356 685 230 685 163 685 C140 685 68 687 61 690 L54 684 L53 675 L54 627 L54 628 L56 623 C79 619 102 622 125 622 C162 622 201 616 238 616 C404 616 360 614 397 614 C419 614 423 621 423 642 L423 681 Z " />
<glyph glyph-name="Ibreve" unicode="&#x12c;" horiz-adv-x="469" d="M419 66 C405 67 391 67 378 67 C343 67 308 70 274 70 C278 91 272 107 272 127 C272 183 281 240 281 296 C281 357 274 419 274 483 C274 541 274 600 278 657 C319 657 360 655 401 655 C417 655 420 673 420 691 C420 703 419 715 419 722 C404 723 389 724 374 724 C338 724 303 721 267 721 C196 721 127 733 56 733 C51 733 50 725 50 716 C50 709 51 701 51 698 C51 693 49 684 49 677 C49 665 57 663 65 663 C80 663 92 665 108 665 C135 665 166 655 195 655 C200 655 205 655 210 656 L210 633 C210 556 215 480 215 403 C215 291 214 182 207 71 C158 74 105 77 56 77 C51 77 50 69 50 60 C50 53 51 45 51 42 C51 37 49 28 49 21 C49 9 57 7 65 7 L222 7 C243 7 390 -4 377 -4 C400 -4 420 2 420 35 C420 47 419 59 419 66 L419 66 Z M280 901 C285 883 266 852 235 852 C198 852 181 869 184 898 C188 936 135 962 135 895 C135 837 172 797 232 797 C285 797 334 840 334 896 C334 958 268 949 280 901 L280 901 Z " />
<glyph glyph-name="ibreve" unicode="&#x12d;" horiz-adv-x="477" d="M427 66 C377 70 327 65 277 65 C272 106 276 147 276 188 C276 259 260 328 260 399 L261 421 L266 422 C306 422 344 413 384 413 C411 413 428 422 428 451 L427 482 C371 486 316 481 260 481 C192 481 126 494 58 494 C48 484 49 466 49 453 C49 406 79 426 110 426 C138 426 166 419 194 416 C198 299 210 183 210 66 C159 69 109 77 58 77 C48 67 49 49 49 36 C49 -9 80 9 110 9 C165 9 209 0 266 5 C277 -2 375 -2 394 -2 C419 -2 428 9 428 34 L427 66 Z M284 701 C289 683 270 652 239 652 C202 652 185 669 188 698 C192 736 139 762 139 695 C139 637 176 597 236 597 C289 597 338 640 338 696 C338 758 272 749 284 701 L284 701 Z " />
<glyph glyph-name="Iogonek" unicode="&#x12e;" horiz-adv-x="469" d="M419 66 C405 67 391 67 378 67 C343 67 308 70 274 70 C278 91 272 107 272 127 C272 183 281 240 281 296 C281 357 274 419 274 483 C274 541 274 600 278 657 C319 657 360 655 401 655 C417 655 420 673 420 691 C420 703 419 715 419 722 C404 723 389 724 374 724 C338 724 303 721 267 721 C196 721 127 733 56 733 C51 733 50 725 50 716 C50 709 51 701 51 698 C51 693 49 684 49 677 C49 665 57 663 65 663 C80 663 92 665 108 665 C135 665 166 655 195 655 C200 655 205 655 210 656 L210 633 C210 556 215 480 215 403 C215 291 214 182 207 71 C158 74 105 77 56 77 C51 77 50 69 50 60 C50 53 51 45 51 42 C51 37 49 28 49 21 C49 9 57 7 65 7 L212 7 C199 -9 191 -33 191 -70 C191 -143 264 -164 324 -164 C345 -164 368 -148 380 -132 C377 -123 339 -83 332 -87 C324 -92 317 -99 309 -99 C273 -99 255 -85 255 -48 C255 -4 289 -12 315 1 C348 -1 377 -3 378 -4 C400 -4 420 2 420 35 C420 47 419 59 419 66 L419 66 Z " />
<glyph glyph-name="iogonek" unicode="&#x12f;" horiz-adv-x="477" d="M427 66 C377 70 327 65 277 65 C272 106 276 147 276 188 C276 259 260 328 260 399 L261 421 L266 422 C306 422 344 413 384 413 C411 413 428 422 428 451 L427 482 C371 486 316 481 260 481 C192 481 126 494 58 494 C48 484 49 466 49 453 C49 406 79 426 110 426 C138 426 166 419 194 416 C198 299 210 183 210 66 C159 69 109 77 58 77 C48 67 49 49 49 36 C49 -9 80 9 110 9 C136 9 160 6 184 5 C172 -11 164 -34 164 -70 C164 -143 237 -164 297 -164 C318 -164 341 -148 353 -132 C350 -123 312 -83 305 -87 C297 -92 290 -99 282 -99 C246 -99 228 -85 228 -48 C228 -5 261 -12 287 1 C320 -2 379 -2 394 -2 C419 -2 428 9 428 34 L427 66 Z M254 666 C281 666 298 675 298 704 L297 735 C296 768 191 748 178 737 C167 728 169 709 169 696 C169 649 199 669 254 666 L254 666 Z " />
<glyph glyph-name="Idotaccent" unicode="&#x130;" horiz-adv-x="469" d="M419 66 C405 67 391 67 378 67 C343 67 308 70 274 70 C278 91 272 107 272 127 C272 183 281 240 281 296 C281 357 274 419 274 483 C274 541 274 600 278 657 C319 657 360 655 401 655 C417 655 420 673 420 691 C420 703 419 715 419 722 C404 723 389 724 374 724 C338 724 303 721 267 721 C196 721 127 733 56 733 C51 733 50 725 50 716 C50 709 51 701 51 698 C51 693 49 684 49 677 C49 665 57 663 65 663 C80 663 92 665 108 665 C135 665 166 655 195 655 C200 655 205 655 210 656 L210 633 C210 556 215 480 215 403 C215 291 214 182 207 71 C158 74 105 77 56 77 C51 77 50 69 50 60 C50 53 51 45 51 42 C51 37 49 28 49 21 C49 9 57 7 65 7 L222 7 C242 7 376 -3 378 -4 C400 -4 420 2 420 35 C420 47 419 59 419 66 L419 66 Z M243 822 C260 822 273 838 278 853 L276 859 C277 863 279 867 279 871 C278 898 261 913 231 913 C229 913 228 912 225 912 C205 912 189 897 189 873 C189 862 191 850 197 842 C204 831 217 822 230 822 L243 822 Z " />
<glyph glyph-name="dotlessi" unicode="&#x131;" horiz-adv-x="477" d="M427 66 C377 70 327 65 277 65 C272 106 276 147 276 188 C276 259 260 328 260 399 L261 421 L266 422 C306 422 344 413 384 413 C411 413 428 422 428 451 L427 482 C371 486 316 481 260 481 C192 481 126 494 58 494 C48 484 49 466 49 453 C49 406 79 426 110 426 C138 426 166 419 194 416 C198 299 210 183 210 66 C159 69 109 77 58 77 C48 67 49 49 49 36 C49 -9 80 9 110 9 C165 9 209 0 266 5 C277 -2 375 -2 394 -2 C419 -2 428 9 428 34 L427 66 L427 66 Z " />
<glyph glyph-name="IJ" unicode="&#x132;" horiz-adv-x="816" d="M419 66 C405 67 391 67 378 67 C343 67 308 70 274 70 C278 91 272 107 272 127 C272 183 281 240 281 296 C281 357 274 419 274 483 C274 541 274 600 278 657 C319 657 360 655 401 655 C417 655 420 673 420 691 C420 703 419 715 419 722 C404 723 389 724 374 724 C338 724 303 721 267 721 C196 721 127 733 56 733 C51 733 50 725 50 716 C50 709 51 701 51 698 C51 693 49 684 49 677 C49 665 57 663 65 663 C80 663 92 665 108 665 C135 665 166 655 195 655 C200 655 205 655 210 656 L210 633 C210 556 215 480 215 403 C215 291 214 182 207 71 C158 74 105 77 56 77 C51 77 50 69 50 60 C50 53 51 45 51 42 C51 37 49 28 49 21 C49 9 57 7 65 7 L222 7 C242 7 376 -3 378 -4 C400 -4 420 2 420 35 C420 47 419 59 419 66 L419 66 Z M532 664 C587 663 642 663 697 663 C697 533 702 415 702 278 C702 184 690 66 594 66 C500 66 498 140 486 209 L481 216 L467 217 C455 217 439 217 427 216 L420 208 L419 196 C419 129 445 67 501 29 L519 19 C546 7 568 -1 598 -1 C701 -1 767 108 767 201 C767 365 761 531 761 696 L760 697 C754 720 730 727 715 727 C672 727 629 731 585 731 C542 731 527 729 527 676 L532 664 Z " />
<glyph glyph-name="Jcircumflex" unicode="&#x134;" horiz-adv-x="447" d="M163 664 C218 663 273 663 328 663 C328 533 333 415 333 278 C333 184 321 66 225 66 C131 66 129 140 117 209 L112 216 L98 217 C86 217 70 217 58 216 L51 208 L50 196 C50 129 76 67 132 29 L150 19 C177 7 199 -1 229 -1 C332 -1 398 108 398 201 C398 365 392 531 392 696 L391 697 C385 720 361 727 346 727 C303 727 260 731 216 731 C173 731 158 729 158 676 L163 664 Z M213 868 C182 835 142 821 142 805 C142 785 163 784 178 784 C203 784 250 833 283 859 C316 833 363 784 389 784 C404 784 425 785 425 805 C425 821 385 835 354 868 C331 892 316 931 283 931 C250 931 233 889 213 868 L213 868 Z " />
<glyph glyph-name="jcircumflex" unicode="&#x135;" horiz-adv-x="165" d="M49 464 C47 324 54 214 54 74 C54 -4 52 -183 -66 -176 L-70 -181 L-70 -237 C-69 -236 -63 -243 -60 -243 C69 -243 119 -98 119 10 C119 53 110 65 110 108 C110 158 119 208 119 258 L117 424 C117 455 114 466 80 466 L49 464 Z M12 668 C-19 635 -59 621 -59 605 C-59 585 -38 584 -23 584 C2 584 49 633 82 659 C115 633 162 584 188 584 C203 584 224 585 224 605 C224 621 184 635 153 668 C130 692 115 731 82 731 C49 731 32 689 12 668 L12 668 Z " />
<glyph glyph-name="Kcommaaccent" unicode="&#x136;" horiz-adv-x="612" d="M561 57 C401 66 425 202 362 308 C348 335 314 352 287 366 C298 376 311 384 321 398 C351 442 549 695 549 696 C549 707 498 734 496 734 C470 712 459 678 438 656 C380 595 338 528 292 459 C284 454 269 437 270 435 C246 409 214 390 178 390 C158 390 137 394 117 394 C118 500 124 607 126 712 L120 723 C118 724 115 724 112 724 L66 723 C59 720 58 709 58 698 C58 667 59 640 59 609 C59 551 50 490 50 431 C50 304 58 172 58 43 C58 17 61 0 98 0 C107 0 120 4 129 5 C123 112 116 218 116 326 C125 325 133 325 142 325 C192 325 201 324 241 313 C360 279 334 113 412 50 C448 21 498 -9 549 -6 C565 -5 563 22 563 43 C563 48 562 53 561 57 L561 57 Z M309 -233 C355 -164 344 -148 344 -124 C344 -105 319 -82 300 -82 C285 -82 260 -95 260 -112 C260 -113 262 -116 262 -117 C262 -119 259 -126 259 -127 C259 -133 262 -138 265 -143 L264 -145 C264 -153 279 -165 278 -164 C280 -166 286 -166 287 -169 C288 -172 284 -183 284 -187 C284 -202 256 -245 260 -252 C264 -258 279 -262 284 -257 C292 -249 303 -242 309 -233 L309 -233 Z " />
<glyph glyph-name="kcommaaccent" unicode="&#x137;" horiz-adv-x="435" d="M390 25 C330 152 245 265 189 394 C295 539 385 673 385 677 C385 689 346 712 336 718 C288 654 183 451 117 427 L126 712 L120 722 L114 723 C96 723 77 720 59 718 C56 681 59 645 59 608 C59 549 50 490 50 431 C50 303 58 175 58 47 C58 28 59 0 85 0 C100 0 115 2 130 4 C123 122 116 240 116 358 L129 361 C153 272 257 141 303 52 C309 40 318 -1 335 -1 C351 -1 376 17 390 25 L390 25 Z M221 -233 C267 -164 256 -148 256 -124 C256 -105 231 -82 212 -82 C197 -82 172 -95 172 -112 C172 -113 174 -116 174 -117 C174 -119 171 -126 171 -127 C171 -133 174 -138 177 -143 L176 -145 C176 -153 191 -165 190 -164 C192 -166 198 -166 199 -169 C200 -172 196 -183 196 -187 C196 -202 168 -245 172 -252 C176 -258 191 -262 196 -257 C204 -249 215 -242 221 -233 L221 -233 Z M64 722 C63 722 63 722 63 721 L64 722 Z " />
<glyph glyph-name="Lacute" unicode="&#x139;" horiz-adv-x="569" d="M51 718 C50 681 50 644 50 608 C50 480 54 356 54 226 L54 111 C53 101 53 92 53 82 L53 67 C53 57 52 41 63 23 L78 9 L85 6 C86 5 86 5 87 5 L96 3 C101 2 105 2 109 2 L129 2 C253 -1 385 -5 502 -5 C512 -5 520 -3 520 8 C520 15 518 24 518 29 C519 35 519 40 519 47 C519 66 504 66 396 66 C371 66 351 62 328 62 C310 62 291 67 271 67 L147 69 C141 69 135 68 129 68 C122 68 120 69 120 77 L120 91 C120 103 115 112 115 124 C115 141 118 163 118 183 C118 204 114 225 114 245 C114 255 118 265 118 277 C118 283 117 289 117 295 L114 556 C114 588 118 621 118 656 C118 723 106 722 62 722 C56 722 51 721 51 718 L51 718 Z M374 886 C374 913 358 932 330 932 C310 932 291 894 266 868 C235 835 195 821 195 805 C195 785 216 784 231 784 C273 784 374 836 374 886 L374 886 Z " />
<glyph glyph-name="lacute" unicode="&#x13a;" horiz-adv-x="344" d="M53 718 C46 496 50 270 50 48 C50 8 69 -1 93 -1 C155 -1 217 -5 279 -5 C281 -5 291 0 293 1 C297 17 294 38 294 55 L288 62 C242 65 195 62 149 62 C139 62 128 64 118 65 C122 106 122 146 122 187 L120 675 C120 704 116 720 83 720 L53 718 Z M261 886 C261 913 245 932 217 932 C197 932 178 894 153 868 C122 835 82 821 82 805 C82 785 103 784 118 784 C160 784 261 836 261 886 L261 886 Z " />
<glyph glyph-name="Lcommaaccent" unicode="&#x13b;" horiz-adv-x="569" d="M51 718 C50 681 50 644 50 608 C50 480 54 356 54 226 L54 111 C53 101 53 92 53 82 L53 67 C53 57 52 41 63 23 L78 9 L85 6 C86 5 86 5 87 5 L96 3 C101 2 105 2 109 2 L129 2 C253 -1 385 -5 502 -5 C512 -5 520 -3 520 8 C520 15 518 24 518 29 C519 35 519 40 519 47 C519 66 504 66 396 66 C371 66 351 62 328 62 C310 62 291 67 271 67 L147 69 C141 69 135 68 129 68 C122 68 120 69 120 77 L120 91 C120 103 115 112 115 124 C115 141 118 163 118 183 C118 204 114 225 114 245 C114 255 118 265 118 277 C118 283 117 289 117 295 L114 556 C114 588 118 621 118 656 C118 723 106 722 62 722 C56 722 51 721 51 718 L51 718 Z M288 -233 C334 -164 323 -148 323 -124 C323 -105 298 -82 279 -82 C264 -82 239 -95 239 -112 C239 -113 241 -116 241 -117 C241 -119 238 -126 238 -127 C238 -133 241 -138 244 -143 L243 -145 C243 -153 258 -165 257 -164 C259 -166 265 -166 266 -169 C267 -172 263 -183 263 -187 C263 -202 235 -245 239 -252 C243 -258 258 -262 263 -257 C271 -249 282 -242 288 -233 L288 -233 Z " />
<glyph glyph-name="lcommaaccent" unicode="&#x13c;" horiz-adv-x="344" d="M53 718 C46 496 50 270 50 48 C50 8 69 -1 93 -1 C155 -1 217 -5 279 -5 C281 -5 291 0 293 1 C297 17 294 38 294 55 L288 62 C242 65 195 62 149 62 C139 62 128 64 118 65 C122 106 122 146 122 187 L120 675 C120 704 116 720 83 720 L53 718 Z M175 -233 C221 -164 210 -148 210 -124 C210 -105 185 -82 166 -82 C151 -82 126 -95 126 -112 C126 -113 128 -116 128 -117 C128 -119 125 -126 125 -127 C125 -133 128 -138 131 -143 L130 -145 C130 -153 145 -165 144 -164 C146 -166 152 -166 153 -169 C154 -172 150 -183 150 -187 C150 -202 122 -245 126 -252 C130 -258 145 -262 150 -257 C158 -249 169 -242 175 -233 L175 -233 Z " />
<glyph glyph-name="Lcaron" unicode="&#x13d;" horiz-adv-x="569" d="M51 718 C50 681 50 644 50 608 C50 480 54 356 54 226 L54 111 C53 101 53 92 53 82 L53 67 C53 57 52 41 63 23 L78 9 L85 6 C86 5 86 5 87 5 L96 3 C101 2 105 2 109 2 L129 2 C253 -1 385 -5 502 -5 C512 -5 520 -3 520 8 C520 15 518 24 518 29 C519 35 519 40 519 47 C519 66 504 66 396 66 C371 66 351 62 328 62 C310 62 291 67 271 67 L147 69 C141 69 135 68 129 68 C122 68 120 69 120 77 L120 91 C120 103 115 112 115 124 C115 141 118 163 118 183 C118 204 114 225 114 245 C114 255 118 265 118 277 C118 283 117 289 117 295 L114 556 C114 588 118 621 118 656 C118 723 106 722 62 722 C56 722 51 721 51 718 L51 718 Z M288 579 C334 648 323 664 323 688 C323 707 298 730 279 730 C264 730 239 717 239 700 C239 699 241 696 241 695 C241 693 238 686 238 685 C238 679 241 674 244 669 L243 667 C243 659 258 647 257 648 C259 646 265 646 266 643 C267 640 263 629 263 625 C263 610 235 567 239 560 C243 554 258 550 263 555 C271 563 282 570 288 579 L288 579 Z " />
<glyph glyph-name="lcaron" unicode="&#x13e;" horiz-adv-x="433" d="M53 718 C46 496 50 270 50 48 C50 8 69 -1 93 -1 C155 -1 217 -5 279 -5 C281 -5 291 0 293 1 C297 17 294 38 294 55 L288 62 C242 65 195 62 149 62 C139 62 128 64 118 65 C122 106 122 146 122 187 L120 675 C120 704 116 720 83 720 L53 718 Z M346 578 C392 647 381 663 381 687 C381 706 356 729 337 729 C322 729 297 716 297 699 C297 698 299 695 299 694 C299 692 296 685 296 684 C296 678 299 673 302 668 L301 666 C301 658 316 646 315 647 C317 645 323 645 324 642 C325 639 321 628 321 624 C321 609 293 566 297 559 C301 553 316 549 321 554 C329 562 340 569 346 578 L346 578 Z " />
<glyph glyph-name="Ldot" unicode="&#x13f;" horiz-adv-x="569" d="M51 718 C50 681 50 644 50 608 C50 480 54 356 54 226 L54 111 C53 101 53 92 53 82 L53 67 C53 57 52 41 63 23 L78 9 L85 6 C86 5 86 5 87 5 L96 3 C101 2 105 2 109 2 L129 2 C253 -1 385 -5 502 -5 C512 -5 520 -3 520 8 C520 15 518 24 518 29 C519 35 519 40 519 47 C519 66 504 66 396 66 C371 66 351 62 328 62 C310 62 291 67 271 67 L147 69 C141 69 135 68 129 68 C122 68 120 69 120 77 L120 91 C120 103 115 112 115 124 C115 141 118 163 118 183 C118 204 114 225 114 245 C114 255 118 265 118 277 C118 283 117 289 117 295 L114 556 C114 588 118 621 118 656 C118 723 106 722 62 722 C56 722 51 721 51 718 L51 718 Z M317 423 C334 423 347 439 352 454 L350 460 C351 464 353 468 353 472 C352 499 335 514 305 514 C303 514 302 513 299 513 C279 513 263 498 263 474 C263 463 265 451 271 443 C278 432 291 423 304 423 L317 423 Z " />
<glyph glyph-name="ldot" unicode="&#x140;" horiz-adv-x="434" d="M53 718 C46 496 50 270 50 48 C50 8 69 -1 93 -1 C155 -1 217 -5 279 -5 C281 -5 291 0 293 1 C297 17 294 38 294 55 L288 62 C242 65 195 62 149 62 C139 62 128 64 118 65 C122 106 122 146 122 187 L120 675 C120 704 116 720 83 720 L53 718 Z M348 347 C365 347 378 363 383 378 L381 384 C382 388 384 392 384 396 C383 423 366 438 336 438 C334 438 333 437 330 437 C310 437 294 422 294 398 C294 387 296 375 302 367 C309 356 322 347 335 347 L348 347 Z " />
<glyph glyph-name="Lslash" unicode="&#x141;" horiz-adv-x="569" d="M258 354 C219 349 166 341 116 333 L114 556 C114 588 118 621 118 656 C118 723 106 722 62 722 C56 722 51 721 51 718 C50 681 50 644 50 608 C50 512 52 418 53 322 L21 316 C-2 312 -72 302 -80 303 L-86 297 L-85 288 L-76 240 L-76 241 L-74 236 C-51 236 -28 243 -5 247 L54 257 L54 111 C53 101 53 92 53 82 L53 67 C53 57 52 41 63 23 L78 9 L85 6 C86 5 86 5 87 5 L96 3 C101 2 105 2 109 2 L129 2 C253 -1 385 -5 502 -5 C512 -5 520 -3 520 8 C520 15 518 24 518 29 C519 35 519 40 519 47 C519 66 504 66 396 66 C371 66 351 62 328 62 C310 62 291 67 271 67 L147 69 C141 69 135 68 129 68 C122 68 120 69 120 77 L120 91 C120 103 115 112 115 124 C115 141 118 163 118 183 C118 204 114 225 114 245 C114 252 116 259 117 266 C184 276 247 283 245 283 C266 287 269 294 265 315 L258 354 Z " />
<glyph glyph-name="lslash" unicode="&#x142;" horiz-adv-x="344" d="M53 718 C49 586 49 453 49 321 L21 316 C-2 312 -72 302 -80 303 L-86 297 L-85 288 L-76 240 L-76 241 L-74 236 C-51 236 -28 243 -5 247 L50 256 L50 48 C50 8 69 -1 93 -1 C155 -1 217 -5 279 -5 C281 -5 291 0 293 1 C297 17 294 38 294 55 L288 62 C242 65 195 62 149 62 C139 62 128 64 118 65 C122 106 122 146 122 187 L121 266 C187 276 247 283 245 283 C266 287 269 294 265 315 L258 354 C220 349 170 341 121 334 L120 675 C120 704 116 720 83 720 L53 718 L53 718 Z " />
<glyph glyph-name="Nacute" unicode="&#x143;" horiz-adv-x="642" d="M131 5 C131 211 122 415 116 620 L117 642 L120 641 C215 542 307 439 401 338 C442 294 480 248 522 206 C522 173 524 140 524 107 C524 84 519 62 519 39 C519 -5 538 -2 576 -2 C593 -2 588 66 588 89 C588 166 584 243 584 320 C584 450 594 580 594 710 C594 719 586 721 577 721 C570 721 563 720 559 720 C551 720 542 721 534 721 C525 713 523 693 523 671 C523 646 526 620 526 607 C526 552 518 495 518 440 C518 422 523 405 523 387 C523 379 520 370 520 362 C520 344 524 326 524 308 L523 305 C491 339 456 369 426 404 C374 464 163 711 103 737 C102 737 91 739 89 740 C74 737 58 729 54 713 L53 712 C50 705 50 697 50 689 C50 657 58 622 58 590 C58 581 55 571 55 562 C55 451 63 339 63 228 L63 65 C63 25 67 -1 120 -1 C124 -1 131 -1 131 5 L131 5 Z M410 886 C410 913 394 932 366 932 C346 932 327 894 302 868 C271 835 231 821 231 805 C231 785 252 784 267 784 C309 784 410 836 410 886 L410 886 Z " />
<glyph glyph-name="nacute" unicode="&#x144;" horiz-adv-x="555" d="M508 266 C508 419 520 728 304 728 C217 728 144 658 117 580 L118 674 C118 707 119 720 81 720 L50 718 L50 696 C50 467 61 240 53 10 L59 0 L68 -1 L116 1 L120 5 C123 42 120 78 120 115 C120 309 103 660 317 660 C488 660 438 182 438 66 C438 19 440 -1 493 -1 C497 -1 503 3 506 4 L508 266 Z M367 886 C367 913 351 932 323 932 C303 932 284 894 259 868 C228 835 188 821 188 805 C188 785 209 784 224 784 C266 784 367 836 367 886 L367 886 Z " />
<glyph glyph-name="Ncommaaccent" unicode="&#x145;" horiz-adv-x="642" d="M131 5 C131 211 122 415 116 620 L117 642 L120 641 C215 542 307 439 401 338 C442 294 480 248 522 206 C522 173 524 140 524 107 C524 84 519 62 519 39 C519 -5 538 -2 576 -2 C593 -2 588 66 588 89 C588 166 584 243 584 320 C584 450 594 580 594 710 C594 719 586 721 577 721 C570 721 563 720 559 720 C551 720 542 721 534 721 C525 713 523 693 523 671 C523 646 526 620 526 607 C526 552 518 495 518 440 C518 422 523 405 523 387 C523 379 520 370 520 362 C520 344 524 326 524 308 L523 305 C491 339 456 369 426 404 C374 464 163 711 103 737 C102 737 91 739 89 740 C74 737 58 729 54 713 L53 712 C50 705 50 697 50 689 C50 657 58 622 58 590 C58 581 55 571 55 562 C55 451 63 339 63 228 L63 65 C63 25 67 -1 120 -1 C124 -1 131 -1 131 5 L131 5 Z M324 -233 C370 -164 359 -148 359 -124 C359 -105 334 -82 315 -82 C300 -82 275 -95 275 -112 C275 -113 277 -116 277 -117 C277 -119 274 -126 274 -127 C274 -133 277 -138 280 -143 L279 -145 C279 -153 294 -165 293 -164 C295 -166 301 -166 302 -169 C303 -172 299 -183 299 -187 C299 -202 271 -245 275 -252 C279 -258 294 -262 299 -257 C307 -249 318 -242 324 -233 L324 -233 Z " />
<glyph glyph-name="ncommaaccent" unicode="&#x146;" horiz-adv-x="555" d="M508 266 C508 419 520 728 304 728 C217 728 144 658 117 580 L118 674 C118 707 119 720 81 720 L50 718 L50 696 C50 467 61 240 53 10 L59 0 L68 -1 L116 1 L120 5 C123 42 120 78 120 115 C120 309 103 660 317 660 C488 660 438 182 438 66 C438 19 440 -1 493 -1 C497 -1 503 3 506 4 L508 266 Z M281 -233 C327 -164 316 -148 316 -124 C316 -105 291 -82 272 -82 C257 -82 232 -95 232 -112 C232 -113 234 -116 234 -117 C234 -119 231 -126 231 -127 C231 -133 234 -138 237 -143 L236 -145 C236 -153 251 -165 250 -164 C252 -166 258 -166 259 -169 C260 -172 256 -183 256 -187 C256 -202 228 -245 232 -252 C236 -258 251 -262 256 -257 C264 -249 275 -242 281 -233 L281 -233 Z " />
<glyph glyph-name="Ncaron" unicode="&#x147;" horiz-adv-x="642" d="M131 5 C131 211 122 415 116 620 L117 642 L120 641 C215 542 307 439 401 338 C442 294 480 248 522 206 C522 173 524 140 524 107 C524 84 519 62 519 39 C519 -5 538 -2 576 -2 C593 -2 588 66 588 89 C588 166 584 243 584 320 C584 450 594 580 594 710 C594 719 586 721 577 721 C570 721 563 720 559 720 C551 720 542 721 534 721 C525 713 523 693 523 671 C523 646 526 620 526 607 C526 552 518 495 518 440 C518 422 523 405 523 387 C523 379 520 370 520 362 C520 344 524 326 524 308 L523 305 C491 339 456 369 426 404 C374 464 163 711 103 737 C102 737 91 739 89 740 C74 737 58 729 54 713 L53 712 C50 705 50 697 50 689 C50 657 58 622 58 590 C58 581 55 571 55 562 C55 451 63 339 63 228 L63 65 C63 25 67 -1 120 -1 C124 -1 131 -1 131 5 L131 5 Z M250 847 C270 826 287 784 320 784 C353 784 368 823 391 847 C422 880 462 894 462 910 C462 930 441 931 426 931 C400 931 353 882 320 856 C287 882 240 931 215 931 C200 931 179 930 179 910 C179 894 219 880 250 847 L250 847 Z " />
<glyph glyph-name="ncaron" unicode="&#x148;" horiz-adv-x="555" d="M508 266 C508 419 520 728 304 728 C217 728 144 658 117 580 L118 674 C118 707 119 720 81 720 L50 718 L50 696 C50 467 61 240 53 10 L59 0 L68 -1 L116 1 L120 5 C123 42 120 78 120 115 C120 309 103 660 317 660 C488 660 438 182 438 66 C438 19 440 -1 493 -1 C497 -1 503 3 506 4 L508 266 Z M207 847 C227 826 244 784 277 784 C310 784 325 823 348 847 C379 880 419 894 419 910 C419 930 398 931 383 931 C357 931 310 882 277 856 C244 882 197 931 172 931 C157 931 136 930 136 910 C136 894 176 880 207 847 L207 847 Z " />
<glyph glyph-name="napostrophe" unicode="&#x149;" horiz-adv-x="555" d="M508 266 C508 419 520 728 304 728 C217 728 144 658 117 580 L118 674 C118 707 119 720 81 720 L50 718 L50 696 C50 467 61 240 53 10 L59 0 L68 -1 L116 1 L120 5 C123 42 120 78 120 115 C120 309 103 660 317 660 C488 660 438 182 438 66 C438 19 440 -1 493 -1 C497 -1 503 3 506 4 L508 266 Z M103 876 C149 945 138 961 138 985 C138 1004 113 1027 94 1027 C79 1027 54 1014 54 997 C54 996 56 993 56 992 C56 990 53 983 53 982 C53 976 56 971 59 966 L58 964 C58 956 73 944 72 945 C74 943 80 943 81 940 C82 937 78 926 78 922 C78 907 50 864 54 857 C58 851 73 847 78 852 C86 860 97 867 103 876 L103 876 Z " />
<glyph glyph-name="Eng" unicode="&#x14a;" horiz-adv-x="642" d="M131 5 C131 211 122 415 116 620 L117 642 L120 641 C215 542 307 439 401 338 C442 294 480 248 522 206 C522 173 524 140 524 107 C524 77 525 2 528 -43 C526 -132 508 -232 420 -232 C326 -232 324 -158 312 -89 L307 -82 L293 -81 C281 -81 265 -81 253 -82 L246 -90 L245 -102 C245 -169 271 -231 327 -269 L345 -279 C372 -291 394 -299 424 -299 C527 -299 593 -190 593 -97 C593 67 588 280 588 445 C589 530 594 620 594 710 C594 719 586 721 577 721 C561 721 550 719 534 721 C525 713 523 693 523 671 C523 646 526 620 526 607 C529 588 514 346 524 308 L523 305 C491 339 456 369 426 404 C374 464 163 711 103 737 C102 737 91 739 89 740 C74 737 58 729 54 713 L53 712 C50 705 50 697 50 689 C60 575 63 330 63 228 L63 65 C63 25 67 -1 120 -1 C124 -1 131 -1 131 5 L131 5 Z " />
<glyph glyph-name="eng" unicode="&#x14b;" horiz-adv-x="555" d="M508 266 C508 419 520 728 304 728 C217 728 144 658 117 580 L118 674 C118 707 119 720 81 720 L50 718 L50 696 C50 467 61 240 53 10 L59 0 L68 -1 L116 1 L120 5 C123 42 120 78 120 115 C120 253 111 660 317 660 C413 660 439 509 444 356 C441 261 437 180 437 74 C437 -4 425 -178 307 -171 L303 -176 L313 -237 C313 -236 320 -243 323 -243 C465 -243 501 -75 501 27 L508 266 Z " />
<glyph glyph-name="Omacron" unicode="&#x14c;" horiz-adv-x="750" d="M52 340 C52 153 184 -2 377 -2 C604 -2 700 173 700 376 C700 570 574 728 372 728 C166 728 52 543 52 340 L52 340 Z M388 664 C556 664 636 513 636 364 C636 270 594 127 496 93 C494 90 474 83 470 81 C470 81 406 66 387 66 C254 66 175 122 132 250 C113 305 111 380 119 436 C145 599 261 664 388 664 L388 664 Z M560 885 C493 889 367 889 300 889 C277 889 205 891 198 894 L191 888 L190 879 L191 831 L191 832 L193 827 C216 823 239 826 262 826 C299 826 338 820 375 820 C541 820 497 818 534 818 C556 818 560 825 560 846 L560 885 Z " />
<glyph glyph-name="omacron" unicode="&#x14d;" horiz-adv-x="507" d="M256 -1 C429 -1 458 239 458 369 C458 495 416 718 252 718 C111 718 50 527 50 412 C50 276 68 -1 256 -1 L256 -1 Z M247 654 C371 654 394 458 394 366 C394 284 371 67 258 67 C119 67 118 318 118 413 C118 484 156 654 247 654 L247 654 Z M438 881 C371 885 245 885 178 885 C155 885 83 887 76 890 L69 884 L68 875 L69 827 L69 828 L71 823 C94 819 117 822 140 822 C177 822 216 816 253 816 C419 816 375 814 412 814 C434 814 438 821 438 842 L438 881 Z " />
<glyph glyph-name="Obreve" unicode="&#x14e;" horiz-adv-x="750" d="M52 340 C52 153 184 -2 377 -2 C604 -2 700 173 700 376 C700 570 574 728 372 728 C166 728 52 543 52 340 L52 340 Z M388 664 C556 664 636 513 636 364 C636 270 594 127 496 93 C494 90 474 83 470 81 C470 81 406 66 387 66 C254 66 175 122 132 250 C113 305 111 380 119 436 C145 599 261 664 388 664 L388 664 Z M420 901 C425 883 406 852 375 852 C338 852 321 869 324 898 C328 936 275 962 275 895 C275 837 312 797 372 797 C425 797 474 840 474 896 C474 958 408 949 420 901 L420 901 Z " />
<glyph glyph-name="obreve" unicode="&#x14f;" horiz-adv-x="507" d="M256 -1 C429 -1 458 239 458 369 C458 495 416 718 252 718 C111 718 50 527 50 412 C50 276 68 -1 256 -1 L256 -1 Z M247 654 C371 654 394 458 394 366 C394 284 371 67 258 67 C119 67 118 318 118 413 C118 484 156 654 247 654 L247 654 Z M299 901 C304 883 285 852 254 852 C217 852 200 869 203 898 C207 936 154 962 154 895 C154 837 191 797 251 797 C304 797 353 840 353 896 C353 958 287 949 299 901 L299 901 Z " />
<glyph glyph-name="Ohungarumlaut" unicode="&#x150;" horiz-adv-x="750" d="M52 340 C52 153 184 -2 377 -2 C604 -2 700 173 700 376 C700 570 574 728 372 728 C166 728 52 543 52 340 L52 340 Z M388 664 C556 664 636 513 636 364 C636 270 594 127 496 93 C494 90 474 83 470 81 C470 81 406 66 387 66 C254 66 175 122 132 250 C113 305 111 380 119 436 C145 599 261 664 388 664 L388 664 Z M371 890 C371 917 355 936 327 936 C307 936 288 898 263 872 C232 839 192 825 192 809 C192 789 213 788 228 788 C270 788 371 840 371 890 L371 890 Z M558 890 C558 917 542 936 514 936 C494 936 475 898 450 872 C419 839 379 825 379 809 C379 789 400 788 415 788 C457 788 558 840 558 890 L558 890 Z " />
<glyph glyph-name="ohungarumlaut" unicode="&#x151;" horiz-adv-x="507" d="M256 -1 C429 -1 458 239 458 369 C458 495 416 718 252 718 C111 718 50 527 50 412 C50 276 68 -1 256 -1 L256 -1 Z M247 654 C371 654 394 458 394 366 C394 284 371 67 258 67 C119 67 118 318 118 413 C118 484 156 654 247 654 L247 654 Z M249 886 C249 913 233 932 205 932 C185 932 166 894 141 868 C110 835 70 821 70 805 C70 785 91 784 106 784 C148 784 249 836 249 886 L249 886 Z M436 886 C436 913 420 932 392 932 C372 932 353 894 328 868 C297 835 257 821 257 805 C257 785 278 784 293 784 C335 784 436 836 436 886 L436 886 Z " />
<glyph glyph-name="OE" unicode="&#x152;" horiz-adv-x="694" d="M629 72 C575 70 521 65 467 65 L465 67 C471 145 459 224 459 302 C470 296 483 296 495 296 C512 296 548 292 562 298 C570 301 570 326 570 333 L569 363 L510 361 C493 361 476 366 459 367 C459 465 464 563 464 661 C518 661 573 658 627 658 L646 672 L644 718 L637 725 C579 728 522 730 464 730 C417 730 399 688 392 636 C361 684 315 718 252 718 C111 718 50 527 50 412 C50 276 68 -1 256 -1 C324 -1 370 37 401 90 L401 47 C401 1 436 -2 473 -2 L555 -2 C591 -2 634 4 634 49 C634 56 631 65 629 72 L629 72 Z M247 654 C371 654 394 458 394 366 C394 284 371 67 258 67 C119 67 118 318 118 413 C118 484 156 654 247 654 L247 654 Z " />
<glyph glyph-name="oe" unicode="&#x153;" horiz-adv-x="694" d="M629 72 C575 70 521 65 467 65 L465 67 C471 145 459 224 459 302 C470 296 483 296 495 296 C512 296 548 292 562 298 C570 301 570 326 570 333 L569 363 L510 361 C493 361 476 366 459 367 C459 465 464 563 464 661 C518 661 573 658 627 658 L646 672 L644 718 L637 725 C579 728 522 730 464 730 C417 730 399 688 392 636 C361 684 315 718 252 718 C111 718 50 527 50 412 C50 276 68 -1 256 -1 C324 -1 370 37 401 90 L401 47 C401 1 436 -2 473 -2 L555 -2 C591 -2 634 4 634 49 C634 56 631 65 629 72 L629 72 Z M247 654 C371 654 394 458 394 366 C394 284 371 67 258 67 C119 67 118 318 118 413 C118 484 156 654 247 654 L247 654 Z " />
<glyph glyph-name="Racute" unicode="&#x154;" horiz-adv-x="647" d="M139 12 C139 83 123 156 123 229 L123 250 C166 250 213 246 258 246 C282 246 307 247 330 251 C365 163 426 104 436 88 C458 59 527 -20 534 -20 C547 -20 576 15 583 23 C549 61 511 95 479 135 C447 175 426 222 398 265 C512 313 597 347 597 493 C597 498 597 579 584 587 C548 684 424 729 327 729 C282 729 237 721 192 721 C164 721 140 723 114 723 C92 723 50 726 50 690 C50 552 58 414 58 276 L58 191 C58 159 58 22 85 7 C92 3 113 2 121 2 C128 2 139 3 139 12 L139 12 Z M253 315 C209 316 165 314 121 318 C121 432 114 546 114 660 L114 661 C167 661 221 665 274 665 L321 665 C398 665 530 621 530 526 C530 496 522 465 522 435 C522 383 409 330 371 323 C329 315 292 315 253 315 L253 315 Z M413 890 C413 917 397 936 369 936 C349 936 330 898 305 872 C274 839 234 825 234 809 C234 789 255 788 270 788 C312 788 413 840 413 890 L413 890 Z " />
<glyph glyph-name="racute" unicode="&#x155;" horiz-adv-x="363" d="M133 9 C133 44 118 76 118 111 L117 268 C133 273 149 281 164 289 C202 116 244 14 252 -7 L308 11 C279 116 236 218 226 327 C286 378 313 457 313 534 C313 638 219 730 116 730 C43 730 50 694 50 628 L51 100 L52 99 C52 64 57 2 104 2 C114 2 124 5 133 9 L133 9 Z M114 663 L116 664 C193 664 246 591 246 519 C246 408 196 395 116 340 C116 419 114 499 114 578 L114 663 Z M271 886 C271 913 255 932 227 932 C207 932 188 894 163 868 C132 835 92 821 92 805 C92 785 113 784 128 784 C170 784 271 836 271 886 L271 886 Z " />
<glyph glyph-name="Rcommaaccent" unicode="&#x156;" horiz-adv-x="647" d="M139 12 C139 83 123 156 123 229 L123 250 C166 250 213 246 258 246 C282 246 307 247 330 251 C365 163 426 104 436 88 C458 59 527 -20 534 -20 C547 -20 576 15 583 23 C549 61 511 95 479 135 C447 175 426 222 398 265 C512 313 597 347 597 493 C597 498 597 579 584 587 C548 684 424 729 327 729 C282 729 237 721 192 721 C164 721 140 723 114 723 C92 723 50 726 50 690 C50 552 58 414 58 276 L58 191 C58 159 58 22 85 7 C92 3 113 2 121 2 C128 2 139 3 139 12 L139 12 Z M253 315 C209 316 165 314 121 318 C121 432 114 546 114 660 L114 661 C167 661 221 665 274 665 L321 665 C398 665 530 621 530 526 C530 496 522 465 522 435 C522 383 409 330 371 323 C329 315 292 315 253 315 L253 315 Z M327 -233 C373 -164 362 -148 362 -124 C362 -105 337 -82 318 -82 C303 -82 278 -95 278 -112 C278 -113 280 -116 280 -117 C280 -119 277 -126 277 -127 C277 -133 280 -138 283 -143 L282 -145 C282 -153 297 -165 296 -164 C298 -166 304 -166 305 -169 C306 -172 302 -183 302 -187 C302 -202 274 -245 278 -252 C282 -258 297 -262 302 -257 C310 -249 321 -242 327 -233 L327 -233 Z " />
<glyph glyph-name="rcommaaccent" unicode="&#x157;" horiz-adv-x="363" d="M133 9 C133 44 118 76 118 111 L117 268 C133 273 149 281 164 289 C202 116 244 14 252 -7 L308 11 C279 116 236 218 226 327 C286 378 313 457 313 534 C313 638 219 730 116 730 C43 730 50 694 50 628 L51 100 L52 99 C52 64 57 2 104 2 C114 2 124 5 133 9 L133 9 Z M114 663 L116 664 C193 664 246 591 246 519 C246 408 196 395 116 340 C116 419 114 499 114 578 L114 663 Z M185 -233 C231 -164 220 -148 220 -124 C220 -105 195 -82 176 -82 C161 -82 136 -95 136 -112 C136 -113 138 -116 138 -117 C138 -119 135 -126 135 -127 C135 -133 138 -138 141 -143 L140 -145 C140 -153 155 -165 154 -164 C156 -166 162 -166 163 -169 C164 -172 160 -183 160 -187 C160 -202 132 -245 136 -252 C140 -258 155 -262 160 -257 C168 -249 179 -242 185 -233 L185 -233 Z " />
<glyph glyph-name="Rcaron" unicode="&#x158;" horiz-adv-x="647" d="M139 12 C139 83 123 156 123 229 L123 250 C166 250 213 246 258 246 C282 246 307 247 330 251 C365 163 426 104 436 88 C458 59 527 -20 534 -20 C547 -20 576 15 583 23 C549 61 511 95 479 135 C447 175 426 222 398 265 C512 313 597 347 597 493 C597 498 597 579 584 587 C548 684 424 729 327 729 C282 729 237 721 192 721 C164 721 140 723 114 723 C92 723 50 726 50 690 C50 552 58 414 58 276 L58 191 C58 159 58 22 85 7 C92 3 113 2 121 2 C128 2 139 3 139 12 L139 12 Z M253 315 C209 316 165 314 121 318 C121 432 114 546 114 660 L114 661 C167 661 221 665 274 665 L321 665 C398 665 530 621 530 526 C530 496 522 465 522 435 C522 383 409 330 371 323 C329 315 292 315 253 315 L253 315 Z M253 851 C273 830 290 788 323 788 C356 788 371 827 394 851 C425 884 465 898 465 914 C465 934 444 935 429 935 C403 935 356 886 323 860 C290 886 243 935 218 935 C203 935 182 934 182 914 C182 898 222 884 253 851 L253 851 Z " />
<glyph glyph-name="rcaron" unicode="&#x159;" horiz-adv-x="363" d="M133 9 C133 44 118 76 118 111 L117 268 C133 273 149 281 164 289 C202 116 244 14 252 -7 L308 11 C279 116 236 218 226 327 C286 378 313 457 313 534 C313 638 219 730 116 730 C43 730 50 694 50 628 L51 100 L52 99 C52 64 57 2 104 2 C114 2 124 5 133 9 L133 9 Z M114 663 L116 664 C193 664 246 591 246 519 C246 408 196 395 116 340 C116 419 114 499 114 578 L114 663 Z M111 847 C131 826 148 784 181 784 C214 784 229 823 252 847 C283 880 323 894 323 910 C323 930 302 931 287 931 C261 931 214 882 181 856 C148 882 101 931 76 931 C61 931 40 930 40 910 C40 894 80 880 111 847 L111 847 Z " />
<glyph glyph-name="Sacute" unicode="&#x15a;" horiz-adv-x="519" d="M66 90 C109 31 201 0 271 0 C315 0 343 10 378 28 C455 67 470 110 470 205 C470 234 460 254 449 276 C431 312 408 326 371 348 C289 396 117 414 117 535 C117 621 191 661 268 661 C347 661 369 609 414 593 C422 596 447 619 456 627 L454 640 C419 688 336 726 277 726 C143 726 50 664 50 520 C50 447 100 397 157 369 C251 323 406 314 406 181 C406 116 339 65 278 65 L264 64 C192 64 142 121 108 124 C101 122 71 104 67 101 L66 90 Z M349 886 C349 913 333 932 305 932 C285 932 266 894 241 868 C210 835 170 821 170 805 C170 785 191 784 206 784 C248 784 349 836 349 886 L349 886 Z " />
<glyph glyph-name="sacute" unicode="&#x15b;" horiz-adv-x="343" d="M54 100 C54 32 122 0 182 0 C273 0 295 111 295 182 C295 387 117 366 117 545 C117 581 125 661 175 661 C230 661 217 624 232 613 L246 613 C259 613 273 615 286 614 C289 615 293 622 293 624 C293 682 238 728 182 728 C82 728 50 623 50 543 C50 317 231 378 231 178 C231 142 226 65 175 65 C126 65 122 89 114 117 C113 121 55 113 54 110 L54 100 Z M261 886 C261 913 245 932 217 932 C197 932 178 894 153 868 C122 835 82 821 82 805 C82 785 103 784 118 784 C160 784 261 836 261 886 L261 886 Z " />
<glyph glyph-name="Scircumflex" unicode="&#x15c;" horiz-adv-x="519" d="M66 90 C109 31 201 0 271 0 C315 0 343 10 378 28 C455 67 470 110 470 205 C470 234 460 254 449 276 C431 312 408 326 371 348 C289 396 117 414 117 535 C117 621 191 661 268 661 C347 661 369 609 414 593 C422 596 447 619 456 627 L454 640 C419 688 336 726 277 726 C143 726 50 664 50 520 C50 447 100 397 157 369 C251 323 406 314 406 181 C406 116 339 65 278 65 L264 64 C192 64 142 121 108 124 C101 122 71 104 67 101 L66 90 Z M189 868 C158 835 118 821 118 805 C118 785 139 784 154 784 C179 784 226 833 259 859 C292 833 339 784 365 784 C380 784 401 785 401 805 C401 821 361 835 330 868 C307 892 292 931 259 931 C226 931 209 889 189 868 L189 868 Z " />
<glyph glyph-name="scircumflex" unicode="&#x15d;" horiz-adv-x="343" d="M54 100 C54 32 122 0 182 0 C273 0 295 111 295 182 C295 387 117 366 117 545 C117 565 119 598 130 624 C144 637 159 649 171 659 C204 633 251 584 277 584 C292 584 313 585 313 605 C313 612 304 619 293 627 C291 682 240 725 186 728 C182 730 176 731 171 731 C162 731 155 728 148 723 C106 711 80 678 66 638 C46 624 30 615 30 605 C30 590 41 586 53 584 C51 570 50 556 50 543 C50 317 231 378 231 178 C231 142 226 65 175 65 C126 65 122 89 114 117 C113 121 55 113 54 110 L54 100 Z " />
<glyph glyph-name="Scedilla" unicode="&#x15e;" horiz-adv-x="519" d="M66 90 C95 49 148 22 201 9 L201 -23 C201 -131 290 -68 290 -138 C290 -175 272 -189 236 -189 C228 -189 221 -182 213 -177 C206 -173 168 -213 165 -222 C177 -238 200 -254 221 -254 C281 -254 354 -233 354 -160 C354 -31 273 -45 267 -27 C265 -20 265 -10 265 0 L271 0 C315 0 343 10 378 28 C455 67 470 110 470 205 C470 234 460 254 449 276 C431 312 408 326 371 348 C289 396 117 414 117 535 C117 621 191 661 268 661 C347 661 369 609 414 593 C422 596 447 619 456 627 L454 640 C419 688 336 726 277 726 C143 726 50 664 50 520 C50 447 100 397 157 369 C251 323 406 314 406 181 C406 116 339 65 278 65 L264 64 C192 64 142 121 108 124 C101 122 71 104 67 101 L66 90 Z " />
<glyph glyph-name="scedilla" unicode="&#x15f;" horiz-adv-x="343" d="M54 100 C54 58 79 30 113 14 C112 2 113 -10 113 -23 C113 -131 202 -68 202 -138 C202 -175 184 -189 148 -189 C140 -189 133 -182 125 -177 C118 -173 80 -213 77 -222 C89 -238 112 -254 133 -254 C193 -254 266 -233 266 -160 C266 -31 185 -45 179 -27 C177 -20 177 -10 177 0 L182 0 C273 0 295 111 295 182 C295 387 117 366 117 545 C117 581 125 661 175 661 C230 661 217 624 232 613 L246 613 C259 613 273 615 286 614 C289 615 293 622 293 624 C293 682 238 728 182 728 C82 728 50 623 50 543 C50 317 231 378 231 178 C231 142 226 65 175 65 C126 65 122 89 114 117 C113 121 55 113 54 110 L54 100 Z " />
<glyph glyph-name="Scaron" unicode="&#x160;" horiz-adv-x="519" d="M66 90 C109 31 201 0 271 0 C315 0 343 10 378 28 C455 67 470 110 470 205 C470 234 460 254 449 276 C431 312 408 326 371 348 C289 396 117 414 117 535 C117 621 191 661 268 661 C347 661 369 609 414 593 C422 596 447 619 456 627 L454 640 C419 688 336 726 277 726 C143 726 50 664 50 520 C50 447 100 397 157 369 C251 323 406 314 406 181 C406 116 339 65 278 65 L264 64 C192 64 142 121 108 124 C101 122 71 104 67 101 L66 90 Z M189 847 C209 826 226 784 259 784 C292 784 307 823 330 847 C361 880 401 894 401 910 C401 930 380 931 365 931 C339 931 292 882 259 856 C226 882 179 931 154 931 C139 931 118 930 118 910 C118 894 158 880 189 847 L189 847 Z " />
<glyph glyph-name="scaron" unicode="&#x161;" horiz-adv-x="343" d="M54 100 C54 32 122 0 182 0 C273 0 295 111 295 182 C295 387 117 366 117 545 C117 581 125 661 175 661 C230 661 217 624 232 613 L246 613 C259 613 273 615 286 614 C289 615 293 622 293 624 C293 682 238 728 182 728 C82 728 50 623 50 543 C50 317 231 378 231 178 C231 142 226 65 175 65 C126 65 122 89 114 117 C113 121 55 113 54 110 L54 100 Z M101 847 C121 826 138 784 171 784 C204 784 219 823 242 847 C273 880 313 894 313 910 C313 930 292 931 277 931 C251 931 204 882 171 856 C138 882 91 931 66 931 C51 931 30 930 30 910 C30 894 70 880 101 847 L101 847 Z " />
<glyph glyph-name="Tcommaaccent" unicode="&#x162;" horiz-adv-x="570" d="M519 723 L489 724 C374 724 260 719 146 719 C117 719 89 719 60 720 L50 714 L50 657 L52 658 L55 653 C62 651 69 651 76 651 C93 651 110 654 127 654 C166 654 207 647 246 647 C246 624 248 602 248 580 C248 523 239 465 239 408 C239 383 242 359 242 333 C242 314 241 279 241 238 C241 136 246 -1 278 -1 C294 -1 310 3 325 7 C313 108 306 204 306 306 C306 422 308 539 314 655 C327 653 336 653 342 653 C392 653 442 656 492 656 C513 656 520 661 520 684 L519 723 Z M288 -233 C334 -164 323 -148 323 -124 C323 -105 298 -82 279 -82 C264 -82 239 -95 239 -112 C239 -113 241 -116 241 -117 C241 -119 238 -126 238 -127 C238 -133 241 -138 244 -143 L243 -145 C243 -153 258 -165 257 -164 C259 -166 265 -166 266 -169 C267 -172 263 -183 263 -187 C263 -202 235 -245 239 -252 C243 -258 258 -262 263 -257 C271 -249 282 -242 288 -233 L288 -233 Z " />
<glyph glyph-name="tcommaaccent" unicode="&#x163;" horiz-adv-x="568" d="M454 221 C449 148 424 63 336 63 C245 63 223 155 223 227 C223 309 225 392 227 474 C284 484 331 475 394 475 C438 475 518 456 518 513 L517 534 C445 538 372 541 300 541 L228 542 C228 597 232 651 232 706 C232 710 227 717 226 720 L218 722 L169 719 L165 714 C159 658 164 601 164 545 C147 546 67 547 58 550 L51 544 L50 534 L51 488 L53 483 C89 479 123 481 159 477 C159 419 156 361 156 303 C156 181 169 0 335 0 C436 0 518 92 518 191 C518 223 494 225 468 225 C464 225 458 222 454 221 L454 221 Z M287 -233 C333 -164 322 -148 322 -124 C322 -105 297 -82 278 -82 C263 -82 238 -95 238 -112 C238 -113 240 -116 240 -117 C240 -119 237 -126 237 -127 C237 -133 240 -138 243 -143 L242 -145 C242 -153 257 -165 256 -164 C258 -166 264 -166 265 -169 C266 -172 262 -183 262 -187 C262 -202 234 -245 238 -252 C242 -258 257 -262 262 -257 C270 -249 281 -242 287 -233 L287 -233 Z " />
<glyph glyph-name="Tcaron" unicode="&#x164;" horiz-adv-x="570" d="M519 723 L489 724 C374 724 260 719 146 719 C117 719 89 719 60 720 L50 714 L50 657 L52 658 L55 653 C62 651 69 651 76 651 C93 651 110 654 127 654 C166 654 207 647 246 647 C246 624 248 602 248 580 C248 523 239 465 239 408 C239 383 242 359 242 333 C242 314 241 279 241 238 C241 136 246 -1 278 -1 C294 -1 310 3 325 7 C313 108 306 204 306 306 C306 422 308 539 314 655 C327 653 336 653 342 653 C392 653 442 656 492 656 C513 656 520 661 520 684 L519 723 Z M214 851 C234 830 251 788 284 788 C317 788 332 827 355 851 C386 884 426 898 426 914 C426 934 405 935 390 935 C364 935 317 886 284 860 C251 886 204 935 179 935 C164 935 143 934 143 914 C143 898 183 884 214 851 L214 851 Z " />
<glyph glyph-name="tcaron" unicode="&#x165;" horiz-adv-x="570" d="M454 221 C449 148 424 63 336 63 C245 63 223 155 223 227 C223 309 225 392 227 474 C284 484 331 475 394 475 C438 475 518 456 518 513 L517 534 C445 538 372 541 300 541 L228 542 C228 597 232 651 232 706 C232 710 227 717 226 720 L218 722 L169 719 L165 714 C159 658 164 601 164 545 C147 546 67 547 58 550 L51 544 L50 534 L51 488 L53 483 C89 479 123 481 159 477 C159 419 156 361 156 303 C156 181 169 0 335 0 C436 0 518 92 518 191 C518 223 494 225 468 225 C464 225 458 222 454 221 L454 221 Z M482 722 C528 791 517 807 517 831 C517 850 492 873 473 873 C458 873 433 860 433 843 C433 842 435 839 435 838 C435 836 432 829 432 828 C432 822 435 817 438 812 L437 810 C437 802 452 790 451 791 C453 789 459 789 460 786 C461 783 457 772 457 768 C457 753 429 710 433 703 C437 697 452 693 457 698 C465 706 476 713 482 722 L482 722 Z " />
<glyph glyph-name="Tbar" unicode="&#x166;" horiz-adv-x="570" d="M519 723 L489 724 C374 724 260 719 146 719 C117 719 89 719 60 720 L50 714 L50 657 L52 658 L55 653 C62 651 69 651 76 651 C93 651 110 654 127 654 C166 654 207 647 246 647 C246 624 248 602 248 580 C248 524 239 467 239 412 L210 412 C187 412 115 414 108 417 L101 411 L100 402 L101 354 L101 355 L103 350 C126 346 149 349 172 349 C195 349 218 347 242 345 L242 333 C242 314 241 279 241 238 C241 136 246 -1 278 -1 C294 -1 310 3 325 7 C313 108 306 204 306 306 L306 343 C442 343 409 341 444 341 C466 341 470 348 470 369 L470 408 C428 410 365 411 306 412 C307 493 310 574 314 655 C327 653 336 653 342 653 C392 653 442 656 492 656 C513 656 520 661 520 684 L519 723 Z " />
<glyph glyph-name="tbar" unicode="&#x167;" horiz-adv-x="568" d="M500 396 C446 399 314 400 225 400 C225 425 226 449 227 474 C284 484 331 475 394 475 C438 475 518 456 518 513 L517 534 C445 538 372 541 300 541 L228 542 C228 597 232 651 232 706 C232 710 227 717 226 720 L218 722 L169 719 L165 714 C159 658 164 601 164 545 C147 546 67 547 58 550 L51 544 L50 534 L51 488 L53 483 C89 479 123 481 159 477 C159 451 158 425 158 400 C133 400 65 402 58 405 L51 399 L50 390 L51 342 L51 343 L53 338 C76 334 99 337 122 337 C133 337 144 337 156 336 L156 303 C156 181 169 0 335 0 C436 0 518 92 518 191 C518 223 494 225 468 225 C464 225 458 222 454 221 C449 148 424 63 336 63 C245 63 223 155 223 227 L223 331 L364 331 C421 331 417 329 474 329 C496 329 500 336 500 357 L500 396 Z " />
<glyph glyph-name="Utilde" unicode="&#x168;" horiz-adv-x="706" d="M592 714 C591 675 591 635 591 596 C591 517 592 439 592 360 C592 212 515 59 350 59 C264 59 251 101 212 112 C110 242 117 310 117 477 C117 550 121 623 121 696 C121 705 117 721 109 721 L61 720 C48 712 50 532 50 535 L50 345 C50 179 150 -5 358 -5 C401 -5 443 9 480 29 C659 127 656 303 656 485 C656 544 660 603 660 662 C660 697 655 720 604 721 L592 714 Z M439 867 C403 841 346 910 281 910 C247 910 187 885 187 844 C187 825 208 820 222 822 C249 826 264 853 295 853 C327 853 356 807 414 807 C450 807 519 835 519 878 C519 895 490 903 439 867 L439 867 Z " />
<glyph glyph-name="utilde" unicode="&#x169;" horiz-adv-x="555" d="M51 411 C51 268 54 -1 255 -1 C342 -1 415 68 442 147 L441 53 C441 22 441 7 478 7 L509 9 L509 31 C509 260 499 488 506 717 L500 727 L443 727 L439 722 C436 673 439 623 439 574 C439 439 439 67 242 67 C70 67 121 551 121 661 C121 706 117 728 66 728 C62 728 56 724 53 723 L51 411 Z M363 867 C327 841 270 910 205 910 C171 910 111 885 111 844 C111 825 132 820 146 822 C173 826 188 853 219 853 C251 853 280 807 338 807 C374 807 443 835 443 878 C443 895 414 903 363 867 L363 867 Z " />
<glyph glyph-name="Umacron" unicode="&#x16a;" horiz-adv-x="706" d="M592 714 C591 675 591 635 591 596 C591 517 592 439 592 360 C592 212 515 59 350 59 C264 59 251 101 212 112 C110 242 117 310 117 477 C117 550 121 623 121 696 C121 705 117 721 109 721 L61 720 C48 712 50 532 50 535 L50 345 C50 179 150 -5 358 -5 C401 -5 443 9 480 29 C659 127 656 303 656 485 C656 544 660 603 660 662 C660 697 655 720 604 721 L592 714 Z M538 885 C471 889 345 889 278 889 C255 889 183 891 176 894 L169 888 L168 879 L169 831 L169 832 L171 827 C194 823 217 826 240 826 C277 826 316 820 353 820 C519 820 475 818 512 818 C534 818 538 825 538 846 L538 885 Z " />
<glyph glyph-name="umacron" unicode="&#x16b;" horiz-adv-x="555" d="M51 411 C51 268 54 -1 255 -1 C342 -1 415 68 442 147 L441 53 C441 22 441 7 478 7 L509 9 L509 31 C509 260 499 488 506 717 L500 727 L443 727 L439 722 C436 673 439 623 439 574 C439 439 439 67 242 67 C70 67 121 551 121 661 C121 706 117 728 66 728 C62 728 56 724 53 723 L51 411 Z M462 881 C395 885 269 885 202 885 C179 885 107 887 100 890 L93 884 L92 875 L93 827 L93 828 L95 823 C118 819 141 822 164 822 C201 822 240 816 277 816 C443 816 399 814 436 814 C458 814 462 821 462 842 L462 881 Z " />
<glyph glyph-name="Ubreve" unicode="&#x16c;" horiz-adv-x="706" d="M592 714 C591 675 591 635 591 596 C591 517 592 439 592 360 C592 212 515 59 350 59 C264 59 251 101 212 112 C110 242 117 310 117 477 C117 550 121 623 121 696 C121 705 117 721 109 721 L61 720 C48 712 50 532 50 535 L50 345 C50 179 150 -5 358 -5 C401 -5 443 9 480 29 C659 127 656 303 656 485 C656 544 660 603 660 662 C660 697 655 720 604 721 L592 714 Z M398 905 C403 887 384 856 353 856 C316 856 299 873 302 902 C306 940 253 966 253 899 C253 841 290 801 350 801 C403 801 452 844 452 900 C452 962 386 953 398 905 L398 905 Z " />
<glyph glyph-name="ubreve" unicode="&#x16d;" horiz-adv-x="555" d="M51 411 C51 268 54 -1 255 -1 C342 -1 415 68 442 147 L441 53 C441 22 441 7 478 7 L509 9 L509 31 C509 260 499 488 506 717 L500 727 L443 727 L439 722 C436 673 439 623 439 574 C439 439 439 67 242 67 C70 67 121 551 121 661 C121 706 117 728 66 728 C62 728 56 724 53 723 L51 411 Z M323 901 C328 883 309 852 278 852 C241 852 224 869 227 898 C231 936 178 962 178 895 C178 837 215 797 275 797 C328 797 377 840 377 896 C377 958 311 949 323 901 L323 901 Z " />
<glyph glyph-name="Uring" unicode="&#x16e;" horiz-adv-x="706" d="M592 714 C591 675 591 635 591 596 C591 517 592 439 592 360 C592 212 515 59 350 59 C264 59 251 101 212 112 C110 242 117 310 117 477 C117 550 121 623 121 696 C121 705 117 721 109 721 L61 720 C48 712 50 532 50 535 L50 345 C50 179 150 -5 358 -5 C401 -5 443 9 480 29 C659 127 656 303 656 485 C656 544 660 603 660 662 C660 697 655 720 604 721 L592 714 Z M353 797 C406 797 455 840 455 896 C455 951 411 998 355 998 C300 998 250 948 256 895 C256 837 293 797 353 797 L353 797 Z M305 898 C305 932 330 942 351 941 C383 940 394 916 396 901 C401 883 387 852 356 852 C319 852 305 869 305 898 L305 898 Z " />
<glyph glyph-name="uring" unicode="&#x16f;" horiz-adv-x="555" d="M51 411 C51 268 54 -1 255 -1 C342 -1 415 68 442 147 L441 53 C441 22 441 7 478 7 L509 9 L509 31 C509 260 499 488 506 717 L500 727 L443 727 L439 722 C436 673 439 623 439 574 C439 439 439 67 242 67 C70 67 121 551 121 661 C121 706 117 728 66 728 C62 728 56 724 53 723 L51 411 Z M278 797 C331 797 380 840 380 896 C380 951 336 998 280 998 C225 998 175 948 181 895 C181 837 218 797 278 797 L278 797 Z M230 898 C230 932 255 942 276 941 C308 940 319 916 321 901 C326 883 312 852 281 852 C244 852 230 869 230 898 L230 898 Z " />
<glyph glyph-name="Uhungarumlaut" unicode="&#x170;" horiz-adv-x="706" d="M592 714 C591 675 591 635 591 596 C591 517 592 439 592 360 C592 212 515 59 350 59 C264 59 251 101 212 112 C110 242 117 310 117 477 C117 550 121 623 121 696 C121 705 117 721 109 721 L61 720 C48 712 50 532 50 535 L50 345 C50 179 150 -5 358 -5 C401 -5 443 9 480 29 C659 127 656 303 656 485 C656 544 660 603 660 662 C660 697 655 720 604 721 L592 714 Z M367 886 C367 913 351 932 323 932 C303 932 284 894 259 868 C228 835 188 821 188 805 C188 785 209 784 224 784 C266 784 367 836 367 886 L367 886 Z M554 886 C554 913 538 932 510 932 C490 932 471 894 446 868 C415 835 375 821 375 805 C375 785 396 784 411 784 C453 784 554 836 554 886 L554 886 Z " />
<glyph glyph-name="uhungarumlaut" unicode="&#x171;" horiz-adv-x="555" d="M51 411 C51 268 54 -1 255 -1 C342 -1 415 68 442 147 L441 53 C441 22 441 7 478 7 L509 9 L509 31 C509 260 499 488 506 717 L500 727 L443 727 L439 722 C436 673 439 623 439 574 C439 439 439 67 242 67 C70 67 121 551 121 661 C121 706 117 728 66 728 C62 728 56 724 53 723 L51 411 Z M273 886 C273 913 257 932 229 932 C209 932 190 894 165 868 C134 835 94 821 94 805 C94 785 115 784 130 784 C172 784 273 836 273 886 L273 886 Z M460 886 C460 913 444 932 416 932 C396 932 377 894 352 868 C321 835 281 821 281 805 C281 785 302 784 317 784 C359 784 460 836 460 886 L460 886 Z " />
<glyph glyph-name="Uogonek" unicode="&#x172;" horiz-adv-x="706" d="M592 714 C591 675 591 635 591 596 C591 517 592 439 592 360 C592 212 515 59 350 59 C264 59 251 101 212 112 C110 242 117 310 117 477 C117 550 121 623 121 696 C121 705 117 721 109 721 L61 720 C48 712 50 532 50 535 L50 345 C50 197 130 34 295 1 C285 -15 278 -37 278 -70 C278 -143 351 -164 411 -164 C432 -164 455 -148 467 -132 C464 -123 426 -83 419 -87 C411 -92 404 -99 396 -99 C360 -99 342 -85 342 -48 C342 -8 370 -8 395 -1 C424 7 454 15 480 29 C659 127 656 303 656 485 C656 544 660 603 660 662 C660 697 655 720 604 721 L592 714 Z " />
<glyph glyph-name="uogonek" unicode="&#x173;" horiz-adv-x="555" d="M51 411 C51 268 54 -1 255 -1 C342 -1 415 68 442 147 L441 14 C415 2 390 -24 390 -86 C390 -159 463 -180 523 -180 C544 -180 567 -164 579 -148 C576 -139 538 -99 531 -103 C523 -108 516 -115 508 -115 C472 -115 454 -101 454 -64 C454 -32 472 -23 509 -21 L509 1 C509 230 499 488 506 717 L500 727 L443 727 L439 722 C436 673 439 623 439 574 C439 439 439 67 242 67 C70 67 121 551 121 661 C121 706 117 728 66 728 C62 728 56 724 53 723 L51 411 Z " />
<glyph glyph-name="Wcircumflex" unicode="&#x174;" horiz-adv-x="940" d="M311 707 C311 695 417 398 430 361 C419 341 335 87 328 102 C321 116 303 176 295 198 L180 525 C160 582 132 722 97 722 C87 722 50 719 50 707 C50 688 282 28 298 14 C311 3 317 3 324 3 C378 3 387 68 404 110 C424 161 443 214 465 264 C466 262 539 31 560 13 L567 7 C573 4 578 3 585 3 C608 3 628 14 637 37 C656 88 892 680 892 695 C892 703 850 716 840 719 C836 719 833 715 830 713 C799 665 592 93 590 101 C585 119 574 133 570 153 C554 220 521 289 500 354 C515 392 631 682 631 695 C631 703 589 716 579 719 C575 719 572 715 569 713 C523 636 504 533 466 451 C456 482 389 722 358 722 C348 722 311 719 311 707 L311 707 Z M399 872 C368 839 328 825 328 809 C328 789 349 788 364 788 C389 788 436 837 469 863 C502 837 549 788 575 788 C590 788 611 789 611 809 C611 825 571 839 540 872 C517 896 502 935 469 935 C436 935 419 893 399 872 L399 872 Z " />
<glyph glyph-name="wcircumflex" unicode="&#x175;" horiz-adv-x="642" d="M50 709 C50 657 167 44 181 21 C187 10 198 -1 212 -1 C274 -1 306 280 320 333 C331 270 358 50 397 12 C400 10 408 -1 415 0 L429 3 C439 17 457 30 460 46 L479 167 C503 290 534 411 561 532 C573 584 596 638 596 691 C596 708 549 712 539 713 L531 706 C500 579 424 299 424 183 L421 163 C416 207 366 469 353 495 C335 498 317 502 300 507 L292 501 C262 395 240 285 215 178 L212 178 C212 233 155 473 142 550 C137 581 135 717 93 717 C81 717 62 711 50 709 L50 709 Z M250 868 C219 835 179 821 179 805 C179 785 200 784 215 784 C240 784 287 833 320 859 C353 833 400 784 426 784 C441 784 462 785 462 805 C462 821 422 835 391 868 C368 892 353 931 320 931 C287 931 270 889 250 868 L250 868 Z " />
<glyph glyph-name="Ycircumflex" unicode="&#x176;" horiz-adv-x="666" d="M565 727 C530 688 337 461 314 422 C298 422 98 729 76 729 C68 729 27 707 27 700 C27 699 262 374 281 359 L282 314 C283 284 273 252 274 222 C274 207 277 195 277 182 C277 174 279 168 278 153 C278 128 280 -6 304 -6 C316 -6 348 6 359 10 C349 62 340 111 340 164 C340 229 348 294 348 359 C379 402 617 680 617 691 C617 695 575 727 571 728 L565 727 Z M262 872 C231 839 191 825 191 809 C191 789 212 788 227 788 C252 788 299 837 332 863 C365 837 412 788 438 788 C453 788 474 789 474 809 C474 825 434 839 403 872 C380 896 365 935 332 935 C299 935 282 893 262 872 L262 872 Z " />
<glyph glyph-name="ycircumflex" unicode="&#x177;" horiz-adv-x="503" d="M50 602 C50 451 70 301 258 301 C307 301 356 320 390 355 C386 232 387 64 221 64 C167 64 125 98 120 154 L121 169 C121 174 120 180 115 182 C103 185 91 185 79 185 L61 185 C56 185 53 167 53 163 C53 69 132 -4 227 -4 C485 -4 456 325 456 506 L455 661 C455 711 451 721 399 721 C396 721 391 718 388 717 C386 648 385 578 387 509 C372 440 350 368 265 368 C237 368 209 368 183 379 C165 387 148 402 138 419 C91 503 118 581 118 677 C118 707 116 720 82 720 L51 718 L50 602 Z M181 868 C150 835 110 821 110 805 C110 785 131 784 146 784 C171 784 218 833 251 859 C284 833 331 784 357 784 C372 784 393 785 393 805 C393 821 353 835 322 868 C299 892 284 931 251 931 C218 931 201 889 181 868 L181 868 Z " />
<glyph glyph-name="Ydieresis" unicode="&#x178;" horiz-adv-x="666" d="M565 727 C530 688 337 461 314 422 C298 422 98 729 76 729 C68 729 27 707 27 700 C27 699 262 374 281 359 L282 314 C283 284 273 252 274 222 C274 207 277 195 277 182 C277 174 279 168 278 153 C278 128 280 -6 304 -6 C316 -6 348 6 359 10 C349 62 340 111 340 164 C340 229 348 294 348 359 C379 402 617 680 617 691 C617 695 575 727 571 728 L565 727 Z M243 826 C260 826 279 841 278 857 C278 865 279 869 279 875 C279 902 261 917 231 917 C229 917 228 916 225 916 C205 916 189 901 189 877 C189 866 191 854 197 846 C204 835 217 826 230 826 L243 826 Z M411 826 C415 826 427 828 431 828 C460 828 476 917 412 917 C410 917 409 916 406 916 C386 916 370 901 370 877 C370 866 372 854 378 846 C385 835 398 826 411 826 L411 826 Z " />
<glyph glyph-name="Zacute" unicode="&#x179;" horiz-adv-x="719" d="M144 71 C144 73 170 100 172 103 C227 163 619 622 637 642 L669 678 L669 694 C664 704 660 709 651 716 C608 724 560 726 511 726 C474 726 436 725 400 725 C295 725 189 736 85 736 C75 736 62 736 62 722 C62 715 65 710 65 702 C65 694 62 685 62 677 L65 674 C78 667 153 665 222 665 C276 665 327 666 346 666 C420 666 494 658 568 658 L569 656 C569 650 561 648 557 644 C511 596 465 546 424 494 C409 475 398 455 380 438 C331 390 295 332 249 283 C190 220 139 154 78 85 C74 80 50 49 50 43 C50 25 65 16 80 11 C97 5 506 -1 557 -1 C568 -1 580 -2 591 -2 C626 -2 660 4 660 50 C660 57 660 63 652 64 C614 70 521 72 444 72 C357 72 265 70 213 70 L145 70 L144 71 Z M449 886 C449 913 433 932 405 932 C385 932 366 894 341 868 C310 835 270 821 270 805 C270 785 291 784 306 784 C348 784 449 836 449 886 L449 886 Z " />
<glyph glyph-name="zacute" unicode="&#x17a;" horiz-adv-x="368" d="M315 64 C251 68 187 70 123 72 C125 178 318 578 318 688 C318 723 265 723 241 723 C212 723 74 725 57 716 C53 707 57 697 57 687 C57 638 61 651 114 651 C155 651 197 659 238 659 L243 656 C230 641 50 76 50 47 C50 -8 220 -1 263 -1 C310 -1 319 8 319 55 C319 57 316 62 315 64 L315 64 Z M273 886 C273 913 257 932 229 932 C209 932 190 894 165 868 C134 835 94 821 94 805 C94 785 115 784 130 784 C172 784 273 836 273 886 L273 886 Z " />
<glyph glyph-name="Zdotaccent" unicode="&#x17b;" horiz-adv-x="719" d="M144 71 C144 73 170 100 172 103 C227 163 619 622 637 642 L669 678 L669 694 C664 704 660 709 651 716 C608 724 560 726 511 726 C474 726 436 725 400 725 C295 725 189 736 85 736 C75 736 62 736 62 722 C62 715 65 710 65 702 C65 694 62 685 62 677 L65 674 C78 667 153 665 222 665 C276 665 327 666 346 666 C420 666 494 658 568 658 L569 656 C569 650 561 648 557 644 C511 596 465 546 424 494 C409 475 398 455 380 438 C331 390 295 332 249 283 C190 220 139 154 78 85 C74 80 50 49 50 43 C50 25 65 16 80 11 C97 5 506 -1 557 -1 C568 -1 580 -2 591 -2 C626 -2 660 4 660 50 C660 57 660 63 652 64 C614 70 521 72 444 72 C357 72 265 70 213 70 L145 70 L144 71 Z M368 826 C385 826 398 842 403 857 L401 863 C402 867 404 871 404 875 C403 902 386 917 356 917 C354 917 353 916 350 916 C330 916 314 901 314 877 C314 866 316 854 322 846 C329 835 342 826 355 826 L368 826 Z " />
<glyph glyph-name="zdotaccent" unicode="&#x17c;" horiz-adv-x="368" d="M315 64 C251 68 187 70 123 72 C125 178 318 578 318 688 C318 723 265 723 241 723 C212 723 74 725 57 716 C53 707 57 697 57 687 C57 638 61 651 114 651 C155 651 197 659 238 659 L243 656 C230 641 50 76 50 47 C50 -8 220 -1 263 -1 C310 -1 319 8 319 55 C319 57 316 62 315 64 L315 64 Z M193 822 C210 822 223 838 228 853 L226 859 C227 863 229 867 229 871 C228 898 211 913 181 913 C179 913 178 912 175 912 C155 912 139 897 139 873 C139 862 141 850 147 842 C154 831 167 822 180 822 L193 822 Z " />
<glyph glyph-name="Zcaron" unicode="&#x17d;" horiz-adv-x="719" d="M144 71 C144 73 170 100 172 103 C227 163 619 622 637 642 L669 678 L669 694 C664 704 660 709 651 716 C608 724 560 726 511 726 C474 726 436 725 400 725 C295 725 189 736 85 736 C75 736 62 736 62 722 C62 715 65 710 65 702 C65 694 62 685 62 677 L65 674 C78 667 153 665 222 665 C276 665 327 666 346 666 C420 666 494 658 568 658 L569 656 C569 650 561 648 557 644 C511 596 465 546 424 494 C409 475 398 455 380 438 C331 390 295 332 249 283 C190 220 139 154 78 85 C74 80 50 49 50 43 C50 25 65 16 80 11 C97 5 506 -1 557 -1 C568 -1 580 -2 591 -2 C626 -2 660 4 660 50 C660 57 660 63 652 64 C614 70 521 72 444 72 C357 72 265 70 213 70 L145 70 L144 71 Z M289 851 C309 830 326 788 359 788 C392 788 407 827 430 851 C461 884 501 898 501 914 C501 934 480 935 465 935 C439 935 392 886 359 860 C326 886 279 935 254 935 C239 935 218 934 218 914 C218 898 258 884 289 851 L289 851 Z " />
<glyph glyph-name="zcaron" unicode="&#x17e;" horiz-adv-x="368" d="M315 64 C251 68 187 70 123 72 C125 178 318 578 318 688 C318 723 265 723 241 723 C212 723 74 725 57 716 C53 707 57 697 57 687 C57 638 61 651 114 651 C155 651 197 659 238 659 L243 656 C230 641 50 76 50 47 C50 -8 220 -1 263 -1 C310 -1 319 8 319 55 C319 57 316 62 315 64 L315 64 Z M114 847 C134 826 151 784 184 784 C217 784 232 823 255 847 C286 880 326 894 326 910 C326 930 305 931 290 931 C264 931 217 882 184 856 C151 882 104 931 79 931 C64 931 43 930 43 910 C43 894 83 880 114 847 L114 847 Z " />
<glyph glyph-name="longs" unicode="&#x17f;" horiz-adv-x="572" d="M522 506 C522 615 468 726 345 726 C254 726 218 681 184 607 C152 535 164 453 164 376 L163 323 L59 328 L51 322 L50 312 L51 266 L53 261 C90 259 125 259 162 255 C160 175 157 95 157 15 C157 11 161 4 163 0 C206 -1 220 -4 224 7 C226 60 225 113 225 166 C225 195 229 223 228 488 C228 558 252 663 340 663 C459 663 448 525 466 498 C468 494 518 505 522 506 L522 506 Z " />
</font>
</svg>
